<?xml version="1.0" standalone="no"?>
<!DOCTYPE svg PUBLIC "-//W3C//DTD SVG 1.1//EN" "http://www.w3.org/Graphics/SVG/1.1/DTD/svg11.dtd" >
<svg>
<metadata>
Created by FontForge 20090914 at Wed Oct 23 15:24:42 2013
 By www-data
(c) 2002 Rogier van Dalen
</metadata>
<defs>
<font id="Legendum-Regular" horiz-adv-x="160" >
  <font-face 
    font-family="Legendum"
    font-weight="400"
    font-stretch="normal"
    units-per-em="256"
    panose-1="2 11 6 4 3 5 4 4 2 4"
    ascent="204"
    descent="-52"
    x-height="140"
    cap-height="190"
    bbox="-135 -103 335 309.999"
    underline-thickness="10"
    underline-position="-15"
    unicode-range="U+0020-U+FB06"
  />
<missing-glyph horiz-adv-x="210" 
d="M50 0v170h150v-170h-150zM66 16h118v138h-118v-138z" />
    <glyph glyph-name=".notdef" horiz-adv-x="210" 
d="M50 0v170h150v-170h-150zM66 16h118v138h-118v-138z" />
    <glyph glyph-name="space" unicode=" " horiz-adv-x="70" 
 />
    <glyph glyph-name="space" unicode="&#xa0;" horiz-adv-x="70" 
 />
    <glyph glyph-name="exclam" unicode="!" horiz-adv-x="90" 
d="M35 0v25h20v-25h-20zM35 50l-3 140h26l-3 -140h-20z" />
    <glyph glyph-name="quotedbl" unicode="&#x22;" horiz-adv-x="110" 
d="M27 130l-5 70h26l-5 -70h-16zM67 130l-5 70h26l-5 -70h-16z" />
    <glyph glyph-name="numbersign" unicode="#" horiz-adv-x="200" 
d="M20 10v20h145v-20h-145zM35 90v20h145v-20h-145zM100 -40l40 200h20l-40 -200h-20zM40 -40l40 200h20l-40 -200h-20z" />
    <glyph glyph-name="dollar" unicode="$" 
d="M20 8l-0.000976562 19.9971c16.667 -8.66699 35 -13 55 -13s32.5 2.5 37.5 7.5s7.5 10.833 7.5 17.5s-4.66699 12 -14 16s-22.166 6.66699 -38.499 8s-28.333 5.16602 -36 11.499s-11.5 15.333 -11.5 27s4.5 21.667 13.5 30s26.167 12.5 51.5 12.5
c22 0 38.667 -4.33301 50 -13v-20c-13.333 8.66699 -30 13 -50 13s-32.5 -2.5 -37.5 -7.5s-7.5 -10.833 -7.5 -17.5s3.83301 -11.167 11.5 -13.5s20.5 -4.16602 38.5 -5.49902s30.833 -5.16602 38.5 -11.499s11.5 -16.166 11.5 -29.499s-4.5 -24.166 -13.5 -32.499
s-26.167 -12.5 -51.5 -12.5c-22 0 -40.333 4.33301 -55 13zM69.999 -20.0029v180h20v-180h-20z" />
    <glyph glyph-name="percent" unicode="%" horiz-adv-x="240" 
d="M35 0l148 190h22l-148 -190h-22zM25 142.5c0 15 3.33301 27.5 10 37.5s16.667 15 30 15s23.333 -5 30 -15s10 -22.5 10 -37.5s-3.33301 -27.5 -10 -37.5s-16.667 -15 -30 -15s-23.333 5 -30 15s-10 22.5 -10 37.5zM49 115c4 -6.66699 9.33301 -10 16 -10
s12 3.33301 16 10s6 15.834 6 27.501s-2 20.834 -6 27.501s-9.33301 10 -16 10s-12 -3.33301 -16 -10s-6 -15.834 -6 -27.501s2 -20.834 6 -27.501zM135 47.5c0 15 3.33301 27.5 10 37.5s16.667 15 30 15s23.333 -5 30 -15s10 -22.5 10 -37.5s-3.33301 -27.5 -10 -37.5
s-16.667 -15 -30 -15s-23.333 5 -30 15s-10 22.5 -10 37.5zM159 20c4 -6.66699 9.33301 -10 16 -10s12 3.33301 16 10s6 15.834 6 27.501s-2 20.834 -6 27.501s-9.33301 10 -16 10s-12 -3.33301 -16 -10s-6 -15.834 -6 -27.501s2 -20.834 6 -27.501z" />
    <glyph glyph-name="ampersand" unicode="&#x26;" horiz-adv-x="220" 
d="M80 125l18 -15.002c18 16.667 27 28.834 27 36.501s-2.5 14.334 -7.5 20.001s-13.333 8.5 -25 8.5s-20 -2.5 -25 -7.5s-7.5 -10.833 -7.5 -17.5s6.66699 -15 20 -25zM25 54.998c0 20 13.335 38.333 40.002 55c-16.667 13.333 -25 26.666 -25 39.999
s4.66699 24.166 14 32.499s22.166 12.5 38.499 12.5s29.166 -4.16699 38.499 -12.5s14 -19.5 14 -33.5s-11.667 -31 -35 -51l100 -98h-25l-105 100c-23.333 -13.333 -35 -27.166 -35 -41.499s3.33301 -25.166 10 -32.499s20 -11 40 -11s49.333 20 88 60l12 -10
c-42 -46.667 -75.333 -70 -100 -70s-42.5 5 -53.5 15s-16.5 25 -16.5 45z" />
    <glyph glyph-name="quotesingle" unicode="'" horiz-adv-x="70" 
d="M27 130l-5 70h26l-5 -70h-16z" />
    <glyph glyph-name="parenleft" unicode="(" horiz-adv-x="80" 
d="M20 70c0 46.667 15 86.6689 45 120.002l15 -10c-26.667 -26.667 -40 -63.334 -40 -110.001s13.333 -83.334 40 -110.001l-15 -10c-30 33.333 -45 73.333 -45 120z" />
    <glyph glyph-name="parenright" unicode=")" horiz-adv-x="80" 
d="M60 70c0 46.667 -15 86.6689 -45 120.002l-15 -10c26.667 -26.667 40 -63.334 40 -110.001s-13.333 -83.334 -40 -110.001l15 -10c30 33.333 45 73.333 45 120z" />
    <glyph glyph-name="asterisk" unicode="*" horiz-adv-x="114" 
d="M-19 168l9 17l30 -20l-2 35h19l-2 -35l29 19l10 -17l-32 -15l31 -16l-9 -17l-29 21l2 -35h-19l2 35l-30 -20l-10 17l32 15z" />
    <glyph glyph-name="plus" unicode="+" horiz-adv-x="180" 
d="M20 60v20h60v60h20v-60h60v-20h-60v-60h-20v60h-60z" />
    <glyph glyph-name="comma" unicode="," horiz-adv-x="70" 
d="M15 -30l15 55h25l-25 -55h-15z" />
    <glyph glyph-name="hyphen" unicode="-" horiz-adv-x="119" 
d="M20 60v20h80v-20h-80z" />
    <glyph glyph-name="hyphen" unicode="&#xad;" horiz-adv-x="119" 
d="M20 60v20h80v-20h-80z" />
    <glyph glyph-name="period" unicode="." horiz-adv-x="70" 
d="M25 0v25h20v-25h-20z" />
    <glyph glyph-name="slash" unicode="/" horiz-adv-x="140" 
d="M20 -20l77 220h23l-77 -220h-23z" />
    <glyph glyph-name="zero" unicode="0" horiz-adv-x="180" 
d="M15 70c0 23.333 6.66699 41.666 20 54.999s31.666 20 54.999 20s41.666 -6.66699 54.999 -20s20 -31.666 20 -54.999s-6.66699 -41.666 -20 -54.999s-31.666 -20 -54.999 -20s-41.666 6.66699 -54.999 20s-20 31.666 -20 54.999zM35 70c0 -16.667 5 -30.834 15 -42.501
s23.333 -17.5 40 -17.5s30 5.83301 40 17.5s15 25.834 15 42.501s-5 30.834 -15 42.501s-23.333 17.5 -40 17.5s-30 -5.83301 -40 -17.5s-15 -25.834 -15 -42.501z" />
    <glyph glyph-name="one" unicode="1" horiz-adv-x="180" 
d="M45 0v15.001h35v98l-35 -5v15c18 3.33301 31.333 10.666 40 21.999h15v-130h35v-15h-90z" />
    <glyph glyph-name="two" unicode="2" horiz-adv-x="180" 
d="M30 0v23c65.333 32.667 98 56.667 98 72c0 10 -3 18.333 -9 25s-17.333 10 -34 10s-31.667 -6.66699 -45 -20l-10 13c16.667 14.667 35 22 55 22s35.833 -4.16699 47.5 -12.5s17.5 -20.833 17.5 -37.5c0 -21.333 -33 -47 -99 -77h104v-18h-125z" />
    <glyph glyph-name="three" unicode="3" horiz-adv-x="180" 
d="M55 53l0.00195312 15.001c26.667 0 44.667 3.66699 54 11s14 15.166 14 23.499s-3 15 -9 20s-16.5 7.5 -31.5 7.5s-30.833 -6.66699 -47.5 -20v15c13.333 13.333 29.166 20 47.499 20s33.333 -3.33301 45 -10s17.5 -16.667 17.5 -30s-4.16699 -22.833 -12.5 -28.5
s-20.833 -10.5 -37.5 -14.5c13.333 0 25.833 -4.5 37.5 -13.5s17.5 -22 17.5 -39s-5.83301 -31.167 -17.5 -42.5s-28.334 -17 -50.001 -17s-40.834 6.66699 -57.501 20v15c20 -13.333 38.333 -20 55 -20s28.834 5 36.501 15s11.5 20 11.5 30s-3.83301 19.667 -11.5 29
s-28.167 14 -61.5 14z" />
    <glyph glyph-name="four" unicode="4" horiz-adv-x="180" 
d="M22 0v26l98 114h17v-122h30v-18h-30v-50h-20v50h-95zM117 18v92l-79 -92h79z" />
    <glyph glyph-name="five" unicode="5" horiz-adv-x="180" 
d="M25 -40l3 17c18 -8 34.5 -12 49.5 -12s27.167 5 36.5 15s14 21.667 14 35s-5.5 25 -16.5 35s-34.167 13.333 -69.5 10l13 80h95l-3 -18h-75l-7 -47c26.667 1.33301 47.5 -3.33398 62.5 -14.001s22.5 -26.167 22.5 -46.5s-6.66699 -36.166 -20 -47.499s-30 -17 -50 -17
s-38.333 3.33301 -55 10z" />
    <glyph glyph-name="six" unicode="6" horiz-adv-x="180" 
d="M30 70c0 77.333 34.999 117.332 104.999 119.999l5 -14c-53.333 -2 -82.666 -27.333 -87.999 -76c10.667 13.333 24.667 20 42 20s31.833 -5.66699 43.5 -17s17.5 -27.166 17.5 -47.499s-5.83301 -35.5 -17.5 -45.5s-26.167 -15 -43.5 -15s-32.333 5 -45 15
s-19 30 -19 60zM63.499 23.999c7.66699 -9.33301 17.834 -14 30.501 -14s22.334 4.66699 29.001 14s10 20.666 10 33.999s-3.33301 24.5 -10 33.5s-16.334 13.5 -29.001 13.5s-22.834 -4.5 -30.501 -13.5s-11.5 -20.167 -11.5 -33.5s3.83301 -24.666 11.5 -33.999z" />
    <glyph glyph-name="seven" unicode="7" horiz-adv-x="180" 
d="M25 122v18.001h130v-17c-40 -54 -71.667 -111.667 -95 -173h-21c23.333 61.333 53.333 118.666 90 171.999h-104z" />
    <glyph glyph-name="eight" unicode="8" horiz-adv-x="180" 
d="M22 55c0 20 11.002 37.668 33.002 53.001c-15.333 11.333 -23 23.666 -23 36.999s5.5 25 16.5 35s24.667 15 41 15s30 -4.16699 41 -12.5s16.5 -20.833 16.5 -37.5s-8.33301 -30 -25 -40c23.333 -13.333 35 -30 35 -50s-6.33301 -35 -19 -45s-28.834 -15 -48.501 -15
s-35.834 5 -48.501 15s-19 25 -19 45zM55.502 23.501c7.66699 -9 18.999 -13.5 33.999 -13.5s26.333 4.5 34 13.5s11.5 19.5 11.5 31.5s-4.66699 21.667 -14 29s-25.666 12.666 -48.999 15.999c-18.667 -13.333 -28 -27.166 -28 -41.499s3.83301 -26 11.5 -35z
M107.001 110.001c13.333 10 20.002 20.8311 20.002 32.498s-3.33301 20.834 -10 27.501s-15.834 10 -27.501 10s-20.834 -4.16699 -27.501 -12.5s-10 -15.5 -10 -21.5s3.33301 -12.667 10 -20s21.667 -12.666 45 -15.999z" />
    <glyph glyph-name="nine" unicode="9" horiz-adv-x="180" 
d="M155 70c0 -77.333 -34.999 -117.332 -104.999 -119.999l-5 14c53.333 2 82.666 27.333 87.999 76c-10.667 -13.333 -24.667 -20 -42 -20s-31.833 5.66699 -43.5 17s-17.5 27.166 -17.5 47.499s5.83301 35.5 17.5 45.5s26.167 15 43.5 15s32.333 -5 45 -15s19 -30 19 -60z
M121.501 116.001c-7.66699 9.33301 -17.834 14 -30.501 14s-22.334 -4.66699 -29.001 -14s-10 -20.666 -10 -33.999s3.33301 -24.5 10 -33.5s16.334 -13.5 29.001 -13.5s22.834 4.5 30.501 13.5s11.5 20.167 11.5 33.5s-3.83301 24.666 -11.5 33.999z" />
    <glyph glyph-name="colon" unicode=":" horiz-adv-x="70" 
d="M25 0v25h20v-25h-20zM25 115v25h20v-25h-20z" />
    <glyph glyph-name="semicolon" unicode=";" horiz-adv-x="70" 
d="M15 -30l15 55h25l-25 -55h-15zM25 115v25h20v-25h-20z" />
    <glyph glyph-name="less" unicode="&#x3c;" horiz-adv-x="190" 
d="M20 80l150 60v-20l-125 -50l125 -50v-20l-150 60v20z" />
    <glyph glyph-name="equal" unicode="=" horiz-adv-x="190" 
d="M20 25v20h150v-20h-150zM20 95v20h150v-20h-150z" />
    <glyph glyph-name="greater" unicode="&#x3e;" horiz-adv-x="190" 
d="M170 80l-150 60v-20l125 -50l-125 -50v-20l150 60v20z" />
    <glyph glyph-name="question" unicode="?" horiz-adv-x="155" 
d="M60 0v25h20v-25h-20zM60 50l0.000976562 29.999c23.333 10 38.333 19.167 45 27.5s9.66699 18.833 9 31.5s-4 21.834 -10 27.501s-17.333 8.5 -34 8.5s-33.334 -6.66699 -50.001 -20v20c16.667 13.333 35 20 55 20s35 -5 45 -15s15 -24.167 15 -42.5s-5 -32.5 -15 -42.5
s-23.333 -18.333 -40 -25v-20h-20z" />
    <glyph glyph-name="at" unicode="@" horiz-adv-x="280" 
d="M30 87.5c0 35 10.001 62.5 30.001 82.5s47.5 30 82.5 30s61.667 -8.33301 80 -25s27.5 -40 27.5 -70s-5 -50 -15 -60s-25 -15 -45 -15h-20v10c-10 -6.66699 -23.333 -10 -40 -10c-13.333 0 -23.333 5 -30 15s-10 24.333 -10 43s3.33301 32.834 10 42.501
s18.334 14.5 35.001 14.5c13.333 0 25 -3.33301 35 -10v10h20v-95c16.667 0 27.5 3.33301 32.5 10s7.5 21.667 7.5 45s-7.5 41.666 -22.5 54.999s-36.667 20 -65 20s-50.833 -8.33301 -67.5 -25s-25 -39.167 -25 -67.5s6.66699 -50.833 20 -67.5s35 -25 65 -25
s56.667 6.66699 80 20v-20c-16.667 -13.333 -43.334 -20 -80.001 -20s-63.334 10 -80.001 30s-25 47.5 -25 82.5zM135.001 50c10 0 21.667 2.33301 35 7v61c-13.333 4.66699 -25 7 -35 7c-16.667 0 -25 -12.5 -25 -37.5s8.33301 -37.5 25 -37.5z" />
    <glyph glyph-name="A" unicode="A" horiz-adv-x="180" 
d="M5 0l70 190h30l70 -190h-21l-22 61h-84l-22 -61h-21zM54 79h71l-35 96zM170 0z" />
    <glyph glyph-name="B" unicode="B" horiz-adv-x="170" 
d="M20 0v190h45c53.333 0 80 -17.333 80 -52c0 -8.66699 -3.33301 -16.667 -10 -24s-20.667 -11 -42 -11c41.333 0 62 -17.167 62 -51.5s-28.333 -51.5 -85 -51.5h-50zM40 109h30c34.667 0 52 10.5 52 31.5s-17.333 31.5 -52 31.5h-30v-63zM40 18h40
c34.667 0 52 12.167 52 36.5s-22.333 36.5 -67 36.5h-25v-73zM110 5z" />
    <glyph glyph-name="C" unicode="C" horiz-adv-x="185" 
d="M15 95c0 33.333 8.33301 58.333 25 75s40 25 70 25c23.333 0 43.333 -8.33301 60 -25v-20c-23.333 20 -43.333 30 -60 30c-23.333 0 -41.333 -7.5 -54 -22.5s-19 -35.833 -19 -62.5s6.33301 -47.5 19 -62.5s30.667 -22.5 54 -22.5c16.667 0 36.667 10 60 30v-20
c-16.667 -16.667 -36.667 -25 -60 -25c-30 0 -53.333 8.33301 -70 25s-25 41.667 -25 75zM150 10z" />
    <glyph glyph-name="D" unicode="D" horiz-adv-x="185" 
d="M20 0v190h40c73.333 0 110 -31.667 110 -95s-35 -95 -105 -95h-45zM40 18h30c52 0 78 25.667 78 77s-27.667 77 -83 77h-25v-154zM110 8z" />
    <glyph glyph-name="E" unicode="E" 
d="M20 0v190h130v-18h-110v-64h90v-18h-90v-72h110v-18h-130zM145 0z" />
    <glyph glyph-name="F" unicode="F" horiz-adv-x="150" 
d="M20 0v190h130v-18h-110v-64h90v-18h-90v-90h-20zM30 0z" />
    <glyph glyph-name="G" unicode="G" horiz-adv-x="195" 
d="M15 95c0 33.333 8.33203 58.333 24.999 75s40 25 70 25s53.333 -8.33301 70 -25v-20c-23.333 20 -46.666 30 -69.999 30s-41.333 -7.5 -54 -22.5s-19 -35.833 -19 -62.5s6.33301 -47.5 19 -62.5s30.667 -22.5 54 -22.5c20 0 36.667 6.66699 50 20v52h-50v18h70v-80
c-20 -16.667 -43.333 -25 -70 -25c-30 0 -53.333 8.33301 -70 25s-25 41.667 -25 75zM159.999 10z" />
    <glyph glyph-name="H" unicode="H" horiz-adv-x="180" 
d="M20 0v190h20v-81h100v81h20v-190h-20v91h-100v-91h-20zM155 0z" />
    <glyph glyph-name="I" unicode="I" horiz-adv-x="110" 
d="M20 0v15h25v160h-25v15h70v-15h-25v-160h25v-15h-70zM85 0z" />
    <glyph glyph-name="J" unicode="J" horiz-adv-x="105" 
d="M5 5l-0.000976562 17c12 -6.66699 23.667 -10 35 -10c16.667 0 25 9.33301 25 28v135h-35v15h55v-150c0 -13.333 -4.16699 -23.833 -12.5 -31.5s-19.166 -11.5 -32.499 -11.5c-11.333 0 -23 2.66699 -35 8zM59.999 4z" />
    <glyph glyph-name="K" unicode="K" horiz-adv-x="175" 
d="M20 0v190h20v-99l99 99h26l-83 -83l93 -107h-26l-81 93l-28 -28v-65h-20zM165 0z" />
    <glyph glyph-name="L" unicode="L" horiz-adv-x="150" 
d="M20 0v190h20v-172h105v-18h-125zM130 0z" />
    <glyph glyph-name="M" unicode="M" horiz-adv-x="220" 
d="M20 0v190h30l60 -100l60 100h30v-190h-20v168l-65 -108h-10l-65 108v-168h-20zM195 0z" />
    <glyph glyph-name="N" unicode="N" horiz-adv-x="190" 
d="M20 0v190h28l102 -165v165h20v-190h-28l-102 165v-165h-20zM165 0z" />
    <glyph glyph-name="O" unicode="O" horiz-adv-x="205" 
d="M15 95c0 30 7.83301 54.167 23.5 72.5s37 27.5 64 27.5s48.333 -9.16699 64 -27.5s23.5 -42.5 23.5 -72.5s-7.83301 -54.167 -23.5 -72.5s-37 -27.5 -64 -27.5s-48.333 9.16699 -64 27.5s-23.5 42.5 -23.5 72.5zM37 95c0 -23.333 5.83301 -43.333 17.5 -60
s27.667 -25 48 -25s36.333 8.33301 48 25s17.5 36.667 17.5 60s-5.83301 43.333 -17.5 60s-27.667 25 -48 25s-36.333 -8.33301 -48 -25s-17.5 -36.667 -17.5 -60zM140 6z" />
    <glyph glyph-name="P" unicode="P" horiz-adv-x="165" 
d="M20 0v190h45c60 0 90 -20 90 -60s-30 -60 -90 -60h-25v-70h-20zM40 88h30c41.333 0 62 14 62 42s-20.667 42 -62 42h-30v-84zM30 0z" />
    <glyph glyph-name="Q" unicode="Q" horiz-adv-x="205" 
d="M15 95c0 30 7.83398 54.167 23.501 72.5s37 27.5 64 27.5s48.333 -9.16699 64 -27.5s23.5 -42.5 23.5 -72.5s-7.5 -53.333 -22.5 -70s-30.833 -26 -47.5 -28l-30 -12c13.333 0 24.166 -1.66699 32.499 -5s17.5 -5 27.5 -5s23.333 1.66699 40 5v-14
c-16.667 -5.33301 -30 -8 -40 -8s-19.167 1.66699 -27.5 5s-18.333 5 -30 5s-28.5 -2.66699 -50.5 -8l-2 15l45 22c-16.667 2 -32.5 11.333 -47.5 28s-22.5 40 -22.5 70zM37.001 95c0 -23.333 5.83301 -43.333 17.5 -60s27.667 -25 48 -25s36.333 8.33301 48 25
s17.5 36.667 17.5 60s-5.83301 43.333 -17.5 60s-27.667 25 -48 25s-36.333 -8.33301 -48 -25s-17.5 -36.667 -17.5 -60zM185.001 -35z" />
    <glyph glyph-name="R" unicode="R" horiz-adv-x="175" 
d="M20 0v189.999h45c60 0 90 -17.333 90 -52c0 -15.333 -5 -27.666 -15 -36.999s-22.667 -15.333 -38 -18l68 -83h-25l-65 80h-40v-80h-20zM70 171.999h-30v-74h30c41.333 0 62 12.333 62 37s-20.667 37 -62 37zM160 -0.000976562z" />
    <glyph glyph-name="S" unicode="S" 
d="M15 13v19.9971c23.333 -15.333 43.333 -23 60 -23s28.834 3.33301 36.501 10s11.5 16.334 11.5 29.001s-3.5 22 -10.5 28s-21.167 10.333 -42.5 13s-35.833 7.83398 -43.5 15.501s-11.5 20.334 -11.5 38.001s6.16699 30.667 18.5 39s29.5 12.5 51.5 12.5
c18.667 0 37 -6 55 -18v-20c-20 15.333 -38.333 23 -55 23s-28.834 -3.33301 -36.501 -10s-11.5 -15.5 -11.5 -26.5s3.5 -19.5 10.5 -25.5s21.167 -10.333 42.5 -13s35.833 -7.83398 43.5 -15.501s11.5 -21.167 11.5 -40.5s-6.16699 -33.166 -18.5 -41.499
s-29.5 -12.5 -51.5 -12.5c-18.667 0 -38.667 6 -60 18zM115 4.99707z" />
    <glyph glyph-name="T" unicode="T" horiz-adv-x="150" 
d="M65 0v172h-65v18h150v-18h-65v-172h-20zM75 0z" />
    <glyph glyph-name="U" unicode="U" horiz-adv-x="190" 
d="M20 70v120h20v-120c0 -23.333 5.33301 -39.166 16 -47.499s23.667 -12.5 39 -12.5s28.333 4.16699 39 12.5s16 24.166 16 47.499v120h20v-120c0 -26.667 -7 -45.834 -21 -57.501s-32 -17.5 -54 -17.5s-40 5.83301 -54 17.5s-21 30.834 -21 57.501zM135 7z" />
    <glyph glyph-name="V" unicode="V" horiz-adv-x="180" 
d="M5 190h21l64 -174l64 174h21l-70 -190h-30zM100 0z" />
    <glyph glyph-name="W" unicode="W" horiz-adv-x="240" 
d="M10 190h20l36 -171l44 156h20l44 -156l36 171h20l-40 -190h-30l-40 142l-40 -142h-30zM180 0z" />
    <glyph glyph-name="X" unicode="X" horiz-adv-x="170" 
d="M10 0l63 95l-63 95h24l51 -77l51 77h24l-63 -95l63 -95h-24l-51 77l-51 -77h-24zM145 0z" />
    <glyph glyph-name="Y" unicode="Y" horiz-adv-x="170" 
d="M0 190h24l61 -82l61 82h24l-75 -100v-90h-20v90zM85 0z" />
    <glyph glyph-name="Z" unicode="Z" 
d="M10 0v28l122 144h-122v18h140v-28l-122 -144h122v-18h-140zM140 0z" />
    <glyph glyph-name="bracketleft" unicode="[" horiz-adv-x="100" 
d="M30 -50v240h70v-20h-50v-200h50v-20h-70z" />
    <glyph glyph-name="backslash" unicode="\" horiz-adv-x="140" 
d="M120 -20l-77 220h-23l77 -220h23z" />
    <glyph glyph-name="bracketright" unicode="]" horiz-adv-x="100" 
d="M70 -50v240h-70v-20h50v-200h-50v-20h70z" />
    <glyph glyph-name="asciicircum" unicode="^" horiz-adv-x="180" 
d="M20 90l60 100h20l60 -100h-23l-47 79l-47 -79h-23z" />
    <glyph glyph-name="underscore" unicode="_" horiz-adv-x="170" 
d="M0 -35v20h170v-20h-170z" />
    <glyph glyph-name="grave" unicode="`" horiz-adv-x="70" 
d="M10 210h25l25 -45h-15zM30 215z" />
    <glyph glyph-name="a" unicode="a" horiz-adv-x="150" 
d="M15 40c0 20 9.16699 33.333 27.5 40s40.833 10 67.5 10c0 13.333 -2.5 23 -7.5 29s-15.833 9 -32.5 9s-30 -2.66699 -40 -8l-5 15c14.667 5.33301 29.667 8 45 8c22 0 37.5 -3.83301 46.5 -11.5s13.5 -21.5 13.5 -41.5v-90h-20v15c-13.333 -12 -28.333 -18 -45 -18
s-29.167 3.83301 -37.5 11.5s-12.5 18.167 -12.5 31.5zM43.5 21c4.33301 -6 13.167 -9 26.5 -9c10 0 23.333 6 40 18v44c-26.667 0 -45.5 -2.33301 -56.5 -7s-16.5 -13 -16.5 -25c0 -8 2.16699 -15 6.5 -21zM125.001 0z" />
    <glyph glyph-name="b" unicode="b" 
d="M20 0v200h20v-70c13.333 8.66699 29.166 13 47.499 13s32.5 -6.33301 42.5 -19s15 -30.667 15 -54s-5 -41.333 -15 -54s-24.167 -19 -42.5 -19s-34.166 4.33301 -47.499 13v-10h-20zM40 25c12 -8.66699 25.833 -13 41.5 -13s26.5 5.5 32.5 16.5s9 24.833 9 41.5
s-3 30.5 -9 41.5s-16.833 16.5 -32.5 16.5s-29.5 -4.33301 -41.5 -13v-90zM115 7z" />
    <glyph glyph-name="c" unicode="c" horiz-adv-x="145" 
d="M15 70c0 23.333 6.66699 41.6699 20 55.0029s30 20 50 20s36.667 -5 50 -15v-20c-16.667 13.333 -32.5 20 -47.5 20s-27.333 -5.83301 -37 -17.5s-14.5 -25.834 -14.5 -42.501s4.83301 -30.834 14.5 -42.501s22 -17.5 37 -17.5s30.833 6.66699 47.5 20v-20
c-13.333 -10 -30 -15 -50 -15s-36.667 6.66699 -50 20s-20 31.666 -20 54.999zM130 10.0039z" />
    <glyph glyph-name="d" unicode="d" 
d="M140 0v200h-20v-70c-13.333 8.66699 -29.166 13 -47.499 13s-32.5 -6.33301 -42.5 -19s-15 -30.667 -15 -54s5 -41.333 15 -54s24.167 -19 42.5 -19s34.166 4.33301 47.499 13v-10h20zM120 25c-12 -8.66699 -25.833 -13 -41.5 -13s-26.5 5.5 -32.5 16.5
s-9 24.833 -9 41.5s3 30.5 9 41.5s16.833 16.5 32.5 16.5s29.5 -4.33301 41.5 -13v-90zM135 0z" />
    <glyph glyph-name="e" unicode="e" 
d="M15 70c0 23.333 5.83301 41.668 17.5 55.001s27.5 20 47.5 20s35.833 -5.83301 47.5 -17.5s17.5 -32.5 17.5 -62.5h-109c0 -13.333 3.5 -25.5 10.5 -36.5s19.833 -16.5 38.5 -16.5c15.333 0 29.333 6 42 18l11 -10c-15.333 -16.667 -33 -25 -53 -25
c-23.333 0 -40.833 6.66699 -52.5 20s-17.5 31.666 -17.5 54.999zM36 81.002h88c0 12.667 -3.5 24 -10.5 34s-18.167 15 -33.5 15s-26.5 -5 -33.5 -15s-10.5 -21.333 -10.5 -34zM115 8.00195z" />
    <glyph glyph-name="f" unicode="f" horiz-adv-x="90" 
d="M30 0l0.000976562 122h-25v18h25v10c0 16.667 4.16699 29.167 12.5 37.5s19.166 12.5 32.499 12.5c8 0 16.333 -1.66699 25 -5v-20c-8.66699 5.33301 -17 8 -25 8c-16.667 0 -25 -11 -25 -33v-10h40v-18h-40v-122h-20zM45.001 0z" />
    <glyph glyph-name="g" unicode="g" 
d="M35 16c-10 2.66699 -15 9.33594 -15 20.0029s6.66699 17.667 20 21c-13.333 9.33301 -20 22.166 -20 38.499s5.83301 28.666 17.5 36.999s25 12.5 40 12.5s26.833 -1.66699 35.5 -5c14.667 -3.33301 28.667 -3.33301 42 0v-20h-17c4.66699 -7.33301 7 -17.5 7 -30.5
s-5.83301 -23.667 -17.5 -32s-24 -12.5 -37 -12.5h-35c-10.333 0 -15.5 -2.66699 -15.5 -8s6.66699 -8 20 -8c40 0 66.667 -3.5 80 -10.5s20 -17.167 20 -30.5s-6.66699 -23.5 -20 -30.5s-30.833 -10.5 -52.5 -10.5s-39.167 3.5 -52.5 10.5s-20 16.667 -20 29
s6.66699 22.166 20 29.499zM37 -10.998c0 -9.33301 4.66699 -16.168 14 -20.501s21.5 -6.5 36.5 -6.5s27.167 2.16699 36.5 6.5s14 10.333 14 18s-4.66699 14.334 -14 20.001s-34 8.5 -74 8.5c-8.66699 -8 -13 -16.667 -13 -26zM40 95c0 -10 4.16699 -18.5 12.5 -25.5
s18.333 -10.5 30 -10.5s21.667 3.5 30 10.5s12.5 15.5 12.5 25.5s-4.16699 18.5 -12.5 25.5s-18.333 10.5 -30 10.5s-21.667 -3.5 -30 -10.5s-12.5 -15.5 -12.5 -25.5zM140 -38z" />
    <glyph glyph-name="h" unicode="h" horiz-adv-x="155" 
d="M20 0l-0.000976562 200h20v-83c13.333 17.333 28.333 26 45 26s29.167 -3.83301 37.5 -11.5s12.5 -21.5 12.5 -41.5v-90h-20v85c0 13.333 -2.5 23.5 -7.5 30.5s-14.167 10.5 -27.5 10.5s-26.666 -8.66699 -39.999 -26v-100h-20zM129.999 0z" />
    <glyph glyph-name="i" unicode="i" horiz-adv-x="60" 
d="M20 0v140h20v-140h-20zM20 170v20h20v-20h-20zM35 0z" />
    <glyph glyph-name="j" unicode="j" horiz-adv-x="75" 
d="M-15 -48l-0.000976562 18c8.66699 -3.33301 17 -5 25 -5c16.667 0 25 12.333 25 37v138h20v-138c0 -20 -4.16699 -33.667 -12.5 -41s-19.166 -11 -32.499 -11c-8 0 -16.333 0.666992 -25 2zM34.999 170v20h20v-20h-20zM34.999 -41z" />
    <glyph glyph-name="k" unicode="k" horiz-adv-x="145" 
d="M20 0v200h20v-126l66 66h27l-56 -56l68 -84h-26l-56 69l-23 -22v-47h-20zM135 0z" />
    <glyph glyph-name="l" unicode="l" horiz-adv-x="60" 
d="M20 0v200h20v-200h-20zM35 0z" />
    <glyph glyph-name="m" unicode="m" horiz-adv-x="250" 
d="M20 0l-0.00292969 140.001h20v-23c13.333 17.333 28.333 26 45 26s28.334 -3.33301 35.001 -10s10.667 -12.334 12 -17.001c15.333 18 31.333 27 48 27s29.167 -3.83301 37.5 -11.5s12.5 -21.5 12.5 -41.5v-90h-20v85c0 13.333 -2.5 23.5 -7.5 30.5
s-14.167 10.5 -27.5 10.5s-26.666 -8.66699 -39.999 -26v-100h-20v85c0 13.333 -2.5 23.5 -7.5 30.5s-14.167 10.5 -27.5 10.5s-26.666 -8.66699 -39.999 -26v-100h-20zM224.997 0.000976562z" />
    <glyph glyph-name="n" unicode="n" horiz-adv-x="155" 
d="M20 0l-0.000976562 140h20v-23c13.333 17.333 28.333 26 45 26s29.167 -3.83301 37.5 -11.5s12.5 -21.5 12.5 -41.5v-90h-20v85c0 13.333 -2.5 23.5 -7.5 30.5s-14.167 10.5 -27.5 10.5s-26.666 -8.66699 -39.999 -26v-100h-20zM129.999 0z" />
    <glyph glyph-name="o" unicode="o" horiz-adv-x="165" 
d="M15 70c0 23.333 5.83301 41.666 17.5 54.999s28.334 20 50.001 20s38.334 -6.66699 50.001 -20s17.5 -31.666 17.5 -54.999s-5.83301 -41.666 -17.5 -54.999s-28.334 -20 -50.001 -20s-38.334 6.66699 -50.001 20s-17.5 31.666 -17.5 54.999zM36 70
c0 -16.667 4 -30.834 12 -42.501s19.5 -17.5 34.5 -17.5s26.5 5.83301 34.5 17.5s12 25.834 12 42.501s-4 30.834 -12 42.501s-19.5 17.5 -34.5 17.5s-26.5 -5.83301 -34.5 -17.5s-12 -25.834 -12 -42.501zM121 10z" />
    <glyph glyph-name="p" unicode="p" 
d="M20 -53v193h20v-10c13.333 8.66699 29.333 13 48 13s33 -6.33301 43 -19s15 -30.667 15 -54s-5 -41.333 -15 -54s-24.333 -19 -43 -19s-34.667 4.33301 -48 13v-63h-20zM40 25c12 -8.66699 26 -13 42 -13s27 5.5 33 16.5s9 24.833 9 41.5s-3 30.5 -9 41.5
s-17 16.5 -33 16.5s-30 -4.33301 -42 -13v-90zM115 8z" />
    <glyph glyph-name="q" unicode="q" 
d="M140 -53v193h-20v-10c-13.333 8.66699 -29.333 13 -48 13s-33 -6.33301 -43 -19s-15 -30.667 -15 -54s5 -41.333 15 -54s24.333 -19 43 -19s34.667 4.33301 48 13v-63h20zM120 25c-12 -8.66699 -26 -13 -42 -13s-27 5.5 -33 16.5s-9 24.833 -9 41.5s3 30.5 9 41.5
s17 16.5 33 16.5s30 -4.33301 42 -13v-90zM135 -53z" />
    <glyph glyph-name="r" unicode="r" horiz-adv-x="100" 
d="M20 0v140h20v-30c13.333 22 33.333 33 60 33v-20c-26.667 0 -46.667 -11 -60 -33v-90h-20zM35 0z" />
    <glyph glyph-name="s" unicode="s" horiz-adv-x="140" 
d="M15 8v16.9971c16.667 -10 33.334 -15 50.001 -15s27.167 2.5 31.5 7.5s6.5 11.667 6.5 20s-3 14.5 -9 18.5s-16.833 6.83301 -32.5 8.5s-27.334 5.83398 -35.001 12.501s-11.5 15.834 -11.5 27.501s4.5 21.334 13.5 29.001s24.5 11.5 46.5 11.5
c18.667 0 33.667 -4.33301 45 -13v-17c-13.333 10 -28.333 15 -45 15s-27.167 -2.5 -31.5 -7.5s-6.5 -11.667 -6.5 -20s3 -13.833 9 -16.5s16.833 -4.83398 32.5 -6.50098s27.334 -5.66699 35.001 -12s11.5 -16.166 11.5 -29.499s-4.5 -23.833 -13.5 -31.5
s-24.5 -11.5 -46.5 -11.5c-18.667 0 -35.334 4.33301 -50.001 13zM95 0.99707z" />
    <glyph glyph-name="t" unicode="t" horiz-adv-x="100" 
d="M0 122l-0.000976562 18h25v35h20v-35h45v-18h-45v-72c0 -24.667 8.33301 -37 25 -37c8 0 16.333 2.33301 25 7v-20c-8.66699 -2 -17 -3 -25 -3c-13.333 0 -24.166 3.83301 -32.499 11.5s-12.5 21.5 -12.5 41.5v72h-25zM89.999 0z" />
    <glyph glyph-name="u" unicode="u" horiz-adv-x="155" 
d="M135 140l0.000976562 -140h-20v23c-13.333 -17.333 -28.333 -26 -45 -26s-29.167 3.83301 -37.5 11.5s-12.5 21.5 -12.5 41.5v90h20v-85c0 -13.333 2.5 -23.5 7.5 -30.5s14.167 -10.5 27.5 -10.5s26.666 8.66699 39.999 26v100h20zM130.001 0z" />
    <glyph glyph-name="v" unicode="v" horiz-adv-x="140" 
d="M0 140h20l50 -117l50 117h20l-60 -140h-20zM75 0z" />
    <glyph glyph-name="w" unicode="w" horiz-adv-x="200" 
d="M5 140h19l30 -120l38 120h16l38 -120l30 120h19l-35 -140h-25l-35 110l-35 -110h-25zM155 0z" />
    <glyph glyph-name="x" unicode="x" horiz-adv-x="140" 
d="M10 0l48 70l-48 70h24l36 -53l36 53h24l-48 -70l48 -70h-24l-36 53l-36 -53h-24zM123 0z" />
    <glyph glyph-name="y" unicode="y" horiz-adv-x="130" 
d="M0 140h21l45 -104l43 104h21l-80 -190h-21l27 62zM45 -50z" />
    <glyph glyph-name="z" unicode="z" horiz-adv-x="145" 
d="M10 0v28l106 94h-106v18h125v-28l-106 -94h106v-18h-125zM130 0z" />
    <glyph glyph-name="braceleft" unicode="{" horiz-adv-x="130" 
d="M60 25c0 24.667 -15 36.998 -45 36.998v16c30 0 45 12.333 45 37c0 50 13.333 75 40 75h25v-20h-15c-20 0 -30 -20 -30 -60c0 -23.333 -11.667 -36.666 -35 -39.999c23.333 -3.33301 35 -16.666 35 -39.999c0 -40 10 -60 30 -60h15v-20h-25c-26.667 0 -40 25 -40 75z" />
    <glyph glyph-name="bar" unicode="|" horiz-adv-x="80" 
d="M30 -50v240h20v-240h-20z" />
    <glyph glyph-name="braceright" unicode="}" horiz-adv-x="130" 
d="M70 25c0 24.667 15 36.998 45 36.998v16c-30 0 -45 12.333 -45 37c0 50 -13.333 75 -40 75h-25v-20h15c20 0 30 -20 30 -60c0 -23.333 11.667 -36.666 35 -39.999c-23.333 -3.33301 -35 -16.666 -35 -39.999c0 -40 -10 -60 -30 -60h-15v-20h25c26.667 0 40 25 40 75z" />
    <glyph glyph-name="asciitilde" unicode="~" horiz-adv-x="220" 
d="M20 65c20 21.333 37.167 32 51.5 32s28 -5.66699 41 -17s25 -17 36 -17s24.833 7.33301 41.5 22l10 -10c-20 -21.333 -37.167 -32 -51.5 -32s-28 5.66699 -41 17s-25 17 -36 17s-24.833 -7.33301 -41.5 -22z" />
    <glyph glyph-name="ogonekcomb" horiz-adv-x="0" 
d="M-65 -30c0 14.667 12.666 28.667 37.999 42l7 -12c-16.667 -10 -25 -19 -25 -27c0 -5.33301 2.16699 -8 6.5 -8s10.5 1.33301 18.5 4v-17c-6.66699 -3.33301 -14.167 -5 -22.5 -5s-14.166 1.66699 -17.499 5s-5 9.33301 -5 18zM-25.001 0z" />
    <glyph glyph-name="ogonekcomb" unicode="&#x328;" horiz-adv-x="0" 
d="M-65 -30c0 14.667 12.666 28.667 37.999 42l7 -12c-16.667 -10 -25 -19 -25 -27c0 -5.33301 2.16699 -8 6.5 -8s10.5 1.33301 18.5 4v-17c-6.66699 -3.33301 -14.167 -5 -22.5 -5s-14.166 1.66699 -17.499 5s-5 9.33301 -5 18zM-25.001 0z" />
    <glyph glyph-name="exclamdown" unicode="&#xa1;" horiz-adv-x="90" 
d="M55 100l3 -140h-26l3 140h20zM35 115v25h20v-25h-20z" />
    <glyph glyph-name="cent" unicode="&#xa2;" horiz-adv-x="145" 
d="M25 -45l100 245l17 -5l-100 -245zM15 70c0 23.333 6.66699 41.6699 20 55.0029s30 20 50 20s36.667 -5 50 -15v-20c-16.667 13.333 -32.5 20 -47.5 20s-27.333 -5.83301 -37 -17.5s-14.5 -25.834 -14.5 -42.501s4.83301 -30.834 14.5 -42.501s22 -17.5 37 -17.5
s30.833 6.66699 47.5 20v-20c-13.333 -10 -30 -15 -50 -15s-36.667 6.66699 -50 20s-20 31.666 -20 54.999z" />
    <glyph glyph-name="sterling" unicode="&#xa3;" horiz-adv-x="165" 
d="M20 0l-0.000976562 17c22 25.333 32 46.333 30 63h-30v20h26c-14 63.333 4 95 54 95c30 0 48.333 -11.667 55 -35l-15 -5c-6.66699 15.333 -20 23 -40 23c-33.333 0 -44.666 -26 -33.999 -78h54v-20h-50c2 -16.667 -8 -36.667 -30 -60h115v-20h-135z" />
    <glyph glyph-name="yen" unicode="&#xa5;" horiz-adv-x="170" 
d="M95 77h45v-17h-45v-60h-20v60h-45v17h45v13l-75 100h24l61 -82l61 82h24l-75 -100v-13z" />
    <glyph glyph-name="brokenbar" unicode="&#xa6;" horiz-adv-x="80" 
d="M30 -30v100h20v-100h-20zM30 100v100h20v-100h-20z" />
    <glyph glyph-name="section" unicode="&#xa7;" 
d="M50 95c-8.66699 -10 -13 -18 -13 -24s3.5 -11.833 10.5 -17.5s17.5 -9.83398 31.5 -12.501s24.333 -6.33398 31 -11.001c8.66699 10 13 18 13 24s-3.5 11.833 -10.5 17.5s-17.5 9.83398 -31.5 12.501s-24.333 6.33398 -31 11.001zM42 103c-8 9.33301 -12 19.5 -12 30.5
s4.16699 20.667 12.5 29s20.833 12.5 37.5 12.5c23.333 0 39 -13.333 47 -40l-17 -5c-6.66699 18.667 -16.667 28 -30 28c-10 0 -17.5 -3 -22.5 -9s-7.5 -11.167 -7.5 -15.5s3.83301 -10.166 11.5 -17.499s19.667 -12.333 36 -15s27.5 -8 33.5 -16s9 -18.333 9 -31
s-7.33301 -23.334 -22 -32.001c8 -9.33301 12 -19.5 12 -30.5s-4.16699 -20.667 -12.5 -29s-20.833 -12.5 -37.5 -12.5c-23.333 0 -39 13.333 -47 40l17 5c6.66699 -18.667 16.667 -28 30 -28c10 0 17.5 3 22.5 9s7.5 11.167 7.5 15.5s-3.83301 10.166 -11.5 17.499
s-19.667 12.333 -36 15s-27.5 8 -33.5 16s-9 18.333 -9 31s7.33301 23.334 22 32.001z" />
    <glyph glyph-name="dieresis" unicode="&#xa8;" horiz-adv-x="70" 
d="M5 165v20h20v-20h-20zM65 165v20h20v-20h-20zM45 190z" />
    <glyph glyph-name="copyright" unicode="&#xa9;" horiz-adv-x="270" 
d="M30 85c0 31.333 9.66699 56.666 29 75.999s44.666 29 75.999 29s56.666 -9.66699 75.999 -29s29 -44.666 29 -75.999s-9.66699 -56.666 -29 -75.999s-44.666 -29 -75.999 -29s-56.666 9.66699 -75.999 29s-29 44.666 -29 75.999zM45 85
c0 -26.667 8.33301 -48.334 25 -65.001s38.334 -25 65.001 -25s48.334 8.33301 65.001 25s25 38.334 25 65.001s-8.33301 48.334 -25 65.001s-38.334 25 -65.001 25s-48.334 -8.33301 -65.001 -25s-25 -38.334 -25 -65.001zM70 85.5c0 21.667 6.33301 37.832 19 48.499
s30.334 16 53.001 16c15.333 0 29.666 -5 42.999 -15v-15c-16.667 10 -31 15 -43 15c-18 0 -31.167 -3.83301 -39.5 -11.5s-12.5 -20.167 -12.5 -37.5s4.16699 -30.166 12.5 -38.499s21.5 -12.5 39.5 -12.5c12 0 26.333 5 43 15v-15c-13.333 -10 -27.666 -15 -42.999 -15
c-22.667 0 -40.334 5.5 -53.001 16.5s-19 27.333 -19 49z" />
    <glyph glyph-name="ordfeminine" unicode="&#xaa;" horiz-adv-x="110" 
d="M15 126c0 12.667 6.5 21.167 19.5 25.5s28.167 6.5 45.5 6.5c0 7.33301 -1.5 12.833 -4.5 16.5s-10.167 5.5 -21.5 5.5c-12 0 -21.333 -2 -28 -6l-4 13c10.667 3.33301 21.334 5 32.001 5c15.333 0 26.166 -2.33301 32.499 -7s9.5 -13.667 9.5 -27v-58h-16v6
c-8 -5.33301 -17.833 -8 -29.5 -8s-20.5 2.33301 -26.5 7s-9 11.667 -9 21zM36.5 115.5c2.33301 -2.33301 8.16602 -3.50195 17.499 -3.50195c6.66699 0 15.334 2.33301 26.001 7v26c-17.333 0 -29.5 -1.16699 -36.5 -3.5s-10.5 -7.16602 -10.5 -14.499
c0 -5.33301 1.16699 -9.16602 3.5 -11.499z" />
    <glyph glyph-name="guillemotleft" unicode="&#xab;" horiz-adv-x="180" 
d="M90 65v10l60 45v-20l-40 -30l40 -30v-20zM30 65v10l60 45v-20l-40 -30l40 -30v-20z" />
    <glyph glyph-name="logicalnot" unicode="&#xac;" horiz-adv-x="190" 
d="M20 70v20h150v-80h-20v60h-130z" />
    <glyph glyph-name="registered" unicode="&#xae;" horiz-adv-x="270" 
d="M30 85c0 31.333 9.66699 56.666 29 75.999s44.666 29 75.999 29s56.666 -9.66699 75.999 -29s29 -44.666 29 -75.999s-9.66699 -56.666 -29 -75.999s-44.666 -29 -75.999 -29s-56.666 9.66699 -75.999 29s-29 44.666 -29 75.999zM45 85
c0 -26.667 8.33301 -48.334 25 -65.001s38.334 -25 65.001 -25s48.334 8.33301 65.001 25s25 38.334 25 65.001s-8.33301 48.334 -25 65.001s-38.334 25 -65.001 25s-48.334 -8.33301 -65.001 -25s-25 -38.334 -25 -65.001zM85 25v125h33c44.667 0 67 -12.333 67 -37
c0 -8.66699 -3.5 -16.667 -10.5 -24s-16.167 -12 -27.5 -14l51 -50h-22l-48 48h-26v-48h-17zM122 133h-20v-43h20c30 0 45 7.16699 45 21.5s-15 21.5 -45 21.5z" />
    <glyph glyph-name="macron" unicode="&#xaf;" horiz-adv-x="70" 
d="M0 170v16h90v-16h-90zM45 195z" />
    <glyph glyph-name="degree" unicode="&#xb0;" horiz-adv-x="130" 
d="M25 155c0 11.333 3.83301 20.833 11.5 28.5s17.167 11.5 28.5 11.5s20.833 -3.83301 28.5 -11.5s11.5 -17.167 11.5 -28.5s-3.83301 -20.833 -11.5 -28.5s-17.167 -11.5 -28.5 -11.5s-20.833 3.83301 -28.5 11.5s-11.5 17.167 -11.5 28.5zM42 155
c0 -6.66699 2.16699 -12.667 6.5 -18s9.83301 -8 16.5 -8s12.167 2.66699 16.5 8s6.5 11.333 6.5 18s-2.16699 12.167 -6.5 16.5s-9.83301 6.5 -16.5 6.5s-12.167 -2.16699 -16.5 -6.5s-6.5 -9.83301 -6.5 -16.5z" />
    <glyph glyph-name="plusminus" unicode="&#xb1;" horiz-adv-x="180" 
d="M20 80v20h60v60h20v-60h60v-20h-60v-60h60v-20h-140v20h60v60h-60z" />
    <glyph glyph-name="two.numerator" unicode="&#xb2;" horiz-adv-x="135" 
d="M20 80v18.3994c52.2656 26.1338 78.3984 45.334 78.3984 57.6006c0 8 -2.40039 14.666 -7.2002 19.999s-13.8662 8 -27.1992 8s-25.333 -5.33301 -35.999 -15.999l-8 10.3994c13.333 11.7334 27.999 17.5996 43.999 17.5996s28.666 -3.33301 37.999 -10
s14 -16.667 14 -30c0 -17.0664 -26.3994 -37.5996 -79.1982 -61.5996h83.1982v-14.3994h-99.998z" />
    <glyph glyph-name="acute" unicode="&#xb4;" horiz-adv-x="70" 
d="M75 210h-25l-25 -45h15zM55 215z" />
    <glyph glyph-name="mu" unicode="&#xb5;" horiz-adv-x="155" 
d="M20 -53l-0.000976562 193h20v-105c10 -14 22 -21 36 -21s27 9.33301 39 28v98h20v-140h-20v25c-13.333 -18.667 -27.166 -28 -41.499 -28s-25.5 6 -33.5 18v-68h-20zM129.999 0z" />
    <glyph glyph-name="paragraph" unicode="&#xb6;" horiz-adv-x="200" 
d="M25 135c0 36.667 23.333 55 70 55h70v-220h-20v200h-30v-200h-20v110c-46.667 0 -70 18.333 -70 55z" />
    <glyph glyph-name="periodcentered" unicode="&#xb7;" horiz-adv-x="65" 
d="M20 55v30h25v-30h-25z" />
    <glyph glyph-name="periodcentered" unicode="&#x2219;" horiz-adv-x="65" 
d="M20 55v30h25v-30h-25z" />
    <glyph glyph-name="cedilla" unicode="&#xb8;" horiz-adv-x="70" 
d="M20 -50v17c10 -3.33301 17 -5 21 -5s7.16699 0.666992 9.5 2s3.5 3.5 3.5 6.5s-1.16699 5.66699 -3.5 8s-7.5 3.5 -15.5 3.5l3 18h17l-1 -10c5.33301 0 9.33301 -1.66699 12 -5s4 -8.83301 4 -16.5s-2.5 -13.167 -7.5 -16.5s-11.667 -5 -20 -5s-15.833 1 -22.5 3zM45 0z
" />
    <glyph glyph-name="one.numerator" unicode="&#xb9;" horiz-adv-x="102" 
d="M16 80l0.000976562 12h27.999v78.3984l-27.999 -4v12c14.3994 2.66699 25.0654 8.5332 31.998 17.5996h12v-103.998h28v-12h-71.999z" />
    <glyph glyph-name="ordmasculine" unicode="&#xba;" horiz-adv-x="125" 
d="M15 145.5c0 15 4.16699 26.833 12.5 35.5s20 13 35 13s26.667 -4.33301 35 -13s12.5 -20.5 12.5 -35.5s-4.16699 -26.833 -12.5 -35.5s-20 -13 -35 -13s-26.667 4.33301 -35 13s-12.5 20.5 -12.5 35.5zM34 145.5c0 -10.333 2.16699 -18.666 6.5 -24.999
s11.666 -9.5 21.999 -9.5s17.666 3.16699 21.999 9.5s6.5 14.666 6.5 24.999s-2.16699 18.666 -6.5 24.999s-11.666 9.5 -21.999 9.5s-17.666 -3.16699 -21.999 -9.5s-6.5 -14.666 -6.5 -24.999z" />
    <glyph glyph-name="guillemotright" unicode="&#xbb;" horiz-adv-x="180" 
d="M150 65v10l-60 45v-20l40 -30l-40 -30v-20zM90 65v10l-60 45v-20l40 -30l-40 -30v-20z" />
    <glyph glyph-name="onequarter" unicode="&#xbc;" horiz-adv-x="315" 
d="M16 80l0.000976562 12h27.999v78.3984l-27.999 -4v12c14.3994 2.66699 25.0654 8.5332 31.998 17.5996h12v-103.998h28v-12h-71.999zM75.001 0l110 200h20l-110 -200h-20zM176.25 0v22.0996l83.2979 96.8965h14.4492v-103.696h25.5v-15.2998h-25.5v-42.499h-16.999
v42.499h-80.748zM256.998 15.2998v78.1973l-67.1484 -78.1973h67.1484z" />
    <glyph glyph-name="onehalf" unicode="&#xbd;" horiz-adv-x="287" 
d="M16 80l0.000976562 12h27.999v78.3984l-27.999 -4v12c14.3994 2.66699 25.0654 8.5332 31.998 17.5996h12v-103.998h28v-12h-71.999zM72.001 0l110 200h20l-110 -200h-20zM172.001 0v18.3994c52.2656 26.1338 78.3984 45.334 78.3984 57.6006
c0 8 -2.40039 14.666 -7.2002 19.999s-13.8662 8 -27.1992 8s-25.333 -5.33301 -35.999 -15.999l-8 10.3994c13.333 11.7334 27.999 17.5996 43.999 17.5996s28.666 -3.33301 37.999 -10s14 -16.667 14 -30c0 -17.0664 -26.3994 -37.5996 -79.1982 -61.5996h83.1982
v-14.3994h-99.998z" />
    <glyph glyph-name="threequarters" unicode="&#xbe;" horiz-adv-x="344" 
d="M38.249 125.049l-0.000976562 12.749c22.666 0 37.9658 3.11621 45.8984 9.34961s11.8994 12.8916 11.8994 19.9746s-2.5498 12.75 -7.64941 17s-14.0244 6.375 -26.7744 6.375c-12.749 0 -26.207 -5.66699 -40.374 -17v12.75c11.333 11.333 24.791 16.999 40.374 16.999
s28.333 -2.83301 38.249 -8.49902c9.91699 -5.66699 14.875 -14.167 14.875 -25.5s-3.54199 -19.4072 -10.625 -24.2236s-17.708 -8.9248 -31.874 -12.3252c11.333 0 21.958 -3.8252 31.875 -11.4746c9.91602 -7.64941 14.874 -18.6992 14.874 -33.1484
c0 -14.4502 -4.95801 -26.4912 -14.874 -36.124c-9.91699 -9.63379 -24.083 -14.4502 -42.499 -14.4502s-34.707 5.66699 -48.873 17v12.749c16.999 -11.333 32.582 -16.999 46.748 -16.999c14.167 0 24.5088 4.25 31.0254 12.749c6.5166 8.5 9.77441 17 9.77441 25.5
c0 8.49902 -3.25781 16.7158 -9.77441 24.6494c-6.5166 7.93262 -23.9414 11.8994 -52.2744 11.8994zM103.999 -0.000976562l110 200h20l-110 -200h-20zM205.248 -0.000976562v22.0996l83.2979 96.8965h14.4492v-103.696h25.5v-15.2998h-25.5v-42.499h-16.999v42.499
h-80.748zM285.996 15.2988v78.1973l-67.1484 -78.1973h67.1484z" />
    <glyph glyph-name="questiondown" unicode="&#xbf;" horiz-adv-x="155" 
d="M95 100l-0.000976562 -29.999c-23.333 -10 -38.333 -19.167 -45 -27.5s-9.66699 -18.833 -9 -31.5s4 -21.834 10 -27.501s17.333 -8.5 34 -8.5s33.334 6.66699 50.001 20v-20c-16.667 -13.333 -35 -20 -55 -20s-35 5 -45 15s-15 24.167 -15 42.5s5 32.5 15 42.5
s23.333 18.333 40 25v20h20zM74.999 115.001v25h20v-25h-20z" />
    <glyph glyph-name="Agrave" unicode="&#xc0;" horiz-adv-x="180" 
d="M5 0l70 190h30l70 -190h-21l-22 61h-84l-22 -61h-21zM54 79h71l-35 96zM60 250h25l25 -45h-15zM80 255z" />
    <glyph glyph-name="Aacute" unicode="&#xc1;" horiz-adv-x="180" 
d="M5 0l70 190h30l70 -190h-21l-22 61h-84l-22 -61h-21zM54 79h71l-35 96zM120 250h-25l-25 -45h15zM100 255z" />
    <glyph glyph-name="Acircumflex" unicode="&#xc2;" horiz-adv-x="180" 
d="M5 0l70 190h30l70 -190h-21l-22 61h-84l-22 -61h-21zM54 79h71l-35 96zM45 205l30 45h30l30 -45h-15l-30 29l-30 -29h-15zM90 255z" />
    <glyph glyph-name="Atilde" unicode="&#xc3;" horiz-adv-x="180" 
d="M5 0l70 190h30l70 -190h-21l-22 61h-84l-22 -61h-21zM54 79h71l-35 96zM40 226c9.33301 12 19.333 18 30 18s18.5 -3 23.5 -9s11.167 -9 18.5 -9s14 4 20 12l8 -10c-9.33301 -12 -19.333 -18 -30 -18s-18.5 3 -23.5 9s-11.167 9 -18.5 9s-14 -4 -20 -12zM90 250z" />
    <glyph glyph-name="Adieresis" unicode="&#xc4;" horiz-adv-x="180" 
d="M5 0l70 190h30l70 -190h-21l-22 61h-84l-22 -61h-21zM54 79h71l-35 96zM50 205v20h20v-20h-20zM110 205v20h20v-20h-20zM90 230z" />
    <glyph glyph-name="Aring" unicode="&#xc5;" horiz-adv-x="180" 
d="M5 0l70 190h30l70 -190h-21l-22 61h-84l-22 -61h-21zM54 79h71l-35 96zM60 225c0 8.66699 2.83301 15.834 8.5 21.501s12.834 8.5 21.501 8.5s15.834 -2.83301 21.501 -8.5s8.5 -12.834 8.5 -21.501s-2.83301 -15.834 -8.5 -21.501s-12.834 -8.5 -21.501 -8.5
s-15.834 2.83301 -21.501 8.5s-8.5 12.834 -8.5 21.501zM90 210c4.66699 0 8.33398 1.33301 11.001 4s4 6.33398 4 11.001s-1.33301 8.33398 -4 11.001s-6.33398 4 -11.001 4s-8.33398 -1.33301 -11.001 -4s-4 -6.33398 -4 -11.001s1.33301 -8.33398 4 -11.001
s6.33398 -4 11.001 -4zM90 255z" />
    <glyph glyph-name="AE" unicode="&#xc6;" horiz-adv-x="255" 
d="M0 0l105 190h140v-18h-110v-64h90v-18h-90v-72h110v-18h-130v70h-54l-39 -70h-22zM70 88h45v80zM240 0z" />
    <glyph glyph-name="Ccedilla" unicode="&#xc7;" horiz-adv-x="185" 
d="M15 95c0 33.333 8.33301 58.333 25 75s40 25 70 25c23.333 0 43.333 -8.33301 60 -25v-20c-23.333 20 -43.333 30 -60 30c-23.333 0 -41.333 -7.5 -54 -22.5s-19 -35.833 -19 -62.5s6.33301 -47.5 19 -62.5s30.667 -22.5 54 -22.5c16.667 0 36.667 10 60 30v-20
c-16.667 -16.667 -36.667 -25 -60 -25c-30 0 -53.333 8.33301 -70 25s-25 41.667 -25 75zM80 -50v17c10 -3.33301 17 -5 21 -5s7.16699 0.666992 9.5 2s3.5 3.5 3.5 6.5s-1.16699 5.66699 -3.5 8s-7.5 3.5 -15.5 3.5l3 18h17l-1 -10c5.33301 0 9.33301 -1.66699 12 -5
s4 -8.83301 4 -16.5s-2.5 -13.167 -7.5 -16.5s-11.667 -5 -20 -5s-15.833 1 -22.5 3zM105 0z" />
    <glyph glyph-name="Egrave" unicode="&#xc8;" 
d="M20 0v190h130v-18h-110v-64h90v-18h-90v-72h110v-18h-130zM55 250h25l25 -45h-15zM75 255z" />
    <glyph glyph-name="Eacute" unicode="&#xc9;" 
d="M20 0v190h130v-18h-110v-64h90v-18h-90v-72h110v-18h-130zM115 250h-25l-25 -45h15zM95 255z" />
    <glyph glyph-name="Ecircumflex" unicode="&#xca;" 
d="M20 0v190h130v-18h-110v-64h90v-18h-90v-72h110v-18h-130zM40 205l30 45h30l30 -45h-15l-30 29l-30 -29h-15zM85 255z" />
    <glyph glyph-name="Edieresis" unicode="&#xcb;" 
d="M20 0v190h130v-18h-110v-64h90v-18h-90v-72h110v-18h-130zM45 205v20h20v-20h-20zM105 205v20h20v-20h-20zM85 230z" />
    <glyph glyph-name="Igrave" unicode="&#xcc;" horiz-adv-x="110" 
d="M20 0v15h25v160h-25v15h70v-15h-25v-160h25v-15h-70zM25 250h25l25 -45h-15zM45 255z" />
    <glyph glyph-name="Iacute" unicode="&#xcd;" horiz-adv-x="110" 
d="M20 0v15h25v160h-25v15h70v-15h-25v-160h25v-15h-70zM85 250h-25l-25 -45h15zM65 255z" />
    <glyph glyph-name="Icircumflex" unicode="&#xce;" horiz-adv-x="110" 
d="M20 0v15h25v160h-25v15h70v-15h-25v-160h25v-15h-70zM10 205l30 45h30l30 -45h-15l-30 29l-30 -29h-15zM55 255z" />
    <glyph glyph-name="Idieresis" unicode="&#xcf;" horiz-adv-x="110" 
d="M20 0v15h25v160h-25v15h70v-15h-25v-160h25v-15h-70zM15 205v20h20v-20h-20zM75 205v20h20v-20h-20zM55 230z" />
    <glyph glyph-name="Eth" unicode="&#xd0;" horiz-adv-x="195" 
d="M10 98v17h20v75h40c73.333 0 110 -31.667 110 -95s-35 -95 -105 -95h-45v98h-20zM50 18h30c52 0 78 25.667 78 77s-27.667 77 -83 77h-25v-57h40v-17h-40v-80zM120 8z" />
    <glyph glyph-name="Ntilde" unicode="&#xd1;" horiz-adv-x="190" 
d="M20 0v190h28l102 -165v165h20v-190h-28l-102 165v-165h-20zM45 226c9.33301 12 19.333 18 30 18s18.5 -3 23.5 -9s11.167 -9 18.5 -9s14 4 20 12l8 -10c-9.33301 -12 -19.333 -18 -30 -18s-18.5 3 -23.5 9s-11.167 9 -18.5 9s-14 -4 -20 -12zM95 250z" />
    <glyph glyph-name="Ograve" unicode="&#xd2;" horiz-adv-x="205" 
d="M15 95c0 30 7.83301 54.167 23.5 72.5s37 27.5 64 27.5s48.333 -9.16699 64 -27.5s23.5 -42.5 23.5 -72.5s-7.83301 -54.167 -23.5 -72.5s-37 -27.5 -64 -27.5s-48.333 9.16699 -64 27.5s-23.5 42.5 -23.5 72.5zM37 95c0 -23.333 5.83301 -43.333 17.5 -60
s27.667 -25 48 -25s36.333 8.33301 48 25s17.5 36.667 17.5 60s-5.83301 43.333 -17.5 60s-27.667 25 -48 25s-36.333 -8.33301 -48 -25s-17.5 -36.667 -17.5 -60zM73 250h25l25 -45h-15zM93 255z" />
    <glyph glyph-name="Oacute" unicode="&#xd3;" horiz-adv-x="205" 
d="M15 95c0 30 7.83301 54.167 23.5 72.5s37 27.5 64 27.5s48.333 -9.16699 64 -27.5s23.5 -42.5 23.5 -72.5s-7.83301 -54.167 -23.5 -72.5s-37 -27.5 -64 -27.5s-48.333 9.16699 -64 27.5s-23.5 42.5 -23.5 72.5zM37 95c0 -23.333 5.83301 -43.333 17.5 -60
s27.667 -25 48 -25s36.333 8.33301 48 25s17.5 36.667 17.5 60s-5.83301 43.333 -17.5 60s-27.667 25 -48 25s-36.333 -8.33301 -48 -25s-17.5 -36.667 -17.5 -60zM133 250h-25l-25 -45h15zM113 255z" />
    <glyph glyph-name="Ocircumflex" unicode="&#xd4;" horiz-adv-x="205" 
d="M15 95c0 30 7.83301 54.167 23.5 72.5s37 27.5 64 27.5s48.333 -9.16699 64 -27.5s23.5 -42.5 23.5 -72.5s-7.83301 -54.167 -23.5 -72.5s-37 -27.5 -64 -27.5s-48.333 9.16699 -64 27.5s-23.5 42.5 -23.5 72.5zM37 95c0 -23.333 5.83301 -43.333 17.5 -60
s27.667 -25 48 -25s36.333 8.33301 48 25s17.5 36.667 17.5 60s-5.83301 43.333 -17.5 60s-27.667 25 -48 25s-36.333 -8.33301 -48 -25s-17.5 -36.667 -17.5 -60zM58 205l30 45h30l30 -45h-15l-30 29l-30 -29h-15zM103 255z" />
    <glyph glyph-name="Otilde" unicode="&#xd5;" horiz-adv-x="205" 
d="M15 95c0 30 7.83301 54.167 23.5 72.5s37 27.5 64 27.5s48.333 -9.16699 64 -27.5s23.5 -42.5 23.5 -72.5s-7.83301 -54.167 -23.5 -72.5s-37 -27.5 -64 -27.5s-48.333 9.16699 -64 27.5s-23.5 42.5 -23.5 72.5zM37 95c0 -23.333 5.83301 -43.333 17.5 -60
s27.667 -25 48 -25s36.333 8.33301 48 25s17.5 36.667 17.5 60s-5.83301 43.333 -17.5 60s-27.667 25 -48 25s-36.333 -8.33301 -48 -25s-17.5 -36.667 -17.5 -60zM53 226c9.33301 12 19.333 18 30 18s18.5 -3 23.5 -9s11.167 -9 18.5 -9s14 4 20 12l8 -10
c-9.33301 -12 -19.333 -18 -30 -18s-18.5 3 -23.5 9s-11.167 9 -18.5 9s-14 -4 -20 -12zM103 250z" />
    <glyph glyph-name="Odieresis" unicode="&#xd6;" horiz-adv-x="205" 
d="M15 95c0 30 7.83301 54.167 23.5 72.5s37 27.5 64 27.5s48.333 -9.16699 64 -27.5s23.5 -42.5 23.5 -72.5s-7.83301 -54.167 -23.5 -72.5s-37 -27.5 -64 -27.5s-48.333 9.16699 -64 27.5s-23.5 42.5 -23.5 72.5zM37 95c0 -23.333 5.83301 -43.333 17.5 -60
s27.667 -25 48 -25s36.333 8.33301 48 25s17.5 36.667 17.5 60s-5.83301 43.333 -17.5 60s-27.667 25 -48 25s-36.333 -8.33301 -48 -25s-17.5 -36.667 -17.5 -60zM63 205v20h20v-20h-20zM123 205v20h20v-20h-20zM103 230z" />
    <glyph glyph-name="multiply" unicode="&#xd7;" horiz-adv-x="175" 
d="M45 14l-15 14l43 42l-43 43l15 14l42 -42l43 42l15 -14l-43 -43l43 -42l-15 -14l-43 42z" />
    <glyph glyph-name="Oslash" unicode="&#xd8;" horiz-adv-x="205" 
d="M15 95.5c0 29.667 7.83301 53.666 23.5 71.999s35.5 27.5 59.5 27.5s43 -5.66699 57 -17l13 17h22l-22 -29c14.667 -18 22 -41.833 22 -71.5s-7.83301 -53.667 -23.5 -72s-35.5 -27.5 -59.5 -27.5s-43.333 5.33301 -58 16l-12 -16h-22l22 28
c-14.667 18.667 -22 42.834 -22 72.501zM50 40.999l93.999 122c-11.333 11.333 -26.166 17 -44.499 17s-33.333 -8.33301 -45 -25s-17.5 -36 -17.5 -58s4.33301 -40.667 13 -56zM60.999 25.999c10.667 -10.667 25.332 -16.001 43.999 -16.001s33.834 8.33301 45.501 25
s17.5 35.834 17.5 57.501s-4.66699 40.167 -14 55.5zM139.997 5.99805z" />
    <glyph glyph-name="Ugrave" unicode="&#xd9;" horiz-adv-x="190" 
d="M20 70v120h20v-120c0 -23.333 5.33301 -39.166 16 -47.499s23.667 -12.5 39 -12.5s28.333 4.16699 39 12.5s16 24.166 16 47.499v120h20v-120c0 -26.667 -7 -45.834 -21 -57.501s-32 -17.5 -54 -17.5s-40 5.83301 -54 17.5s-21 30.834 -21 57.501zM65 250h25l25 -45h-15z
M85 255z" />
    <glyph glyph-name="Uacute" unicode="&#xda;" horiz-adv-x="190" 
d="M20 70v120h20v-120c0 -23.333 5.33301 -39.166 16 -47.499s23.667 -12.5 39 -12.5s28.333 4.16699 39 12.5s16 24.166 16 47.499v120h20v-120c0 -26.667 -7 -45.834 -21 -57.501s-32 -17.5 -54 -17.5s-40 5.83301 -54 17.5s-21 30.834 -21 57.501zM125 250h-25l-25 -45
h15zM105 255z" />
    <glyph glyph-name="Ucircumflex" unicode="&#xdb;" horiz-adv-x="190" 
d="M20 70v120h20v-120c0 -23.333 5.33301 -39.166 16 -47.499s23.667 -12.5 39 -12.5s28.333 4.16699 39 12.5s16 24.166 16 47.499v120h20v-120c0 -26.667 -7 -45.834 -21 -57.501s-32 -17.5 -54 -17.5s-40 5.83301 -54 17.5s-21 30.834 -21 57.501zM50 205l30 45h30
l30 -45h-15l-30 29l-30 -29h-15zM95 255z" />
    <glyph glyph-name="Udieresis" unicode="&#xdc;" horiz-adv-x="190" 
d="M20 70v120h20v-120c0 -23.333 5.33301 -39.166 16 -47.499s23.667 -12.5 39 -12.5s28.333 4.16699 39 12.5s16 24.166 16 47.499v120h20v-120c0 -26.667 -7 -45.834 -21 -57.501s-32 -17.5 -54 -17.5s-40 5.83301 -54 17.5s-21 30.834 -21 57.501zM55 205v20h20v-20h-20z
M115 205v20h20v-20h-20zM95 230z" />
    <glyph glyph-name="Yacute" unicode="&#xdd;" horiz-adv-x="170" 
d="M0 190h24l61 -82l61 82h24l-75 -100v-90h-20v90zM115 250h-25l-25 -45h15zM95 255z" />
    <glyph glyph-name="Thorn" unicode="&#xde;" horiz-adv-x="165" 
d="M20 0v190h20v-35h25c60 0 90 -20 90 -60s-30 -60 -90 -60h-25v-35h-20zM40 53h30c41.333 0 62 14 62 42s-20.667 42 -62 42h-30v-84zM30 0z" />
    <glyph glyph-name="germandbls" unicode="&#xdf;" 
d="M20 0v139.998c0 42 20 63 60 63c33.333 0 50 -14.333 50 -43c0 -21.333 -13.333 -33.666 -40 -36.999c36.667 -3.33301 55 -24.333 55 -63c0 -20 -5 -35.5 -15 -46.5s-22.5 -16.5 -37.5 -16.5s-29.167 4.33301 -42.5 13v15c12 -7.33301 24.167 -11 36.5 -11
s21.5 4.33301 27.5 13s9 18.834 9 30.501s-3 23.667 -9 36s-24 18.5 -54 18.5v18c32 0 48 10 48 30c0 18.667 -9.33301 28 -28 28c-26.667 0 -40 -12.667 -40 -38v-150h-20zM115 4.99805z" />
    <glyph glyph-name="agrave" unicode="&#xe0;" horiz-adv-x="150" 
d="M15 40c0 20 9.16699 33.333 27.5 40s40.833 10 67.5 10c0 13.333 -2.5 23 -7.5 29s-15.833 9 -32.5 9s-30 -2.66699 -40 -8l-5 15c14.667 5.33301 29.667 8 45 8c22 0 37.5 -3.83301 46.5 -11.5s13.5 -21.5 13.5 -41.5v-90h-20v15c-13.333 -12 -28.333 -18 -45 -18
s-29.167 3.83301 -37.5 11.5s-12.5 18.167 -12.5 31.5zM43.5 21c4.33301 -6 13.167 -9 26.5 -9c10 0 23.333 6 40 18v44c-26.667 0 -45.5 -2.33301 -56.5 -7s-16.5 -13 -16.5 -25c0 -8 2.16699 -15 6.5 -21zM45.001 210h25l25 -45h-15zM65.001 215z" />
    <glyph glyph-name="aacute" unicode="&#xe1;" horiz-adv-x="150" 
d="M15 40c0 20 9.16699 33.333 27.5 40s40.833 10 67.5 10c0 13.333 -2.5 23 -7.5 29s-15.833 9 -32.5 9s-30 -2.66699 -40 -8l-5 15c14.667 5.33301 29.667 8 45 8c22 0 37.5 -3.83301 46.5 -11.5s13.5 -21.5 13.5 -41.5v-90h-20v15c-13.333 -12 -28.333 -18 -45 -18
s-29.167 3.83301 -37.5 11.5s-12.5 18.167 -12.5 31.5zM43.5 21c4.33301 -6 13.167 -9 26.5 -9c10 0 23.333 6 40 18v44c-26.667 0 -45.5 -2.33301 -56.5 -7s-16.5 -13 -16.5 -25c0 -8 2.16699 -15 6.5 -21zM105.001 210h-25l-25 -45h15zM85.001 215z" />
    <glyph glyph-name="acircumflex" unicode="&#xe2;" horiz-adv-x="150" 
d="M15 40c0 20 9.16699 33.333 27.5 40s40.833 10 67.5 10c0 13.333 -2.5 23 -7.5 29s-15.833 9 -32.5 9s-30 -2.66699 -40 -8l-5 15c14.667 5.33301 29.667 8 45 8c22 0 37.5 -3.83301 46.5 -11.5s13.5 -21.5 13.5 -41.5v-90h-20v15c-13.333 -12 -28.333 -18 -45 -18
s-29.167 3.83301 -37.5 11.5s-12.5 18.167 -12.5 31.5zM43.5 21c4.33301 -6 13.167 -9 26.5 -9c10 0 23.333 6 40 18v44c-26.667 0 -45.5 -2.33301 -56.5 -7s-16.5 -13 -16.5 -25c0 -8 2.16699 -15 6.5 -21zM30.001 165l30 45h30l30 -45h-15l-30 29l-30 -29h-15zM75.001 215
z" />
    <glyph glyph-name="atilde" unicode="&#xe3;" horiz-adv-x="150" 
d="M15 40c0 20 9.16699 33.333 27.5 40s40.833 10 67.5 10c0 13.333 -2.5 23 -7.5 29s-15.833 9 -32.5 9s-30 -2.66699 -40 -8l-5 15c14.667 5.33301 29.667 8 45 8c22 0 37.5 -3.83301 46.5 -11.5s13.5 -21.5 13.5 -41.5v-90h-20v15c-13.333 -12 -28.333 -18 -45 -18
s-29.167 3.83301 -37.5 11.5s-12.5 18.167 -12.5 31.5zM43.5 21c4.33301 -6 13.167 -9 26.5 -9c10 0 23.333 6 40 18v44c-26.667 0 -45.5 -2.33301 -56.5 -7s-16.5 -13 -16.5 -25c0 -8 2.16699 -15 6.5 -21zM25.001 186c9.33301 12 19.333 18 30 18s18.5 -3 23.5 -9
s11.167 -9 18.5 -9s14 4 20 12l8 -10c-9.33301 -12 -19.333 -18 -30 -18s-18.5 3 -23.5 9s-11.167 9 -18.5 9s-14 -4 -20 -12zM75.001 210z" />
    <glyph glyph-name="adieresis" unicode="&#xe4;" horiz-adv-x="150" 
d="M15 40c0 20 9.16699 33.333 27.5 40s40.833 10 67.5 10c0 13.333 -2.5 23 -7.5 29s-15.833 9 -32.5 9s-30 -2.66699 -40 -8l-5 15c14.667 5.33301 29.667 8 45 8c22 0 37.5 -3.83301 46.5 -11.5s13.5 -21.5 13.5 -41.5v-90h-20v15c-13.333 -12 -28.333 -18 -45 -18
s-29.167 3.83301 -37.5 11.5s-12.5 18.167 -12.5 31.5zM43.5 21c4.33301 -6 13.167 -9 26.5 -9c10 0 23.333 6 40 18v44c-26.667 0 -45.5 -2.33301 -56.5 -7s-16.5 -13 -16.5 -25c0 -8 2.16699 -15 6.5 -21zM35.001 165v20h20v-20h-20zM95.001 165v20h20v-20h-20z
M75.001 190z" />
    <glyph glyph-name="aring" unicode="&#xe5;" horiz-adv-x="150" 
d="M15 40c0 20 9.16699 33.333 27.5 40s40.833 10 67.5 10c0 13.333 -2.5 23 -7.5 29s-15.833 9 -32.5 9s-30 -2.66699 -40 -8l-5 15c14.667 5.33301 29.667 8 45 8c22 0 37.5 -3.83301 46.5 -11.5s13.5 -21.5 13.5 -41.5v-90h-20v15c-13.333 -12 -28.333 -18 -45 -18
s-29.167 3.83301 -37.5 11.5s-12.5 18.167 -12.5 31.5zM43.5 21c4.33301 -6 13.167 -9 26.5 -9c10 0 23.333 6 40 18v44c-26.667 0 -45.5 -2.33301 -56.5 -7s-16.5 -13 -16.5 -25c0 -8 2.16699 -15 6.5 -21zM45.001 185c0 8.66699 2.83301 15.834 8.5 21.501
s12.834 8.5 21.501 8.5s15.834 -2.83301 21.501 -8.5s8.5 -12.834 8.5 -21.501s-2.83301 -15.834 -8.5 -21.501s-12.834 -8.5 -21.501 -8.5s-15.834 2.83301 -21.501 8.5s-8.5 12.834 -8.5 21.501zM75.001 170c4.66699 0 8.33398 1.33301 11.001 4s4 6.33398 4 11.001
s-1.33301 8.33398 -4 11.001s-6.33398 4 -11.001 4s-8.33398 -1.33301 -11.001 -4s-4 -6.33398 -4 -11.001s1.33301 -8.33398 4 -11.001s6.33398 -4 11.001 -4zM75.001 215z" />
    <glyph glyph-name="ae" unicode="&#xe6;" horiz-adv-x="250" 
d="M15 40c0 20 9.16797 33.333 27.501 40s40.833 10 67.5 10c0 13.333 -2.5 23 -7.5 29s-15.833 9 -32.5 9s-30 -2.66699 -40 -8l-5 15c14.667 5.33301 29.667 8 45 8c26.667 0 44 -7 52 -21c13.333 15.333 29.666 23 48.999 23s34.833 -5.83301 46.5 -17.5
s17.5 -32.5 17.5 -62.5h-104c0 -16.667 3.5 -29.667 10.5 -39s18.167 -14 33.5 -14s29.333 6 42 18l11 -10c-15.333 -16.667 -33 -25 -53 -25s-37.667 8.33301 -53 25c-21.333 -15.333 -40.333 -23 -57 -23s-29.167 3.83301 -37.5 11.5s-12.5 18.167 -12.5 31.5zM43.501 21
c4.33301 -6 13.167 -9 26.5 -9c10 0 25 7.33301 45 22c-3.33301 14 -5 27.333 -5 40c-26.667 0 -45.5 -2.33301 -56.5 -7s-16.5 -13 -16.5 -25c0 -8 2.16699 -15 6.5 -21zM131.002 81h83c0 12.667 -3.5 24 -10.5 34s-17.333 15 -31 15s-24 -5 -31 -15
s-10.5 -21.333 -10.5 -34zM205.002 8z" />
    <glyph glyph-name="ccedilla" unicode="&#xe7;" horiz-adv-x="145" 
d="M15 70c0 23.333 6.66699 41.6699 20 55.0029s30 20 50 20s36.667 -5 50 -15v-20c-16.667 13.333 -32.5 20 -47.5 20s-27.333 -5.83301 -37 -17.5s-14.5 -25.834 -14.5 -42.501s4.83301 -30.834 14.5 -42.501s22 -17.5 37 -17.5s30.833 6.66699 47.5 20v-20
c-13.333 -10 -30 -15 -50 -15s-36.667 6.66699 -50 20s-20 31.666 -20 54.999zM55 -49.9961v17c10 -3.33301 17 -5 21 -5s7.16699 0.666992 9.5 2s3.5 3.5 3.5 6.5s-1.16699 5.66699 -3.5 8s-7.5 3.5 -15.5 3.5l3 18h17l-1 -10c5.33301 0 9.33301 -1.66699 12 -5
s4 -8.83301 4 -16.5s-2.5 -13.167 -7.5 -16.5s-11.667 -5 -20 -5s-15.833 1 -22.5 3zM80 0.00390625z" />
    <glyph glyph-name="egrave" unicode="&#xe8;" 
d="M15 70c0 23.333 5.83301 41.668 17.5 55.001s27.5 20 47.5 20s35.833 -5.83301 47.5 -17.5s17.5 -32.5 17.5 -62.5h-109c0 -13.333 3.5 -25.5 10.5 -36.5s19.833 -16.5 38.5 -16.5c15.333 0 29.333 6 42 18l11 -10c-15.333 -16.667 -33 -25 -53 -25
c-23.333 0 -40.833 6.66699 -52.5 20s-17.5 31.666 -17.5 54.999zM36 81.002h88c0 12.667 -3.5 24 -10.5 34s-18.167 15 -33.5 15s-26.5 -5 -33.5 -15s-10.5 -21.333 -10.5 -34zM50 210.002h25l25 -45h-15zM70 215.002z" />
    <glyph glyph-name="eacute" unicode="&#xe9;" 
d="M15 70c0 23.333 5.83301 41.668 17.5 55.001s27.5 20 47.5 20s35.833 -5.83301 47.5 -17.5s17.5 -32.5 17.5 -62.5h-109c0 -13.333 3.5 -25.5 10.5 -36.5s19.833 -16.5 38.5 -16.5c15.333 0 29.333 6 42 18l11 -10c-15.333 -16.667 -33 -25 -53 -25
c-23.333 0 -40.833 6.66699 -52.5 20s-17.5 31.666 -17.5 54.999zM36 81.002h88c0 12.667 -3.5 24 -10.5 34s-18.167 15 -33.5 15s-26.5 -5 -33.5 -15s-10.5 -21.333 -10.5 -34zM110 210.002h-25l-25 -45h15zM90 215.002z" />
    <glyph glyph-name="ecircumflex" unicode="&#xea;" 
d="M15 70c0 23.333 5.83301 41.668 17.5 55.001s27.5 20 47.5 20s35.833 -5.83301 47.5 -17.5s17.5 -32.5 17.5 -62.5h-109c0 -13.333 3.5 -25.5 10.5 -36.5s19.833 -16.5 38.5 -16.5c15.333 0 29.333 6 42 18l11 -10c-15.333 -16.667 -33 -25 -53 -25
c-23.333 0 -40.833 6.66699 -52.5 20s-17.5 31.666 -17.5 54.999zM36 81.002h88c0 12.667 -3.5 24 -10.5 34s-18.167 15 -33.5 15s-26.5 -5 -33.5 -15s-10.5 -21.333 -10.5 -34zM35 165.002l30 45h30l30 -45h-15l-30 29l-30 -29h-15zM80 215.002z" />
    <glyph glyph-name="edieresis" unicode="&#xeb;" 
d="M15 70c0 23.333 5.83301 41.668 17.5 55.001s27.5 20 47.5 20s35.833 -5.83301 47.5 -17.5s17.5 -32.5 17.5 -62.5h-109c0 -13.333 3.5 -25.5 10.5 -36.5s19.833 -16.5 38.5 -16.5c15.333 0 29.333 6 42 18l11 -10c-15.333 -16.667 -33 -25 -53 -25
c-23.333 0 -40.833 6.66699 -52.5 20s-17.5 31.666 -17.5 54.999zM36 81.002h88c0 12.667 -3.5 24 -10.5 34s-18.167 15 -33.5 15s-26.5 -5 -33.5 -15s-10.5 -21.333 -10.5 -34zM40 165.002v20h20v-20h-20zM100 165.002v20h20v-20h-20zM80 190.002z" />
    <glyph glyph-name="igrave" unicode="&#xec;" horiz-adv-x="60" 
d="M20 0v140h20v-140h-20zM0 210h25l25 -45h-15zM20 215z" />
    <glyph glyph-name="iacute" unicode="&#xed;" horiz-adv-x="60" 
d="M20 0v140h20v-140h-20zM60 210h-25l-25 -45h15zM40 215z" />
    <glyph glyph-name="icircumflex" unicode="&#xee;" horiz-adv-x="60" 
d="M20 0v140h20v-140h-20zM-15 165l30 45h30l30 -45h-15l-30 29l-30 -29h-15zM30 215z" />
    <glyph glyph-name="idieresis" unicode="&#xef;" horiz-adv-x="60" 
d="M20 0v140h20v-140h-20zM-10 165v20h20v-20h-20zM50 165v20h20v-20h-20zM30 190z" />
    <glyph glyph-name="eth" unicode="&#xf0;" horiz-adv-x="165" 
d="M37 57.5c0 -11.667 3.83301 -22.499 11.5 -32.499s19 -15 34 -15s26.333 5.83301 34 17.5s11.5 25 11.5 40s-1 24.833 -3 29.5c-13.333 8.66699 -27.5 13 -42.5 13s-26.333 -5.83301 -34 -17.5s-11.5 -23.334 -11.5 -35.001zM85 166.001
c-8.66699 10.667 -21.9971 22 -39.9971 34h25c10 -5.33301 19.667 -13.333 29 -24l28 20l10 -14l-28 -20c27.333 -28 41 -58.667 41 -92c0 -23.333 -5.83301 -41.666 -17.5 -54.999s-28.334 -20 -50.001 -20s-38.334 5.83301 -50.001 17.5s-17.5 26.667 -17.5 45
s5.83301 34.166 17.5 47.499s26.667 20 45 20s33.166 -3.33301 44.499 -10c-2.66699 8 -11.667 20.333 -27 37l-28 -20l-10 14zM121.003 10.001z" />
    <glyph glyph-name="ntilde" unicode="&#xf1;" horiz-adv-x="155" 
d="M20 0l-0.000976562 140h20v-23c13.333 17.333 28.333 26 45 26s29.167 -3.83301 37.5 -11.5s12.5 -21.5 12.5 -41.5v-90h-20v85c0 13.333 -2.5 23.5 -7.5 30.5s-14.167 10.5 -27.5 10.5s-26.666 -8.66699 -39.999 -26v-100h-20zM29.999 186c9.33301 12 19.333 18 30 18
s18.5 -3 23.5 -9s11.167 -9 18.5 -9s14 4 20 12l8 -10c-9.33301 -12 -19.333 -18 -30 -18s-18.5 3 -23.5 9s-11.167 9 -18.5 9s-14 -4 -20 -12zM79.999 210z" />
    <glyph glyph-name="ograve" unicode="&#xf2;" horiz-adv-x="165" 
d="M15 70c0 23.333 5.83301 41.666 17.5 54.999s28.334 20 50.001 20s38.334 -6.66699 50.001 -20s17.5 -31.666 17.5 -54.999s-5.83301 -41.666 -17.5 -54.999s-28.334 -20 -50.001 -20s-38.334 6.66699 -50.001 20s-17.5 31.666 -17.5 54.999zM36 70
c0 -16.667 4 -30.834 12 -42.501s19.5 -17.5 34.5 -17.5s26.5 5.83301 34.5 17.5s12 25.834 12 42.501s-4 30.834 -12 42.501s-19.5 17.5 -34.5 17.5s-26.5 -5.83301 -34.5 -17.5s-12 -25.834 -12 -42.501zM53 210h25l25 -45h-15zM73 215z" />
    <glyph glyph-name="oacute" unicode="&#xf3;" horiz-adv-x="165" 
d="M15 70c0 23.333 5.83301 41.666 17.5 54.999s28.334 20 50.001 20s38.334 -6.66699 50.001 -20s17.5 -31.666 17.5 -54.999s-5.83301 -41.666 -17.5 -54.999s-28.334 -20 -50.001 -20s-38.334 6.66699 -50.001 20s-17.5 31.666 -17.5 54.999zM36 70
c0 -16.667 4 -30.834 12 -42.501s19.5 -17.5 34.5 -17.5s26.5 5.83301 34.5 17.5s12 25.834 12 42.501s-4 30.834 -12 42.501s-19.5 17.5 -34.5 17.5s-26.5 -5.83301 -34.5 -17.5s-12 -25.834 -12 -42.501zM113 210h-25l-25 -45h15zM93 215z" />
    <glyph glyph-name="ocircumflex" unicode="&#xf4;" horiz-adv-x="165" 
d="M15 70c0 23.333 5.83301 41.666 17.5 54.999s28.334 20 50.001 20s38.334 -6.66699 50.001 -20s17.5 -31.666 17.5 -54.999s-5.83301 -41.666 -17.5 -54.999s-28.334 -20 -50.001 -20s-38.334 6.66699 -50.001 20s-17.5 31.666 -17.5 54.999zM36 70
c0 -16.667 4 -30.834 12 -42.501s19.5 -17.5 34.5 -17.5s26.5 5.83301 34.5 17.5s12 25.834 12 42.501s-4 30.834 -12 42.501s-19.5 17.5 -34.5 17.5s-26.5 -5.83301 -34.5 -17.5s-12 -25.834 -12 -42.501zM38 165l30 45h30l30 -45h-15l-30 29l-30 -29h-15zM83 215z" />
    <glyph glyph-name="otilde" unicode="&#xf5;" horiz-adv-x="165" 
d="M15 70c0 23.333 5.83301 41.666 17.5 54.999s28.334 20 50.001 20s38.334 -6.66699 50.001 -20s17.5 -31.666 17.5 -54.999s-5.83301 -41.666 -17.5 -54.999s-28.334 -20 -50.001 -20s-38.334 6.66699 -50.001 20s-17.5 31.666 -17.5 54.999zM36 70
c0 -16.667 4 -30.834 12 -42.501s19.5 -17.5 34.5 -17.5s26.5 5.83301 34.5 17.5s12 25.834 12 42.501s-4 30.834 -12 42.501s-19.5 17.5 -34.5 17.5s-26.5 -5.83301 -34.5 -17.5s-12 -25.834 -12 -42.501zM33 186c9.33301 12 19.333 18 30 18s18.5 -3 23.5 -9
s11.167 -9 18.5 -9s14 4 20 12l8 -10c-9.33301 -12 -19.333 -18 -30 -18s-18.5 3 -23.5 9s-11.167 9 -18.5 9s-14 -4 -20 -12zM83 210z" />
    <glyph glyph-name="odieresis" unicode="&#xf6;" horiz-adv-x="165" 
d="M15 70c0 23.333 5.83301 41.666 17.5 54.999s28.334 20 50.001 20s38.334 -6.66699 50.001 -20s17.5 -31.666 17.5 -54.999s-5.83301 -41.666 -17.5 -54.999s-28.334 -20 -50.001 -20s-38.334 6.66699 -50.001 20s-17.5 31.666 -17.5 54.999zM36 70
c0 -16.667 4 -30.834 12 -42.501s19.5 -17.5 34.5 -17.5s26.5 5.83301 34.5 17.5s12 25.834 12 42.501s-4 30.834 -12 42.501s-19.5 17.5 -34.5 17.5s-26.5 -5.83301 -34.5 -17.5s-12 -25.834 -12 -42.501zM43 165v20h20v-20h-20zM103 165v20h20v-20h-20zM83 190z" />
    <glyph glyph-name="divide" unicode="&#xf7;" horiz-adv-x="180" 
d="M20 60v20h150v-20h-150zM85 115v25h20v-25h-20zM85 0v25h20v-25h-20z" />
    <glyph glyph-name="oslash" unicode="&#xf8;" horiz-adv-x="165" 
d="M15 70.5c0 23 5.83398 41.167 17.501 54.5s26.667 20 45 20s32.5 -3.33301 42.5 -10l8 10h22l-16 -22c10.667 -13.333 16 -31.333 16 -54s-5.83301 -40.667 -17.5 -54s-26.834 -20 -45.501 -20s-33 3 -43 9l-7 -9h-22l16 21c-10.667 13.333 -16 31.5 -16 54.5zM44.001 33
l65 88c-7.33301 6 -17.333 9 -30 9s-23 -5.83301 -31 -17.5s-12 -25.167 -12 -40.5s2.66699 -28.333 8 -39zM55.001 19c7.33301 -6 17.5 -9 30.5 -9s23.5 5.83301 31.5 17.5s12 25.167 12 40.5s-2.66699 28 -8 38zM121.001 10z" />
    <glyph glyph-name="ugrave" unicode="&#xf9;" horiz-adv-x="155" 
d="M135 140l0.000976562 -140h-20v23c-13.333 -17.333 -28.333 -26 -45 -26s-29.167 3.83301 -37.5 11.5s-12.5 21.5 -12.5 41.5v90h20v-85c0 -13.333 2.5 -23.5 7.5 -30.5s14.167 -10.5 27.5 -10.5s26.666 8.66699 39.999 26v100h20zM50.001 210h25l25 -45h-15zM70.001 215
z" />
    <glyph glyph-name="uacute" unicode="&#xfa;" horiz-adv-x="155" 
d="M135 140l0.000976562 -140h-20v23c-13.333 -17.333 -28.333 -26 -45 -26s-29.167 3.83301 -37.5 11.5s-12.5 21.5 -12.5 41.5v90h20v-85c0 -13.333 2.5 -23.5 7.5 -30.5s14.167 -10.5 27.5 -10.5s26.666 8.66699 39.999 26v100h20zM110.001 210h-25l-25 -45h15z
M90.001 215z" />
    <glyph glyph-name="ucircumflex" unicode="&#xfb;" horiz-adv-x="155" 
d="M135 140l0.000976562 -140h-20v23c-13.333 -17.333 -28.333 -26 -45 -26s-29.167 3.83301 -37.5 11.5s-12.5 21.5 -12.5 41.5v90h20v-85c0 -13.333 2.5 -23.5 7.5 -30.5s14.167 -10.5 27.5 -10.5s26.666 8.66699 39.999 26v100h20zM35.001 165l30 45h30l30 -45h-15
l-30 29l-30 -29h-15zM80.001 215z" />
    <glyph glyph-name="udieresis" unicode="&#xfc;" horiz-adv-x="155" 
d="M135 140l0.000976562 -140h-20v23c-13.333 -17.333 -28.333 -26 -45 -26s-29.167 3.83301 -37.5 11.5s-12.5 21.5 -12.5 41.5v90h20v-85c0 -13.333 2.5 -23.5 7.5 -30.5s14.167 -10.5 27.5 -10.5s26.666 8.66699 39.999 26v100h20zM40.001 165v20h20v-20h-20z
M100.001 165v20h20v-20h-20zM80.001 190z" />
    <glyph glyph-name="yacute" unicode="&#xfd;" horiz-adv-x="130" 
d="M0 140h21l45 -104l43 104h21l-80 -190h-21l27 62zM95 210h-25l-25 -45h15zM75 215z" />
    <glyph glyph-name="thorn" unicode="&#xfe;" 
d="M20 -53v253h20v-70c13.333 8.66699 29.333 13 48 13s33 -6.33301 43 -19s15 -30.667 15 -54s-5 -41.333 -15 -54s-24.333 -19 -43 -19s-34.667 4.33301 -48 13v-63h-20zM40 25c12 -8.66699 26 -13 42 -13s27 5.5 33 16.5s9 24.833 9 41.5s-3 30.5 -9 41.5
s-17 16.5 -33 16.5s-30 -4.33301 -42 -13v-90zM115 8z" />
    <glyph glyph-name="ydieresis" unicode="&#xff;" horiz-adv-x="130" 
d="M0 140h21l45 -104l43 104h21l-80 -190h-21l27 62zM25 165v20h20v-20h-20zM85 165v20h20v-20h-20zM65 190z" />
    <glyph glyph-name="Amacron" unicode="&#x100;" horiz-adv-x="180" 
d="M5 0l70 190h30l70 -190h-21l-22 61h-84l-22 -61h-21zM54 79h71l-35 96zM45 210v16h90v-16h-90zM90 235z" />
    <glyph glyph-name="amacron" unicode="&#x101;" horiz-adv-x="150" 
d="M15 40c0 20 9.16699 33.333 27.5 40s40.833 10 67.5 10c0 13.333 -2.5 23 -7.5 29s-15.833 9 -32.5 9s-30 -2.66699 -40 -8l-5 15c14.667 5.33301 29.667 8 45 8c22 0 37.5 -3.83301 46.5 -11.5s13.5 -21.5 13.5 -41.5v-90h-20v15c-13.333 -12 -28.333 -18 -45 -18
s-29.167 3.83301 -37.5 11.5s-12.5 18.167 -12.5 31.5zM43.5 21c4.33301 -6 13.167 -9 26.5 -9c10 0 23.333 6 40 18v44c-26.667 0 -45.5 -2.33301 -56.5 -7s-16.5 -13 -16.5 -25c0 -8 2.16699 -15 6.5 -21zM30.001 170v16h90v-16h-90zM75.001 195z" />
    <glyph glyph-name="Abreve" unicode="&#x102;" horiz-adv-x="180" 
d="M5 0l70 190h30l70 -190h-21l-22 61h-84l-22 -61h-21zM54 79h71l-35 96zM50 250h13c1.33301 -11.333 4.5 -18.833 9.5 -22.5s10.833 -5.5 17.5 -5.5s12.5 1.83301 17.5 5.5s8.16699 11.167 9.5 22.5h13c0 -15.333 -3.66699 -26.666 -11 -33.999s-17 -11 -29 -11
s-21.667 3.66699 -29 11s-11 18.666 -11 33.999zM90 255z" />
    <glyph glyph-name="abreve" unicode="&#x103;" horiz-adv-x="150" 
d="M15 40c0 20 9.16699 33.333 27.5 40s40.833 10 67.5 10c0 13.333 -2.5 23 -7.5 29s-15.833 9 -32.5 9s-30 -2.66699 -40 -8l-5 15c14.667 5.33301 29.667 8 45 8c22 0 37.5 -3.83301 46.5 -11.5s13.5 -21.5 13.5 -41.5v-90h-20v15c-13.333 -12 -28.333 -18 -45 -18
s-29.167 3.83301 -37.5 11.5s-12.5 18.167 -12.5 31.5zM43.5 21c4.33301 -6 13.167 -9 26.5 -9c10 0 23.333 6 40 18v44c-26.667 0 -45.5 -2.33301 -56.5 -7s-16.5 -13 -16.5 -25c0 -8 2.16699 -15 6.5 -21zM35.001 210h13c1.33301 -11.333 4.5 -18.833 9.5 -22.5
s10.833 -5.5 17.5 -5.5s12.5 1.83301 17.5 5.5s8.16699 11.167 9.5 22.5h13c0 -15.333 -3.66699 -26.666 -11 -33.999s-17 -11 -29 -11s-21.667 3.66699 -29 11s-11 18.666 -11 33.999zM75.001 215z" />
    <glyph glyph-name="Aogonek" unicode="&#x104;" horiz-adv-x="180" 
d="M5 0l70 190h30l70 -190h-21l-22 61h-84l-22 -61h-21zM54 79h71l-35 96zM130 -30c0 14.667 12.666 28.667 37.999 42l7 -12c-16.667 -10 -25 -19 -25 -27c0 -5.33301 2.16699 -8 6.5 -8s10.5 1.33301 18.5 4v-17c-6.66699 -3.33301 -14.167 -5 -22.5 -5
s-14.166 1.66699 -17.499 5s-5 9.33301 -5 18zM169.999 0z" />
    <glyph glyph-name="aogonek" unicode="&#x105;" horiz-adv-x="150" 
d="M15 40c0 20 9.16699 33.333 27.5 40s40.833 10 67.5 10c0 13.333 -2.5 23 -7.5 29s-15.833 9 -32.5 9s-30 -2.66699 -40 -8l-5 15c14.667 5.33301 29.667 8 45 8c22 0 37.5 -3.83301 46.5 -11.5s13.5 -21.5 13.5 -41.5v-90h-20v15c-13.333 -12 -28.333 -18 -45 -18
s-29.167 3.83301 -37.5 11.5s-12.5 18.167 -12.5 31.5zM43.5 21c4.33301 -6 13.167 -9 26.5 -9c10 0 23.333 6 40 18v44c-26.667 0 -45.5 -2.33301 -56.5 -7s-16.5 -13 -16.5 -25c0 -8 2.16699 -15 6.5 -21zM85.001 -30c0 14.667 12.666 28.667 37.999 42l7 -12
c-16.667 -10 -25 -19 -25 -27c0 -5.33301 2.16699 -8 6.5 -8s10.5 1.33301 18.5 4v-17c-6.66699 -3.33301 -14.167 -5 -22.5 -5s-14.166 1.66699 -17.499 5s-5 9.33301 -5 18zM125 0z" />
    <glyph glyph-name="Cacute" unicode="&#x106;" horiz-adv-x="185" 
d="M15 95c0 33.333 8.33301 58.333 25 75s40 25 70 25c23.333 0 43.333 -8.33301 60 -25v-20c-23.333 20 -43.333 30 -60 30c-23.333 0 -41.333 -7.5 -54 -22.5s-19 -35.833 -19 -62.5s6.33301 -47.5 19 -62.5s30.667 -22.5 54 -22.5c16.667 0 36.667 10 60 30v-20
c-16.667 -16.667 -36.667 -25 -60 -25c-30 0 -53.333 8.33301 -70 25s-25 41.667 -25 75zM135 250h-25l-25 -45h15zM115 255z" />
    <glyph glyph-name="cacute" unicode="&#x107;" horiz-adv-x="145" 
d="M15 70c0 23.333 6.66699 41.6699 20 55.0029s30 20 50 20s36.667 -5 50 -15v-20c-16.667 13.333 -32.5 20 -47.5 20s-27.333 -5.83301 -37 -17.5s-14.5 -25.834 -14.5 -42.501s4.83301 -30.834 14.5 -42.501s22 -17.5 37 -17.5s30.833 6.66699 47.5 20v-20
c-13.333 -10 -30 -15 -50 -15s-36.667 6.66699 -50 20s-20 31.666 -20 54.999zM110 210.004h-25l-25 -45h15zM90 215.004z" />
    <glyph glyph-name="Ccircumflex" unicode="&#x108;" horiz-adv-x="185" 
d="M15 95c0 33.333 8.33301 58.333 25 75s40 25 70 25c23.333 0 43.333 -8.33301 60 -25v-20c-23.333 20 -43.333 30 -60 30c-23.333 0 -41.333 -7.5 -54 -22.5s-19 -35.833 -19 -62.5s6.33301 -47.5 19 -62.5s30.667 -22.5 54 -22.5c16.667 0 36.667 10 60 30v-20
c-16.667 -16.667 -36.667 -25 -60 -25c-30 0 -53.333 8.33301 -70 25s-25 41.667 -25 75zM60 205l30 45h30l30 -45h-15l-30 29l-30 -29h-15zM105 255z" />
    <glyph glyph-name="ccircumflex" unicode="&#x109;" horiz-adv-x="145" 
d="M15 70c0 23.333 6.66699 41.6699 20 55.0029s30 20 50 20s36.667 -5 50 -15v-20c-16.667 13.333 -32.5 20 -47.5 20s-27.333 -5.83301 -37 -17.5s-14.5 -25.834 -14.5 -42.501s4.83301 -30.834 14.5 -42.501s22 -17.5 37 -17.5s30.833 6.66699 47.5 20v-20
c-13.333 -10 -30 -15 -50 -15s-36.667 6.66699 -50 20s-20 31.666 -20 54.999zM35 165.004l30 45h30l30 -45h-15l-30 29l-30 -29h-15zM80 215.004z" />
    <glyph glyph-name="Cdot" unicode="&#x10a;" horiz-adv-x="185" 
d="M15 95c0 33.333 8.33301 58.333 25 75s40 25 70 25c23.333 0 43.333 -8.33301 60 -25v-20c-23.333 20 -43.333 30 -60 30c-23.333 0 -41.333 -7.5 -54 -22.5s-19 -35.833 -19 -62.5s6.33301 -47.5 19 -62.5s30.667 -22.5 54 -22.5c16.667 0 36.667 10 60 30v-20
c-16.667 -16.667 -36.667 -25 -60 -25c-30 0 -53.333 8.33301 -70 25s-25 41.667 -25 75zM95 205v25h20v-25h-20zM105 235z" />
    <glyph glyph-name="cdot" unicode="&#x10b;" horiz-adv-x="145" 
d="M15 70c0 23.333 6.66699 41.6699 20 55.0029s30 20 50 20s36.667 -5 50 -15v-20c-16.667 13.333 -32.5 20 -47.5 20s-27.333 -5.83301 -37 -17.5s-14.5 -25.834 -14.5 -42.501s4.83301 -30.834 14.5 -42.501s22 -17.5 37 -17.5s30.833 6.66699 47.5 20v-20
c-13.333 -10 -30 -15 -50 -15s-36.667 6.66699 -50 20s-20 31.666 -20 54.999zM70 165.004v25h20v-25h-20zM80 195.004z" />
    <glyph glyph-name="Ccaron" unicode="&#x10c;" horiz-adv-x="185" 
d="M15 95c0 33.333 8.33301 58.333 25 75s40 25 70 25c23.333 0 43.333 -8.33301 60 -25v-20c-23.333 20 -43.333 30 -60 30c-23.333 0 -41.333 -7.5 -54 -22.5s-19 -35.833 -19 -62.5s6.33301 -47.5 19 -62.5s30.667 -22.5 54 -22.5c16.667 0 36.667 10 60 30v-20
c-16.667 -16.667 -36.667 -25 -60 -25c-30 0 -53.333 8.33301 -70 25s-25 41.667 -25 75zM60 250l30 -45h30l30 45h-15l-30 -29l-30 29h-15zM105 245z" />
    <glyph glyph-name="ccaron" unicode="&#x10d;" horiz-adv-x="145" 
d="M15 70c0 23.333 6.66699 41.6699 20 55.0029s30 20 50 20s36.667 -5 50 -15v-20c-16.667 13.333 -32.5 20 -47.5 20s-27.333 -5.83301 -37 -17.5s-14.5 -25.834 -14.5 -42.501s4.83301 -30.834 14.5 -42.501s22 -17.5 37 -17.5s30.833 6.66699 47.5 20v-20
c-13.333 -10 -30 -15 -50 -15s-36.667 6.66699 -50 20s-20 31.666 -20 54.999zM35 210.004l30 -45h30l30 45h-15l-30 -29l-30 29h-15zM80 205.004z" />
    <glyph glyph-name="Dcaron" unicode="&#x10e;" horiz-adv-x="185" 
d="M20 0v190h40c73.333 0 110 -31.667 110 -95s-35 -95 -105 -95h-45zM40 18h30c52 0 78 25.667 78 77s-27.667 77 -83 77h-25v-154zM45 250l30 -45h30l30 45h-15l-30 -29l-30 29h-15zM90 245z" />
    <glyph glyph-name="dcaron" unicode="&#x10f;" 
d="M140 0v200h-20v-70c-13.333 8.66699 -29.166 13 -47.499 13s-32.5 -6.33301 -42.5 -19s-15 -30.667 -15 -54s5 -41.333 15 -54s24.167 -19 42.5 -19s34.166 4.33301 47.499 13v-10h20zM120 25c-12 -8.66699 -25.833 -13 -41.5 -13s-26.5 5.5 -32.5 16.5
s-9 24.833 -9 41.5s3 30.5 9 41.5s16.833 16.5 32.5 16.5s29.5 -4.33301 41.5 -13v-90zM25 230l30 -45h30l30 45h-15l-30 -29l-30 29h-15zM70 225z" />
    <glyph glyph-name="Dslash" unicode="&#x110;" horiz-adv-x="1479" 
 />
    <glyph glyph-name="dmacron" unicode="&#x111;" horiz-adv-x="1139" 
 />
    <glyph glyph-name="Emacron" unicode="&#x112;" 
d="M20 0v190h130v-18h-110v-64h90v-18h-90v-72h110v-18h-130zM40 210v16h90v-16h-90zM85 235z" />
    <glyph glyph-name="emacron" unicode="&#x113;" 
d="M15 70c0 23.333 5.83301 41.668 17.5 55.001s27.5 20 47.5 20s35.833 -5.83301 47.5 -17.5s17.5 -32.5 17.5 -62.5h-109c0 -13.333 3.5 -25.5 10.5 -36.5s19.833 -16.5 38.5 -16.5c15.333 0 29.333 6 42 18l11 -10c-15.333 -16.667 -33 -25 -53 -25
c-23.333 0 -40.833 6.66699 -52.5 20s-17.5 31.666 -17.5 54.999zM36 81.002h88c0 12.667 -3.5 24 -10.5 34s-18.167 15 -33.5 15s-26.5 -5 -33.5 -15s-10.5 -21.333 -10.5 -34zM35 170.002v16h90v-16h-90zM80 195.002z" />
    <glyph glyph-name="Ebreve" unicode="&#x114;" 
d="M20 0v190h130v-18h-110v-64h90v-18h-90v-72h110v-18h-130zM45 250h13c1.33301 -11.333 4.5 -18.833 9.5 -22.5s10.833 -5.5 17.5 -5.5s12.5 1.83301 17.5 5.5s8.16699 11.167 9.5 22.5h13c0 -15.333 -3.66699 -26.666 -11 -33.999s-17 -11 -29 -11
s-21.667 3.66699 -29 11s-11 18.666 -11 33.999zM85 255z" />
    <glyph glyph-name="ebreve" unicode="&#x115;" 
d="M15 70c0 23.333 5.83301 41.668 17.5 55.001s27.5 20 47.5 20s35.833 -5.83301 47.5 -17.5s17.5 -32.5 17.5 -62.5h-109c0 -13.333 3.5 -25.5 10.5 -36.5s19.833 -16.5 38.5 -16.5c15.333 0 29.333 6 42 18l11 -10c-15.333 -16.667 -33 -25 -53 -25
c-23.333 0 -40.833 6.66699 -52.5 20s-17.5 31.666 -17.5 54.999zM36 81.002h88c0 12.667 -3.5 24 -10.5 34s-18.167 15 -33.5 15s-26.5 -5 -33.5 -15s-10.5 -21.333 -10.5 -34zM40 210.002h13c1.33301 -11.333 4.5 -18.833 9.5 -22.5s10.833 -5.5 17.5 -5.5
s12.5 1.83301 17.5 5.5s8.16699 11.167 9.5 22.5h13c0 -15.333 -3.66699 -26.666 -11 -33.999s-17 -11 -29 -11s-21.667 3.66699 -29 11s-11 18.666 -11 33.999zM80 215.002z" />
    <glyph glyph-name="Edot" unicode="&#x116;" 
d="M20 0v190h130v-18h-110v-64h90v-18h-90v-72h110v-18h-130zM75 205v25h20v-25h-20zM85 235z" />
    <glyph glyph-name="edotaccent" unicode="&#x117;" 
d="M15 70c0 23.333 5.83301 41.668 17.5 55.001s27.5 20 47.5 20s35.833 -5.83301 47.5 -17.5s17.5 -32.5 17.5 -62.5h-109c0 -13.333 3.5 -25.5 10.5 -36.5s19.833 -16.5 38.5 -16.5c15.333 0 29.333 6 42 18l11 -10c-15.333 -16.667 -33 -25 -53 -25
c-23.333 0 -40.833 6.66699 -52.5 20s-17.5 31.666 -17.5 54.999zM36 81.002h88c0 12.667 -3.5 24 -10.5 34s-18.167 15 -33.5 15s-26.5 -5 -33.5 -15s-10.5 -21.333 -10.5 -34zM70 165.002v25h20v-25h-20zM80 195.002z" />
    <glyph glyph-name="Eogonek" unicode="&#x118;" 
d="M20 0v190h130v-18h-110v-64h90v-18h-90v-72h110v-18h-130zM105 -30c0 14.667 12.666 28.667 37.999 42l7 -12c-16.667 -10 -25 -19 -25 -27c0 -5.33301 2.16699 -8 6.5 -8s10.5 1.33301 18.5 4v-17c-6.66699 -3.33301 -14.167 -5 -22.5 -5s-14.166 1.66699 -17.499 5
s-5 9.33301 -5 18zM144.999 0z" />
    <glyph glyph-name="eogonek" unicode="&#x119;" 
d="M15 70c0 23.333 5.83301 41.668 17.5 55.001s27.5 20 47.5 20s35.833 -5.83301 47.5 -17.5s17.5 -32.5 17.5 -62.5h-109c0 -13.333 3.5 -25.5 10.5 -36.5s19.833 -16.5 38.5 -16.5c15.333 0 29.333 6 42 18l11 -10c-15.333 -16.667 -33 -25 -53 -25
c-23.333 0 -40.833 6.66699 -52.5 20s-17.5 31.666 -17.5 54.999zM36 81.002h88c0 12.667 -3.5 24 -10.5 34s-18.167 15 -33.5 15s-26.5 -5 -33.5 -15s-10.5 -21.333 -10.5 -34zM75 -21.998c0 14.667 12.666 28.667 37.999 42l7 -12c-16.667 -10 -25 -19 -25 -27
c0 -5.33301 2.16699 -8 6.5 -8s10.5 1.33301 18.5 4v-17c-6.66699 -3.33301 -14.167 -5 -22.5 -5s-14.166 1.66699 -17.499 5s-5 9.33301 -5 18zM114.999 8.00195z" />
    <glyph glyph-name="Ecaron" unicode="&#x11a;" 
d="M20 0v190h130v-18h-110v-64h90v-18h-90v-72h110v-18h-130zM40 250l30 -45h30l30 45h-15l-30 -29l-30 29h-15zM85 245z" />
    <glyph glyph-name="ecaron" unicode="&#x11b;" 
d="M15 70c0 23.333 5.83301 41.668 17.5 55.001s27.5 20 47.5 20s35.833 -5.83301 47.5 -17.5s17.5 -32.5 17.5 -62.5h-109c0 -13.333 3.5 -25.5 10.5 -36.5s19.833 -16.5 38.5 -16.5c15.333 0 29.333 6 42 18l11 -10c-15.333 -16.667 -33 -25 -53 -25
c-23.333 0 -40.833 6.66699 -52.5 20s-17.5 31.666 -17.5 54.999zM36 81.002h88c0 12.667 -3.5 24 -10.5 34s-18.167 15 -33.5 15s-26.5 -5 -33.5 -15s-10.5 -21.333 -10.5 -34zM35 210.002l30 -45h30l30 45h-15l-30 -29l-30 29h-15zM80 205.002z" />
    <glyph glyph-name="Gcircumflex" unicode="&#x11c;" horiz-adv-x="195" 
d="M15 95c0 33.333 8.33203 58.333 24.999 75s40 25 70 25s53.333 -8.33301 70 -25v-20c-23.333 20 -46.666 30 -69.999 30s-41.333 -7.5 -54 -22.5s-19 -35.833 -19 -62.5s6.33301 -47.5 19 -62.5s30.667 -22.5 54 -22.5c20 0 36.667 6.66699 50 20v52h-50v18h70v-80
c-20 -16.667 -43.333 -25 -70 -25c-30 0 -53.333 8.33301 -70 25s-25 41.667 -25 75zM64.999 205l30 45h30l30 -45h-15l-30 29l-30 -29h-15zM109.999 255z" />
    <glyph glyph-name="gcircumflex" unicode="&#x11d;" 
d="M35 16c-10 2.66699 -15 9.33594 -15 20.0029s6.66699 17.667 20 21c-13.333 9.33301 -20 22.166 -20 38.499s5.83301 28.666 17.5 36.999s25 12.5 40 12.5s26.833 -1.66699 35.5 -5c14.667 -3.33301 28.667 -3.33301 42 0v-20h-17c4.66699 -7.33301 7 -17.5 7 -30.5
s-5.83301 -23.667 -17.5 -32s-24 -12.5 -37 -12.5h-35c-10.333 0 -15.5 -2.66699 -15.5 -8s6.66699 -8 20 -8c40 0 66.667 -3.5 80 -10.5s20 -17.167 20 -30.5s-6.66699 -23.5 -20 -30.5s-30.833 -10.5 -52.5 -10.5s-39.167 3.5 -52.5 10.5s-20 16.667 -20 29
s6.66699 22.166 20 29.499zM37 -10.998c0 -9.33301 4.66699 -16.168 14 -20.501s21.5 -6.5 36.5 -6.5s27.167 2.16699 36.5 6.5s14 10.333 14 18s-4.66699 14.334 -14 20.001s-34 8.5 -74 8.5c-8.66699 -8 -13 -16.667 -13 -26zM40 95c0 -10 4.16699 -18.5 12.5 -25.5
s18.333 -10.5 30 -10.5s21.667 3.5 30 10.5s12.5 15.5 12.5 25.5s-4.16699 18.5 -12.5 25.5s-18.333 10.5 -30 10.5s-21.667 -3.5 -30 -10.5s-12.5 -15.5 -12.5 -25.5zM40 165l30 45h30l30 -45h-15l-30 29l-30 -29h-15zM85 215z" />
    <glyph glyph-name="Gbreve" unicode="&#x11e;" horiz-adv-x="195" 
d="M15 95c0 33.333 8.33203 58.333 24.999 75s40 25 70 25s53.333 -8.33301 70 -25v-20c-23.333 20 -46.666 30 -69.999 30s-41.333 -7.5 -54 -22.5s-19 -35.833 -19 -62.5s6.33301 -47.5 19 -62.5s30.667 -22.5 54 -22.5c20 0 36.667 6.66699 50 20v52h-50v18h70v-80
c-20 -16.667 -43.333 -25 -70 -25c-30 0 -53.333 8.33301 -70 25s-25 41.667 -25 75zM69.999 250h13c1.33301 -11.333 4.5 -18.833 9.5 -22.5s10.833 -5.5 17.5 -5.5s12.5 1.83301 17.5 5.5s8.16699 11.167 9.5 22.5h13c0 -15.333 -3.66699 -26.666 -11 -33.999
s-17 -11 -29 -11s-21.667 3.66699 -29 11s-11 18.666 -11 33.999zM109.999 255z" />
    <glyph glyph-name="gbreve" unicode="&#x11f;" 
d="M35 16c-10 2.66699 -15 9.33594 -15 20.0029s6.66699 17.667 20 21c-13.333 9.33301 -20 22.166 -20 38.499s5.83301 28.666 17.5 36.999s25 12.5 40 12.5s26.833 -1.66699 35.5 -5c14.667 -3.33301 28.667 -3.33301 42 0v-20h-17c4.66699 -7.33301 7 -17.5 7 -30.5
s-5.83301 -23.667 -17.5 -32s-24 -12.5 -37 -12.5h-35c-10.333 0 -15.5 -2.66699 -15.5 -8s6.66699 -8 20 -8c40 0 66.667 -3.5 80 -10.5s20 -17.167 20 -30.5s-6.66699 -23.5 -20 -30.5s-30.833 -10.5 -52.5 -10.5s-39.167 3.5 -52.5 10.5s-20 16.667 -20 29
s6.66699 22.166 20 29.499zM37 -10.998c0 -9.33301 4.66699 -16.168 14 -20.501s21.5 -6.5 36.5 -6.5s27.167 2.16699 36.5 6.5s14 10.333 14 18s-4.66699 14.334 -14 20.001s-34 8.5 -74 8.5c-8.66699 -8 -13 -16.667 -13 -26zM40 95c0 -10 4.16699 -18.5 12.5 -25.5
s18.333 -10.5 30 -10.5s21.667 3.5 30 10.5s12.5 15.5 12.5 25.5s-4.16699 18.5 -12.5 25.5s-18.333 10.5 -30 10.5s-21.667 -3.5 -30 -10.5s-12.5 -15.5 -12.5 -25.5zM45 210h13c1.33301 -11.333 4.5 -18.833 9.5 -22.5s10.833 -5.5 17.5 -5.5s12.5 1.83301 17.5 5.5
s8.16699 11.167 9.5 22.5h13c0 -15.333 -3.66699 -26.666 -11 -33.999s-17 -11 -29 -11s-21.667 3.66699 -29 11s-11 18.666 -11 33.999zM85 215z" />
    <glyph glyph-name="Gdot" unicode="&#x120;" horiz-adv-x="195" 
d="M15 95c0 33.333 8.33203 58.333 24.999 75s40 25 70 25s53.333 -8.33301 70 -25v-20c-23.333 20 -46.666 30 -69.999 30s-41.333 -7.5 -54 -22.5s-19 -35.833 -19 -62.5s6.33301 -47.5 19 -62.5s30.667 -22.5 54 -22.5c20 0 36.667 6.66699 50 20v52h-50v18h70v-80
c-20 -16.667 -43.333 -25 -70 -25c-30 0 -53.333 8.33301 -70 25s-25 41.667 -25 75zM99.999 205v25h20v-25h-20zM109.999 235z" />
    <glyph glyph-name="gdotaccent" unicode="&#x121;" 
d="M35 16c-10 2.66699 -15 9.33594 -15 20.0029s6.66699 17.667 20 21c-13.333 9.33301 -20 22.166 -20 38.499s5.83301 28.666 17.5 36.999s25 12.5 40 12.5s26.833 -1.66699 35.5 -5c14.667 -3.33301 28.667 -3.33301 42 0v-20h-17c4.66699 -7.33301 7 -17.5 7 -30.5
s-5.83301 -23.667 -17.5 -32s-24 -12.5 -37 -12.5h-35c-10.333 0 -15.5 -2.66699 -15.5 -8s6.66699 -8 20 -8c40 0 66.667 -3.5 80 -10.5s20 -17.167 20 -30.5s-6.66699 -23.5 -20 -30.5s-30.833 -10.5 -52.5 -10.5s-39.167 3.5 -52.5 10.5s-20 16.667 -20 29
s6.66699 22.166 20 29.499zM37 -10.998c0 -9.33301 4.66699 -16.168 14 -20.501s21.5 -6.5 36.5 -6.5s27.167 2.16699 36.5 6.5s14 10.333 14 18s-4.66699 14.334 -14 20.001s-34 8.5 -74 8.5c-8.66699 -8 -13 -16.667 -13 -26zM40 95c0 -10 4.16699 -18.5 12.5 -25.5
s18.333 -10.5 30 -10.5s21.667 3.5 30 10.5s12.5 15.5 12.5 25.5s-4.16699 18.5 -12.5 25.5s-18.333 10.5 -30 10.5s-21.667 -3.5 -30 -10.5s-12.5 -15.5 -12.5 -25.5zM75 165v25h20v-25h-20zM85 195z" />
    <glyph glyph-name="Gcedilla" unicode="&#x122;" horiz-adv-x="195" 
d="M15 95c0 33.333 8.33203 58.333 24.999 75s40 25 70 25s53.333 -8.33301 70 -25v-20c-23.333 20 -46.666 30 -69.999 30s-41.333 -7.5 -54 -22.5s-19 -35.833 -19 -62.5s6.33301 -47.5 19 -62.5s30.667 -22.5 54 -22.5c20 0 36.667 6.66699 50 20v52h-50v18h70v-80
c-20 -16.667 -43.333 -25 -70 -25c-30 0 -53.333 8.33301 -70 25s-25 41.667 -25 75zM84.999 -50v17c10 -3.33301 17 -5 21 -5s7.16699 0.666992 9.5 2s3.5 3.5 3.5 6.5s-1.16699 5.66699 -3.5 8s-7.5 3.5 -15.5 3.5l3 18h17l-1 -10c5.33301 0 9.33301 -1.66699 12 -5
s4 -8.83301 4 -16.5s-2.5 -13.167 -7.5 -16.5s-11.667 -5 -20 -5s-15.833 1 -22.5 3zM109.999 0z" />
    <glyph glyph-name="gcedilla" unicode="&#x123;" 
d="M35 16c-10 2.66699 -15 9.33594 -15 20.0029s6.66699 17.667 20 21c-13.333 9.33301 -20 22.166 -20 38.499s5.83301 28.666 17.5 36.999s25 12.5 40 12.5s26.833 -1.66699 35.5 -5c14.667 -3.33301 28.667 -3.33301 42 0v-20h-17c4.66699 -7.33301 7 -17.5 7 -30.5
s-5.83301 -23.667 -17.5 -32s-24 -12.5 -37 -12.5h-35c-10.333 0 -15.5 -2.66699 -15.5 -8s6.66699 -8 20 -8c40 0 66.667 -3.5 80 -10.5s20 -17.167 20 -30.5s-6.66699 -23.5 -20 -30.5s-30.833 -10.5 -52.5 -10.5s-39.167 3.5 -52.5 10.5s-20 16.667 -20 29
s6.66699 22.166 20 29.499zM37 -10.998c0 -9.33301 4.66699 -16.168 14 -20.501s21.5 -6.5 36.5 -6.5s27.167 2.16699 36.5 6.5s14 10.333 14 18s-4.66699 14.334 -14 20.001s-34 8.5 -74 8.5c-8.66699 -8 -13 -16.667 -13 -26zM40 95c0 -10 4.16699 -18.5 12.5 -25.5
s18.333 -10.5 30 -10.5s21.667 3.5 30 10.5s12.5 15.5 12.5 25.5s-4.16699 18.5 -12.5 25.5s-18.333 10.5 -30 10.5s-21.667 -3.5 -30 -10.5s-12.5 -15.5 -12.5 -25.5zM65 -100v17c10 -3.33301 17 -5 21 -5s7.16699 0.666992 9.5 2s3.5 3.5 3.5 6.5s-1.16699 5.66699 -3.5 8
s-7.5 3.5 -15.5 3.5l3 18h17l-1 -10c5.33301 0 9.33301 -1.66699 12 -5s4 -8.83301 4 -16.5s-2.5 -13.167 -7.5 -16.5s-11.667 -5 -20 -5s-15.833 1 -22.5 3zM90 -50z" />
    <glyph glyph-name="Hcircumflex" unicode="&#x124;" horiz-adv-x="180" 
d="M20 0v190h20v-81h100v81h20v-190h-20v91h-100v-91h-20zM45 205l30 45h30l30 -45h-15l-30 29l-30 -29h-15zM90 255z" />
    <glyph glyph-name="hcircumflex" unicode="&#x125;" horiz-adv-x="155" 
d="M20 0l-0.000976562 200h20v-83c13.333 17.333 28.333 26 45 26s29.167 -3.83301 37.5 -11.5s12.5 -21.5 12.5 -41.5v-90h-20v85c0 13.333 -2.5 23.5 -7.5 30.5s-14.167 10.5 -27.5 10.5s-26.666 -8.66699 -39.999 -26v-100h-20zM39.999 185l30 45h30l30 -45h-15l-30 29
l-30 -29h-15zM84.999 235z" />
    <glyph glyph-name="Hbar" unicode="&#x126;" horiz-adv-x="1479" 
 />
    <glyph glyph-name="hbar" unicode="&#x127;" horiz-adv-x="1139" 
 />
    <glyph glyph-name="Itilde" unicode="&#x128;" horiz-adv-x="110" 
d="M20 0v15h25v160h-25v15h70v-15h-25v-160h25v-15h-70zM5 226c9.33301 12 19.333 18 30 18s18.5 -3 23.5 -9s11.167 -9 18.5 -9s14 4 20 12l8 -10c-9.33301 -12 -19.333 -18 -30 -18s-18.5 3 -23.5 9s-11.167 9 -18.5 9s-14 -4 -20 -12zM55 250z" />
    <glyph glyph-name="itilde" unicode="&#x129;" horiz-adv-x="60" 
d="M20 0v140h20v-140h-20zM-20 186c9.33301 12 19.333 18 30 18s18.5 -3 23.5 -9s11.167 -9 18.5 -9s14 4 20 12l8 -10c-9.33301 -12 -19.333 -18 -30 -18s-18.5 3 -23.5 9s-11.167 9 -18.5 9s-14 -4 -20 -12zM30 210z" />
    <glyph glyph-name="Imacron" unicode="&#x12a;" horiz-adv-x="110" 
d="M20 0v15h25v160h-25v15h70v-15h-25v-160h25v-15h-70zM10 210v16h90v-16h-90zM55 235z" />
    <glyph glyph-name="imacron" unicode="&#x12b;" horiz-adv-x="60" 
d="M20 0v140h20v-140h-20zM-15 170v16h90v-16h-90zM30 195z" />
    <glyph glyph-name="Ibreve" unicode="&#x12c;" horiz-adv-x="110" 
d="M20 0v15h25v160h-25v15h70v-15h-25v-160h25v-15h-70zM15 250h13c1.33301 -11.333 4.5 -18.833 9.5 -22.5s10.833 -5.5 17.5 -5.5s12.5 1.83301 17.5 5.5s8.16699 11.167 9.5 22.5h13c0 -15.333 -3.66699 -26.666 -11 -33.999s-17 -11 -29 -11s-21.667 3.66699 -29 11
s-11 18.666 -11 33.999zM55 255z" />
    <glyph glyph-name="ibreve" unicode="&#x12d;" horiz-adv-x="60" 
d="M20 0v140h20v-140h-20zM-10 210h13c1.33301 -11.333 4.5 -18.833 9.5 -22.5s10.833 -5.5 17.5 -5.5s12.5 1.83301 17.5 5.5s8.16699 11.167 9.5 22.5h13c0 -15.333 -3.66699 -26.666 -11 -33.999s-17 -11 -29 -11s-21.667 3.66699 -29 11s-11 18.666 -11 33.999zM30 215z
" />
    <glyph glyph-name="Iogonek" unicode="&#x12e;" horiz-adv-x="110" 
d="M20 0v15h25v160h-25v15h70v-15h-25v-160h25v-15h-70zM45 -30c0 14.667 12.666 28.667 37.999 42l7 -12c-16.667 -10 -25 -19 -25 -27c0 -5.33301 2.16699 -8 6.5 -8s10.5 1.33301 18.5 4v-17c-6.66699 -3.33301 -14.167 -5 -22.5 -5s-14.166 1.66699 -17.499 5
s-5 9.33301 -5 18zM84.999 0z" />
    <glyph glyph-name="iogonek" unicode="&#x12f;" horiz-adv-x="60" 
d="M20 0v140h20v-140h-20zM20 170v20h20v-20h-20zM-5 -30c0 14.667 12.666 28.667 37.999 42l7 -12c-16.667 -10 -25 -19 -25 -27c0 -5.33301 2.16699 -8 6.5 -8s10.5 1.33301 18.5 4v-17c-6.66699 -3.33301 -14.167 -5 -22.5 -5s-14.166 1.66699 -17.499 5
s-5 9.33301 -5 18zM34.999 0z" />
    <glyph glyph-name="Idot" unicode="&#x130;" horiz-adv-x="110" 
d="M20 0v15h25v160h-25v15h70v-15h-25v-160h25v-15h-70zM45 205v25h20v-25h-20zM55 235z" />
    <glyph glyph-name="dotlessi" unicode="&#x131;" horiz-adv-x="60" 
d="M20 0v140h20v-140h-20zM35 0z" />
    <glyph glyph-name="IJ" unicode="&#x132;" horiz-adv-x="215" 
d="M20 0v15h25v160h-25v15h70v-15h-25v-160h25v-15h-70zM115 5l-0.000976562 17c12 -6.66699 23.667 -10 35 -10c16.667 0 25 9.33301 25 28v135h-35v15h55v-150c0 -13.333 -4.16699 -23.833 -12.5 -31.5s-19.166 -11.5 -32.499 -11.5c-11.333 0 -23 2.66699 -35 8z
M169.999 4z" />
    <glyph glyph-name="ij" unicode="&#x133;" horiz-adv-x="135" 
d="M20 0v140h20v-140h-20zM20 170v20h20v-20h-20zM45 -48l-0.000976562 18c8.66699 -3.33301 17 -5 25 -5c16.667 0 25 12.333 25 37v138h20v-138c0 -20 -4.16699 -33.667 -12.5 -41s-19.166 -11 -32.499 -11c-8 0 -16.333 0.666992 -25 2zM94.999 170v20h20v-20h-20z
M94.999 -41z" />
    <glyph glyph-name="Jcircumflex" unicode="&#x134;" horiz-adv-x="105" 
d="M5 5l-0.000976562 17c12 -6.66699 23.667 -10 35 -10c16.667 0 25 9.33301 25 28v135h-35v15h55v-150c0 -13.333 -4.16699 -23.833 -12.5 -31.5s-19.166 -11.5 -32.499 -11.5c-11.333 0 -23 2.66699 -35 8zM9.99902 205l30 45h30l30 -45h-15l-30 29l-30 -29h-15z
M54.999 255z" />
    <glyph glyph-name="jcircumflex" unicode="&#x135;" horiz-adv-x="75" 
d="M-15 -48l-0.000976562 18c8.66699 -3.33301 17 -5 25 -5c16.667 0 25 12.333 25 37v138h20v-138c0 -20 -4.16699 -33.667 -12.5 -41s-19.166 -11 -32.499 -11c-8 0 -16.333 0.666992 -25 2zM-0.000976562 165l30 45h30l30 -45h-15l-30 29l-30 -29h-15zM44.999 215z" />
    <glyph glyph-name="Kcedilla" unicode="&#x136;" horiz-adv-x="175" 
d="M20 0v190h20v-99l99 99h26l-83 -83l93 -107h-26l-81 93l-28 -28v-65h-20zM65 -55v17c10 -3.33301 17 -5 21 -5s7.16699 0.666992 9.5 2s3.5 3.5 3.5 6.5s-1.16699 5.66699 -3.5 8s-7.5 3.5 -15.5 3.5l3 18h17l-1 -10c5.33301 0 9.33301 -1.66699 12 -5
s4 -8.83301 4 -16.5s-2.5 -13.167 -7.5 -16.5s-11.667 -5 -20 -5s-15.833 1 -22.5 3zM90 -5z" />
    <glyph glyph-name="kcommaaccent" unicode="&#x137;" horiz-adv-x="145" 
d="M20 0v200h20v-126l66 66h27l-56 -56l68 -84h-26l-56 69l-23 -22v-47h-20zM55 -55v17c10 -3.33301 17 -5 21 -5s7.16699 0.666992 9.5 2s3.5 3.5 3.5 6.5s-1.16699 5.66699 -3.5 8s-7.5 3.5 -15.5 3.5l3 18h17l-1 -10c5.33301 0 9.33301 -1.66699 12 -5
s4 -8.83301 4 -16.5s-2.5 -13.167 -7.5 -16.5s-11.667 -5 -20 -5s-15.833 1 -22.5 3zM80 -5z" />
    <glyph glyph-name="kgreenlandic" unicode="&#x138;" horiz-adv-x="1024" 
 />
    <glyph glyph-name="Lacute" unicode="&#x139;" horiz-adv-x="150" 
d="M20 0v190h20v-172h105v-18h-125zM100 250h-25l-25 -45h15zM80 255z" />
    <glyph glyph-name="lacute" unicode="&#x13a;" horiz-adv-x="60" 
d="M20 0v200h20v-200h-20zM60 255h-25l-25 -45h15zM40 260z" />
    <glyph glyph-name="Lcedilla" unicode="&#x13b;" horiz-adv-x="150" 
d="M20 0v190h20v-172h105v-18h-125zM55 -50v17c10 -3.33301 17 -5 21 -5s7.16699 0.666992 9.5 2s3.5 3.5 3.5 6.5s-1.16699 5.66699 -3.5 8s-7.5 3.5 -15.5 3.5l3 18h17l-1 -10c5.33301 0 9.33301 -1.66699 12 -5s4 -8.83301 4 -16.5s-2.5 -13.167 -7.5 -16.5
s-11.667 -5 -20 -5s-15.833 1 -22.5 3zM80 0z" />
    <glyph glyph-name="lcommaaccent" unicode="&#x13c;" horiz-adv-x="60" 
d="M20 0v200h20v-200h-20zM5 -50v17c10 -3.33301 17 -5 21 -5s7.16699 0.666992 9.5 2s3.5 3.5 3.5 6.5s-1.16699 5.66699 -3.5 8s-7.5 3.5 -15.5 3.5l3 18h17l-1 -10c5.33301 0 9.33301 -1.66699 12 -5s4 -8.83301 4 -16.5s-2.5 -13.167 -7.5 -16.5s-11.667 -5 -20 -5
s-15.833 1 -22.5 3zM30 0z" />
    <glyph glyph-name="Lcaron" unicode="&#x13d;" horiz-adv-x="150" 
d="M20 0v190h20v-172h105v-18h-125zM25 250l30 -45h30l30 45h-15l-30 -29l-30 29h-15zM70 245z" />
    <glyph glyph-name="lcaron" unicode="&#x13e;" horiz-adv-x="60" 
d="M20 0v200h20v-200h-20zM-15 255l30 -45h30l30 45h-15l-30 -29l-30 29h-15zM30 250z" />
    <glyph glyph-name="Ldot" unicode="&#x13f;" horiz-adv-x="215" 
d="M20 0v190h20v-172h105v-18h-125zM170 55v30h25v-30h-25z" />
    <glyph glyph-name="ldotaccent" unicode="&#x140;" horiz-adv-x="125" 
d="M20 0v200h20v-200h-20zM80 55v30h25v-30h-25z" />
    <glyph glyph-name="Lslash" unicode="&#x141;" horiz-adv-x="150" 
d="M20 0v190h20v-172h105v-18h-125zM0 50v20l80 65v-20z" />
    <glyph glyph-name="lslash" unicode="&#x142;" horiz-adv-x="60" 
d="M20 0v200h20v-200h-20zM0 50v20l60 50v-20z" />
    <glyph glyph-name="Nacute" unicode="&#x143;" horiz-adv-x="190" 
d="M20 0v190h28l102 -165v165h20v-190h-28l-102 165v-165h-20zM125 250h-25l-25 -45h15zM105 255z" />
    <glyph glyph-name="nacute" unicode="&#x144;" horiz-adv-x="155" 
d="M20 0l-0.000976562 140h20v-23c13.333 17.333 28.333 26 45 26s29.167 -3.83301 37.5 -11.5s12.5 -21.5 12.5 -41.5v-90h-20v85c0 13.333 -2.5 23.5 -7.5 30.5s-14.167 10.5 -27.5 10.5s-26.666 -8.66699 -39.999 -26v-100h-20zM109.999 210h-25l-25 -45h15zM89.999 215z
" />
    <glyph glyph-name="Ncommaaccent" unicode="&#x145;" horiz-adv-x="190" 
d="M20 0v190h28l102 -165v165h20v-190h-28l-102 165v-165h-20zM70 -55v17c10 -3.33301 17 -5 21 -5s7.16699 0.666992 9.5 2s3.5 3.5 3.5 6.5s-1.16699 5.66699 -3.5 8s-7.5 3.5 -15.5 3.5l3 18h17l-1 -10c5.33301 0 9.33301 -1.66699 12 -5s4 -8.83301 4 -16.5
s-2.5 -13.167 -7.5 -16.5s-11.667 -5 -20 -5s-15.833 1 -22.5 3zM95 -5z" />
    <glyph glyph-name="ncommaaccent" unicode="&#x146;" horiz-adv-x="155" 
d="M20 0l-0.000976562 140h20v-23c13.333 17.333 28.333 26 45 26s29.167 -3.83301 37.5 -11.5s12.5 -21.5 12.5 -41.5v-90h-20v85c0 13.333 -2.5 23.5 -7.5 30.5s-14.167 10.5 -27.5 10.5s-26.666 -8.66699 -39.999 -26v-100h-20zM49.999 -55v17c10 -3.33301 17 -5 21 -5
s7.16699 0.666992 9.5 2s3.5 3.5 3.5 6.5s-1.16699 5.66699 -3.5 8s-7.5 3.5 -15.5 3.5l3 18h17l-1 -10c5.33301 0 9.33301 -1.66699 12 -5s4 -8.83301 4 -16.5s-2.5 -13.167 -7.5 -16.5s-11.667 -5 -20 -5s-15.833 1 -22.5 3zM74.999 -5z" />
    <glyph glyph-name="Ncaron" unicode="&#x147;" horiz-adv-x="190" 
d="M20 0v190h28l102 -165v165h20v-190h-28l-102 165v-165h-20zM50 250l30 -45h30l30 45h-15l-30 -29l-30 29h-15zM95 245z" />
    <glyph glyph-name="ncaron" unicode="&#x148;" horiz-adv-x="155" 
d="M20 0l-0.000976562 140h20v-23c13.333 17.333 28.333 26 45 26s29.167 -3.83301 37.5 -11.5s12.5 -21.5 12.5 -41.5v-90h-20v85c0 13.333 -2.5 23.5 -7.5 30.5s-14.167 10.5 -27.5 10.5s-26.666 -8.66699 -39.999 -26v-100h-20zM34.999 210l30 -45h30l30 45h-15l-30 -29
l-30 29h-15zM79.999 205z" />
    <glyph glyph-name="Eng" unicode="&#x14a;" horiz-adv-x="190" 
d="M20 0l-0.000976562 190h28l102 -165v165h20v-190c0 -18.667 -4.16699 -31.667 -12.5 -39s-19.166 -11 -32.499 -11c-8 0 -16.333 0.666992 -25 2v18c8.66699 -3.33301 17 -5 25 -5c25.333 0 31 11.667 17 35l-102 165v-165h-20z" />
    <glyph glyph-name="eng" unicode="&#x14b;" horiz-adv-x="155" 
d="M20 0l-0.00195312 140h20v-23c13.333 17.333 28.333 26 45 26s29.167 -3.83301 37.5 -11.5s12.5 -21.5 12.5 -41.5v-90c0 -18.667 -4.16699 -31.667 -12.5 -39s-19.166 -11 -32.499 -11c-8 0 -16.333 0.666992 -25 2v18c8.66699 -3.33301 17 -5 25 -5
c16.667 0 25 11.667 25 35v85c0 13.333 -2.5 23.5 -7.5 30.5s-14.167 10.5 -27.5 10.5s-26.666 -8.66699 -39.999 -26v-100h-20z" />
    <glyph glyph-name="Omacron" unicode="&#x14c;" horiz-adv-x="205" 
d="M15 95c0 30 7.83301 54.167 23.5 72.5s37 27.5 64 27.5s48.333 -9.16699 64 -27.5s23.5 -42.5 23.5 -72.5s-7.83301 -54.167 -23.5 -72.5s-37 -27.5 -64 -27.5s-48.333 9.16699 -64 27.5s-23.5 42.5 -23.5 72.5zM37 95c0 -23.333 5.83301 -43.333 17.5 -60
s27.667 -25 48 -25s36.333 8.33301 48 25s17.5 36.667 17.5 60s-5.83301 43.333 -17.5 60s-27.667 25 -48 25s-36.333 -8.33301 -48 -25s-17.5 -36.667 -17.5 -60zM58 210v16h90v-16h-90zM103 235z" />
    <glyph glyph-name="omacron" unicode="&#x14d;" horiz-adv-x="165" 
d="M15 70c0 23.333 5.83301 41.666 17.5 54.999s28.334 20 50.001 20s38.334 -6.66699 50.001 -20s17.5 -31.666 17.5 -54.999s-5.83301 -41.666 -17.5 -54.999s-28.334 -20 -50.001 -20s-38.334 6.66699 -50.001 20s-17.5 31.666 -17.5 54.999zM36 70
c0 -16.667 4 -30.834 12 -42.501s19.5 -17.5 34.5 -17.5s26.5 5.83301 34.5 17.5s12 25.834 12 42.501s-4 30.834 -12 42.501s-19.5 17.5 -34.5 17.5s-26.5 -5.83301 -34.5 -17.5s-12 -25.834 -12 -42.501zM38 170v16h90v-16h-90zM83 195z" />
    <glyph glyph-name="Obreve" unicode="&#x14e;" horiz-adv-x="205" 
d="M15 95c0 30 7.83301 54.167 23.5 72.5s37 27.5 64 27.5s48.333 -9.16699 64 -27.5s23.5 -42.5 23.5 -72.5s-7.83301 -54.167 -23.5 -72.5s-37 -27.5 -64 -27.5s-48.333 9.16699 -64 27.5s-23.5 42.5 -23.5 72.5zM37 95c0 -23.333 5.83301 -43.333 17.5 -60
s27.667 -25 48 -25s36.333 8.33301 48 25s17.5 36.667 17.5 60s-5.83301 43.333 -17.5 60s-27.667 25 -48 25s-36.333 -8.33301 -48 -25s-17.5 -36.667 -17.5 -60zM63 250h13c1.33301 -11.333 4.5 -18.833 9.5 -22.5s10.833 -5.5 17.5 -5.5s12.5 1.83301 17.5 5.5
s8.16699 11.167 9.5 22.5h13c0 -15.333 -3.66699 -26.666 -11 -33.999s-17 -11 -29 -11s-21.667 3.66699 -29 11s-11 18.666 -11 33.999zM103 255z" />
    <glyph glyph-name="obreve" unicode="&#x14f;" horiz-adv-x="165" 
d="M15 70c0 23.333 5.83301 41.666 17.5 54.999s28.334 20 50.001 20s38.334 -6.66699 50.001 -20s17.5 -31.666 17.5 -54.999s-5.83301 -41.666 -17.5 -54.999s-28.334 -20 -50.001 -20s-38.334 6.66699 -50.001 20s-17.5 31.666 -17.5 54.999zM36 70
c0 -16.667 4 -30.834 12 -42.501s19.5 -17.5 34.5 -17.5s26.5 5.83301 34.5 17.5s12 25.834 12 42.501s-4 30.834 -12 42.501s-19.5 17.5 -34.5 17.5s-26.5 -5.83301 -34.5 -17.5s-12 -25.834 -12 -42.501zM43 210h13c1.33301 -11.333 4.5 -18.833 9.5 -22.5
s10.833 -5.5 17.5 -5.5s12.5 1.83301 17.5 5.5s8.16699 11.167 9.5 22.5h13c0 -15.333 -3.66699 -26.666 -11 -33.999s-17 -11 -29 -11s-21.667 3.66699 -29 11s-11 18.666 -11 33.999zM83 215z" />
    <glyph glyph-name="Odblacute" unicode="&#x150;" horiz-adv-x="205" 
d="M15 95c0 30 7.83301 54.167 23.5 72.5s37 27.5 64 27.5s48.333 -9.16699 64 -27.5s23.5 -42.5 23.5 -72.5s-7.83301 -54.167 -23.5 -72.5s-37 -27.5 -64 -27.5s-48.333 9.16699 -64 27.5s-23.5 42.5 -23.5 72.5zM37 95c0 -23.333 5.83301 -43.333 17.5 -60
s27.667 -25 48 -25s36.333 8.33301 48 25s17.5 36.667 17.5 60s-5.83301 43.333 -17.5 60s-27.667 25 -48 25s-36.333 -8.33301 -48 -25s-17.5 -36.667 -17.5 -60zM108 250h-25l-25 -45h15zM158 250h-25l-25 -45h15zM103 255z" />
    <glyph glyph-name="odblacute" unicode="&#x151;" horiz-adv-x="165" 
d="M15 70c0 23.333 5.83301 41.666 17.5 54.999s28.334 20 50.001 20s38.334 -6.66699 50.001 -20s17.5 -31.666 17.5 -54.999s-5.83301 -41.666 -17.5 -54.999s-28.334 -20 -50.001 -20s-38.334 6.66699 -50.001 20s-17.5 31.666 -17.5 54.999zM36 70
c0 -16.667 4 -30.834 12 -42.501s19.5 -17.5 34.5 -17.5s26.5 5.83301 34.5 17.5s12 25.834 12 42.501s-4 30.834 -12 42.501s-19.5 17.5 -34.5 17.5s-26.5 -5.83301 -34.5 -17.5s-12 -25.834 -12 -42.501zM88 210h-25l-25 -45h15zM138 210h-25l-25 -45h15zM83 215z" />
    <glyph glyph-name="OE" unicode="&#x152;" horiz-adv-x="280" 
d="M15 95c0 30 7.83301 54.167 23.5 72.5s36.167 27.5 61.5 27.5c20 0 33.333 -1.66699 40 -5h130v-18h-110v-64h90v-18h-90v-72h110v-18h-130c-6.66699 -3.33301 -20 -5 -40 -5c-25.333 0 -45.833 9.16699 -61.5 27.5s-23.5 42.5 -23.5 72.5zM54.5 35
c11.667 -16.667 26 -25 43 -25s31.167 2.66699 42.5 8v154c-11.333 5.33301 -25.5 8 -42.5 8s-31.333 -8.33301 -43 -25s-17.5 -36.667 -17.5 -60s5.83301 -43.333 17.5 -60zM265 0z" />
    <glyph glyph-name="oe" unicode="&#x153;" horiz-adv-x="275" 
d="M37 70c0 -16.667 3.83301 -30.834 11.5 -42.501s19 -17.5 34 -17.5s26.667 5.83301 35 17.5s12.5 25.834 12.5 42.501s-4.16699 30.834 -12.5 42.501s-20 17.5 -35 17.5s-26.333 -5.83301 -34 -17.5s-11.5 -25.834 -11.5 -42.501zM150 81h88.999
c0 12.667 -3.5 24 -10.5 34s-18.167 15 -33.5 15s-26.666 -5 -33.999 -15s-11 -21.333 -11 -34zM14.999 70c0 23.333 5.83301 41.668 17.5 55.001s28.167 20 49.5 20c25.333 0 44.333 -10 57 -30c14 20 32.667 30 56 30c20 0 35.833 -5.83301 47.5 -17.5
s17.5 -32.5 17.5 -62.5h-110c0 -16.667 3.66699 -29.667 11 -39s19.5 -14 36.5 -14s31.833 6 44.5 18l11 -10c-15.333 -16.667 -33.666 -25 -54.999 -25c-28.667 0 -48.334 10 -59.001 30c-12.667 -20 -31.667 -30 -57 -30c-21.333 0 -37.833 6.66699 -49.5 20
s-17.5 31.666 -17.5 54.999zM229.999 8.00195z" />
    <glyph glyph-name="Racute" unicode="&#x154;" horiz-adv-x="175" 
d="M20 0v189.999h45c60 0 90 -17.333 90 -52c0 -15.333 -5 -27.666 -15 -36.999s-22.667 -15.333 -38 -18l68 -83h-25l-65 80h-40v-80h-20zM70 171.999h-30v-74h30c41.333 0 62 12.333 62 37s-20.667 37 -62 37zM115 249.999h-25l-25 -45h15zM95 254.999z" />
    <glyph glyph-name="racute" unicode="&#x155;" horiz-adv-x="100" 
d="M20 0v140h20v-30c13.333 22 33.333 33 60 33v-20c-26.667 0 -46.667 -11 -60 -33v-90h-20zM90 210h-25l-25 -45h15zM70 215z" />
    <glyph glyph-name="Rcommaaccent" unicode="&#x156;" horiz-adv-x="175" 
d="M20 0v189.999h45c60 0 90 -17.333 90 -52c0 -15.333 -5 -27.666 -15 -36.999s-22.667 -15.333 -38 -18l68 -83h-25l-65 80h-40v-80h-20zM70 171.999h-30v-74h30c41.333 0 62 12.333 62 37s-20.667 37 -62 37zM60 -55.001v17c10 -3.33301 17 -5 21 -5
s7.16699 0.666992 9.5 2s3.5 3.5 3.5 6.5s-1.16699 5.66699 -3.5 8s-7.5 3.5 -15.5 3.5l3 18h17l-1 -10c5.33301 0 9.33301 -1.66699 12 -5s4 -8.83301 4 -16.5s-2.5 -13.167 -7.5 -16.5s-11.667 -5 -20 -5s-15.833 1 -22.5 3zM85 -5.00098z" />
    <glyph glyph-name="rcedilla" unicode="&#x157;" horiz-adv-x="100" 
d="M20 0v140h20v-30c13.333 22 33.333 33 60 33v-20c-26.667 0 -46.667 -11 -60 -33v-90h-20zM5 -50v17c10 -3.33301 17 -5 21 -5s7.16699 0.666992 9.5 2s3.5 3.5 3.5 6.5s-1.16699 5.66699 -3.5 8s-7.5 3.5 -15.5 3.5l3 18h17l-1 -10c5.33301 0 9.33301 -1.66699 12 -5
s4 -8.83301 4 -16.5s-2.5 -13.167 -7.5 -16.5s-11.667 -5 -20 -5s-15.833 1 -22.5 3zM30 0z" />
    <glyph glyph-name="Rcaron" unicode="&#x158;" horiz-adv-x="175" 
d="M20 0v189.999h45c60 0 90 -17.333 90 -52c0 -15.333 -5 -27.666 -15 -36.999s-22.667 -15.333 -38 -18l68 -83h-25l-65 80h-40v-80h-20zM70 171.999h-30v-74h30c41.333 0 62 12.333 62 37s-20.667 37 -62 37zM40 249.999l30 -45h30l30 45h-15l-30 -29l-30 29h-15z
M85 244.999z" />
    <glyph glyph-name="rcaron" unicode="&#x159;" horiz-adv-x="100" 
d="M20 0v140h20v-30c13.333 22 33.333 33 60 33v-20c-26.667 0 -46.667 -11 -60 -33v-90h-20zM15 210l30 -45h30l30 45h-15l-30 -29l-30 29h-15zM60 205z" />
    <glyph glyph-name="Sacute" unicode="&#x15a;" 
d="M15 13v19.9971c23.333 -15.333 43.333 -23 60 -23s28.834 3.33301 36.501 10s11.5 16.334 11.5 29.001s-3.5 22 -10.5 28s-21.167 10.333 -42.5 13s-35.833 7.83398 -43.5 15.501s-11.5 20.334 -11.5 38.001s6.16699 30.667 18.5 39s29.5 12.5 51.5 12.5
c18.667 0 37 -6 55 -18v-20c-20 15.333 -38.333 23 -55 23s-28.834 -3.33301 -36.501 -10s-11.5 -15.5 -11.5 -26.5s3.5 -19.5 10.5 -25.5s21.167 -10.333 42.5 -13s35.833 -7.83398 43.5 -15.501s11.5 -21.167 11.5 -40.5s-6.16699 -33.166 -18.5 -41.499
s-29.5 -12.5 -51.5 -12.5c-18.667 0 -38.667 6 -60 18zM115 249.997h-25l-25 -45h15zM95 254.997z" />
    <glyph glyph-name="sacute" unicode="&#x15b;" horiz-adv-x="140" 
d="M15 8v16.9971c16.667 -10 33.334 -15 50.001 -15s27.167 2.5 31.5 7.5s6.5 11.667 6.5 20s-3 14.5 -9 18.5s-16.833 6.83301 -32.5 8.5s-27.334 5.83398 -35.001 12.501s-11.5 15.834 -11.5 27.501s4.5 21.334 13.5 29.001s24.5 11.5 46.5 11.5
c18.667 0 33.667 -4.33301 45 -13v-17c-13.333 10 -28.333 15 -45 15s-27.167 -2.5 -31.5 -7.5s-6.5 -11.667 -6.5 -20s3 -13.833 9 -16.5s16.833 -4.83398 32.5 -6.50098s27.334 -5.66699 35.001 -12s11.5 -16.166 11.5 -29.499s-4.5 -23.833 -13.5 -31.5
s-24.5 -11.5 -46.5 -11.5c-18.667 0 -35.334 4.33301 -50.001 13zM100 209.997h-25l-25 -45h15zM80 214.997z" />
    <glyph glyph-name="Scircumflex" unicode="&#x15c;" 
d="M15 13v19.9971c23.333 -15.333 43.333 -23 60 -23s28.834 3.33301 36.501 10s11.5 16.334 11.5 29.001s-3.5 22 -10.5 28s-21.167 10.333 -42.5 13s-35.833 7.83398 -43.5 15.501s-11.5 20.334 -11.5 38.001s6.16699 30.667 18.5 39s29.5 12.5 51.5 12.5
c18.667 0 37 -6 55 -18v-20c-20 15.333 -38.333 23 -55 23s-28.834 -3.33301 -36.501 -10s-11.5 -15.5 -11.5 -26.5s3.5 -19.5 10.5 -25.5s21.167 -10.333 42.5 -13s35.833 -7.83398 43.5 -15.501s11.5 -21.167 11.5 -40.5s-6.16699 -33.166 -18.5 -41.499
s-29.5 -12.5 -51.5 -12.5c-18.667 0 -38.667 6 -60 18zM40 204.997l30 45h30l30 -45h-15l-30 29l-30 -29h-15zM85 254.997z" />
    <glyph glyph-name="scircumflex" unicode="&#x15d;" horiz-adv-x="140" 
d="M15 8v16.9971c16.667 -10 33.334 -15 50.001 -15s27.167 2.5 31.5 7.5s6.5 11.667 6.5 20s-3 14.5 -9 18.5s-16.833 6.83301 -32.5 8.5s-27.334 5.83398 -35.001 12.501s-11.5 15.834 -11.5 27.501s4.5 21.334 13.5 29.001s24.5 11.5 46.5 11.5
c18.667 0 33.667 -4.33301 45 -13v-17c-13.333 10 -28.333 15 -45 15s-27.167 -2.5 -31.5 -7.5s-6.5 -11.667 -6.5 -20s3 -13.833 9 -16.5s16.833 -4.83398 32.5 -6.50098s27.334 -5.66699 35.001 -12s11.5 -16.166 11.5 -29.499s-4.5 -23.833 -13.5 -31.5
s-24.5 -11.5 -46.5 -11.5c-18.667 0 -35.334 4.33301 -50.001 13zM25 164.997l30 45h30l30 -45h-15l-30 29l-30 -29h-15zM70 214.997z" />
    <glyph glyph-name="Scedilla" unicode="&#x15e;" 
d="M15 13v19.9971c23.333 -15.333 43.333 -23 60 -23s28.834 3.33301 36.501 10s11.5 16.334 11.5 29.001s-3.5 22 -10.5 28s-21.167 10.333 -42.5 13s-35.833 7.83398 -43.5 15.501s-11.5 20.334 -11.5 38.001s6.16699 30.667 18.5 39s29.5 12.5 51.5 12.5
c18.667 0 37 -6 55 -18v-20c-20 15.333 -38.333 23 -55 23s-28.834 -3.33301 -36.501 -10s-11.5 -15.5 -11.5 -26.5s3.5 -19.5 10.5 -25.5s21.167 -10.333 42.5 -13s35.833 -7.83398 43.5 -15.501s11.5 -21.167 11.5 -40.5s-6.16699 -33.166 -18.5 -41.499
s-29.5 -12.5 -51.5 -12.5c-18.667 0 -38.667 6 -60 18zM60 -50.0029v17c10 -3.33301 17 -5 21 -5s7.16699 0.666992 9.5 2s3.5 3.5 3.5 6.5s-1.16699 5.66699 -3.5 8s-7.5 3.5 -15.5 3.5l3 18h17l-1 -10c5.33301 0 9.33301 -1.66699 12 -5s4 -8.83301 4 -16.5
s-2.5 -13.167 -7.5 -16.5s-11.667 -5 -20 -5s-15.833 1 -22.5 3zM85 -0.00292969z" />
    <glyph glyph-name="scedilla" unicode="&#x15f;" horiz-adv-x="140" 
d="M15 8v16.9971c16.667 -10 33.334 -15 50.001 -15s27.167 2.5 31.5 7.5s6.5 11.667 6.5 20s-3 14.5 -9 18.5s-16.833 6.83301 -32.5 8.5s-27.334 5.83398 -35.001 12.501s-11.5 15.834 -11.5 27.501s4.5 21.334 13.5 29.001s24.5 11.5 46.5 11.5
c18.667 0 33.667 -4.33301 45 -13v-17c-13.333 10 -28.333 15 -45 15s-27.167 -2.5 -31.5 -7.5s-6.5 -11.667 -6.5 -20s3 -13.833 9 -16.5s16.833 -4.83398 32.5 -6.50098s27.334 -5.66699 35.001 -12s11.5 -16.166 11.5 -29.499s-4.5 -23.833 -13.5 -31.5
s-24.5 -11.5 -46.5 -11.5c-18.667 0 -35.334 4.33301 -50.001 13zM40 -50.0029v17c10 -3.33301 17 -5 21 -5s7.16699 0.666992 9.5 2s3.5 3.5 3.5 6.5s-1.16699 5.66699 -3.5 8s-7.5 3.5 -15.5 3.5l3 18h17l-1 -10c5.33301 0 9.33301 -1.66699 12 -5s4 -8.83301 4 -16.5
s-2.5 -13.167 -7.5 -16.5s-11.667 -5 -20 -5s-15.833 1 -22.5 3zM65 -0.00292969z" />
    <glyph glyph-name="Scaron" unicode="&#x160;" 
d="M15 13v19.9971c23.333 -15.333 43.333 -23 60 -23s28.834 3.33301 36.501 10s11.5 16.334 11.5 29.001s-3.5 22 -10.5 28s-21.167 10.333 -42.5 13s-35.833 7.83398 -43.5 15.501s-11.5 20.334 -11.5 38.001s6.16699 30.667 18.5 39s29.5 12.5 51.5 12.5
c18.667 0 37 -6 55 -18v-20c-20 15.333 -38.333 23 -55 23s-28.834 -3.33301 -36.501 -10s-11.5 -15.5 -11.5 -26.5s3.5 -19.5 10.5 -25.5s21.167 -10.333 42.5 -13s35.833 -7.83398 43.5 -15.501s11.5 -21.167 11.5 -40.5s-6.16699 -33.166 -18.5 -41.499
s-29.5 -12.5 -51.5 -12.5c-18.667 0 -38.667 6 -60 18zM40 249.997l30 -45h30l30 45h-15l-30 -29l-30 29h-15zM85 244.997z" />
    <glyph glyph-name="scaron" unicode="&#x161;" horiz-adv-x="140" 
d="M15 8v16.9971c16.667 -10 33.334 -15 50.001 -15s27.167 2.5 31.5 7.5s6.5 11.667 6.5 20s-3 14.5 -9 18.5s-16.833 6.83301 -32.5 8.5s-27.334 5.83398 -35.001 12.501s-11.5 15.834 -11.5 27.501s4.5 21.334 13.5 29.001s24.5 11.5 46.5 11.5
c18.667 0 33.667 -4.33301 45 -13v-17c-13.333 10 -28.333 15 -45 15s-27.167 -2.5 -31.5 -7.5s-6.5 -11.667 -6.5 -20s3 -13.833 9 -16.5s16.833 -4.83398 32.5 -6.50098s27.334 -5.66699 35.001 -12s11.5 -16.166 11.5 -29.499s-4.5 -23.833 -13.5 -31.5
s-24.5 -11.5 -46.5 -11.5c-18.667 0 -35.334 4.33301 -50.001 13zM25 209.997l30 -45h30l30 45h-15l-30 -29l-30 29h-15zM70 204.997z" />
    <glyph glyph-name="Tcedilla" unicode="&#x162;" horiz-adv-x="150" 
d="M65 0v172h-65v18h150v-18h-65v-172h-20zM50 -50v17c10 -3.33301 17 -5 21 -5s7.16699 0.666992 9.5 2s3.5 3.5 3.5 6.5s-1.16699 5.66699 -3.5 8s-7.5 3.5 -15.5 3.5l3 18h17l-1 -10c5.33301 0 9.33301 -1.66699 12 -5s4 -8.83301 4 -16.5s-2.5 -13.167 -7.5 -16.5
s-11.667 -5 -20 -5s-15.833 1 -22.5 3zM75 0z" />
    <glyph glyph-name="tcedilla" unicode="&#x163;" horiz-adv-x="100" 
d="M0 122l-0.000976562 18h25v35h20v-35h45v-18h-45v-72c0 -24.667 8.33301 -37 25 -37c8 0 16.333 2.33301 25 7v-20c-8.66699 -2 -17 -3 -25 -3c-13.333 0 -24.166 3.83301 -32.499 11.5s-12.5 21.5 -12.5 41.5v72h-25zM34.999 -50v17c10 -3.33301 17 -5 21 -5
s7.16699 0.666992 9.5 2s3.5 3.5 3.5 6.5s-1.16699 5.66699 -3.5 8s-7.5 3.5 -15.5 3.5l3 18h17l-1 -10c5.33301 0 9.33301 -1.66699 12 -5s4 -8.83301 4 -16.5s-2.5 -13.167 -7.5 -16.5s-11.667 -5 -20 -5s-15.833 1 -22.5 3zM59.999 0z" />
    <glyph glyph-name="Tcaron" unicode="&#x164;" horiz-adv-x="150" 
d="M65 0v172h-65v18h150v-18h-65v-172h-20zM30 250l30 -45h30l30 45h-15l-30 -29l-30 29h-15zM75 245z" />
    <glyph glyph-name="tcaron" unicode="&#x165;" horiz-adv-x="100" 
d="M0 122l-0.000976562 18h25v35h20v-35h45v-18h-45v-72c0 -24.667 8.33301 -37 25 -37c8 0 16.333 2.33301 25 7v-20c-8.66699 -2 -17 -3 -25 -3c-13.333 0 -24.166 3.83301 -32.499 11.5s-12.5 21.5 -12.5 41.5v72h-25zM-0.000976562 235l30 -45h30l30 45h-15l-30 -29
l-30 29h-15zM44.999 230z" />
    <glyph glyph-name="Tbar" unicode="&#x166;" horiz-adv-x="1251" 
 />
    <glyph glyph-name="tbar" unicode="&#x167;" horiz-adv-x="569" 
 />
    <glyph glyph-name="Utilde" unicode="&#x168;" horiz-adv-x="190" 
d="M20 70v120h20v-120c0 -23.333 5.33301 -39.166 16 -47.499s23.667 -12.5 39 -12.5s28.333 4.16699 39 12.5s16 24.166 16 47.499v120h20v-120c0 -26.667 -7 -45.834 -21 -57.501s-32 -17.5 -54 -17.5s-40 5.83301 -54 17.5s-21 30.834 -21 57.501zM45 226
c9.33301 12 19.333 18 30 18s18.5 -3 23.5 -9s11.167 -9 18.5 -9s14 4 20 12l8 -10c-9.33301 -12 -19.333 -18 -30 -18s-18.5 3 -23.5 9s-11.167 9 -18.5 9s-14 -4 -20 -12zM95 250z" />
    <glyph glyph-name="utilde" unicode="&#x169;" horiz-adv-x="155" 
d="M135 140l0.000976562 -140h-20v23c-13.333 -17.333 -28.333 -26 -45 -26s-29.167 3.83301 -37.5 11.5s-12.5 21.5 -12.5 41.5v90h20v-85c0 -13.333 2.5 -23.5 7.5 -30.5s14.167 -10.5 27.5 -10.5s26.666 8.66699 39.999 26v100h20zM30.001 186
c9.33301 12 19.333 18 30 18s18.5 -3 23.5 -9s11.167 -9 18.5 -9s14 4 20 12l8 -10c-9.33301 -12 -19.333 -18 -30 -18s-18.5 3 -23.5 9s-11.167 9 -18.5 9s-14 -4 -20 -12zM80.001 210z" />
    <glyph glyph-name="Umacron" unicode="&#x16a;" horiz-adv-x="190" 
d="M20 70v120h20v-120c0 -23.333 5.33301 -39.166 16 -47.499s23.667 -12.5 39 -12.5s28.333 4.16699 39 12.5s16 24.166 16 47.499v120h20v-120c0 -26.667 -7 -45.834 -21 -57.501s-32 -17.5 -54 -17.5s-40 5.83301 -54 17.5s-21 30.834 -21 57.501zM50 210v16h90v-16h-90z
M95 235z" />
    <glyph glyph-name="umacron" unicode="&#x16b;" horiz-adv-x="155" 
d="M135 140l0.000976562 -140h-20v23c-13.333 -17.333 -28.333 -26 -45 -26s-29.167 3.83301 -37.5 11.5s-12.5 21.5 -12.5 41.5v90h20v-85c0 -13.333 2.5 -23.5 7.5 -30.5s14.167 -10.5 27.5 -10.5s26.666 8.66699 39.999 26v100h20zM35.001 170v16h90v-16h-90zM80.001 195
z" />
    <glyph glyph-name="Ubreve" unicode="&#x16c;" horiz-adv-x="190" 
d="M20 70v120h20v-120c0 -23.333 5.33301 -39.166 16 -47.499s23.667 -12.5 39 -12.5s28.333 4.16699 39 12.5s16 24.166 16 47.499v120h20v-120c0 -26.667 -7 -45.834 -21 -57.501s-32 -17.5 -54 -17.5s-40 5.83301 -54 17.5s-21 30.834 -21 57.501zM55 250h13
c1.33301 -11.333 4.5 -18.833 9.5 -22.5s10.833 -5.5 17.5 -5.5s12.5 1.83301 17.5 5.5s8.16699 11.167 9.5 22.5h13c0 -15.333 -3.66699 -26.666 -11 -33.999s-17 -11 -29 -11s-21.667 3.66699 -29 11s-11 18.666 -11 33.999zM95 255z" />
    <glyph glyph-name="ubreve" unicode="&#x16d;" horiz-adv-x="155" 
d="M135 140l0.000976562 -140h-20v23c-13.333 -17.333 -28.333 -26 -45 -26s-29.167 3.83301 -37.5 11.5s-12.5 21.5 -12.5 41.5v90h20v-85c0 -13.333 2.5 -23.5 7.5 -30.5s14.167 -10.5 27.5 -10.5s26.666 8.66699 39.999 26v100h20zM40.001 210h13
c1.33301 -11.333 4.5 -18.833 9.5 -22.5s10.833 -5.5 17.5 -5.5s12.5 1.83301 17.5 5.5s8.16699 11.167 9.5 22.5h13c0 -15.333 -3.66699 -26.666 -11 -33.999s-17 -11 -29 -11s-21.667 3.66699 -29 11s-11 18.666 -11 33.999zM80.001 215z" />
    <glyph glyph-name="Uring" unicode="&#x16e;" horiz-adv-x="190" 
d="M20 70v120h20v-120c0 -23.333 5.33301 -39.166 16 -47.499s23.667 -12.5 39 -12.5s28.333 4.16699 39 12.5s16 24.166 16 47.499v120h20v-120c0 -26.667 -7 -45.834 -21 -57.501s-32 -17.5 -54 -17.5s-40 5.83301 -54 17.5s-21 30.834 -21 57.501zM65 225
c0 8.66699 2.83301 15.834 8.5 21.501s12.834 8.5 21.501 8.5s15.834 -2.83301 21.501 -8.5s8.5 -12.834 8.5 -21.501s-2.83301 -15.834 -8.5 -21.501s-12.834 -8.5 -21.501 -8.5s-15.834 2.83301 -21.501 8.5s-8.5 12.834 -8.5 21.501zM95 210
c4.66699 0 8.33398 1.33301 11.001 4s4 6.33398 4 11.001s-1.33301 8.33398 -4 11.001s-6.33398 4 -11.001 4s-8.33398 -1.33301 -11.001 -4s-4 -6.33398 -4 -11.001s1.33301 -8.33398 4 -11.001s6.33398 -4 11.001 -4zM95 255z" />
    <glyph glyph-name="uring" unicode="&#x16f;" horiz-adv-x="155" 
d="M135 140l0.000976562 -140h-20v23c-13.333 -17.333 -28.333 -26 -45 -26s-29.167 3.83301 -37.5 11.5s-12.5 21.5 -12.5 41.5v90h20v-85c0 -13.333 2.5 -23.5 7.5 -30.5s14.167 -10.5 27.5 -10.5s26.666 8.66699 39.999 26v100h20zM50.001 185
c0 8.66699 2.83301 15.834 8.5 21.501s12.834 8.5 21.501 8.5s15.834 -2.83301 21.501 -8.5s8.5 -12.834 8.5 -21.501s-2.83301 -15.834 -8.5 -21.501s-12.834 -8.5 -21.501 -8.5s-15.834 2.83301 -21.501 8.5s-8.5 12.834 -8.5 21.501zM80.001 170
c4.66699 0 8.33398 1.33301 11.001 4s4 6.33398 4 11.001s-1.33301 8.33398 -4 11.001s-6.33398 4 -11.001 4s-8.33398 -1.33301 -11.001 -4s-4 -6.33398 -4 -11.001s1.33301 -8.33398 4 -11.001s6.33398 -4 11.001 -4zM80.001 215z" />
    <glyph glyph-name="Uhungarumlaut" unicode="&#x170;" horiz-adv-x="190" 
d="M20 70v120h20v-120c0 -23.333 5.33301 -39.166 16 -47.499s23.667 -12.5 39 -12.5s28.333 4.16699 39 12.5s16 24.166 16 47.499v120h20v-120c0 -26.667 -7 -45.834 -21 -57.501s-32 -17.5 -54 -17.5s-40 5.83301 -54 17.5s-21 30.834 -21 57.501zM100 250h-25l-25 -45
h15zM150 250h-25l-25 -45h15zM95 255z" />
    <glyph glyph-name="udblacute" unicode="&#x171;" horiz-adv-x="155" 
d="M135 140l0.000976562 -140h-20v23c-13.333 -17.333 -28.333 -26 -45 -26s-29.167 3.83301 -37.5 11.5s-12.5 21.5 -12.5 41.5v90h20v-85c0 -13.333 2.5 -23.5 7.5 -30.5s14.167 -10.5 27.5 -10.5s26.666 8.66699 39.999 26v100h20zM85.001 210h-25l-25 -45h15z
M135.001 210h-25l-25 -45h15zM80.001 215z" />
    <glyph glyph-name="Uogonek" unicode="&#x172;" horiz-adv-x="190" 
d="M20 70v120h20v-120c0 -23.333 5.33301 -39.166 16 -47.499s23.667 -12.5 39 -12.5s28.333 4.16699 39 12.5s16 24.166 16 47.499v120h20v-120c0 -26.667 -7 -45.834 -21 -57.501s-32 -17.5 -54 -17.5s-40 5.83301 -54 17.5s-21 30.834 -21 57.501zM95 -23
c0 14.667 12.666 28.667 37.999 42l7 -12c-16.667 -10 -25 -19 -25 -27c0 -5.33301 2.16699 -8 6.5 -8s10.5 1.33301 18.5 4v-17c-6.66699 -3.33301 -14.167 -5 -22.5 -5s-14.166 1.66699 -17.499 5s-5 9.33301 -5 18zM134.999 7z" />
    <glyph glyph-name="uogonek" unicode="&#x173;" horiz-adv-x="155" 
d="M135 140l0.000976562 -140h-20v23c-13.333 -17.333 -28.333 -26 -45 -26s-29.167 3.83301 -37.5 11.5s-12.5 21.5 -12.5 41.5v90h20v-85c0 -13.333 2.5 -23.5 7.5 -30.5s14.167 -10.5 27.5 -10.5s26.666 8.66699 39.999 26v100h20zM90.001 -30
c0 14.667 12.666 28.667 37.999 42l7 -12c-16.667 -10 -25 -19 -25 -27c0 -5.33301 2.16699 -8 6.5 -8s10.5 1.33301 18.5 4v-17c-6.66699 -3.33301 -14.167 -5 -22.5 -5s-14.166 1.66699 -17.499 5s-5 9.33301 -5 18zM130 0z" />
    <glyph glyph-name="Wcircumflex" unicode="&#x174;" horiz-adv-x="240" 
d="M10 190h20l36 -171l44 156h20l44 -156l36 171h20l-40 -190h-30l-40 142l-40 -142h-30zM75 205l30 45h30l30 -45h-15l-30 29l-30 -29h-15zM120 255z" />
    <glyph glyph-name="wcircumflex" unicode="&#x175;" horiz-adv-x="200" 
d="M5 140h19l30 -120l38 120h16l38 -120l30 120h19l-35 -140h-25l-35 110l-35 -110h-25zM60 165l30 45h30l30 -45h-15l-30 29l-30 -29h-15zM105 215z" />
    <glyph glyph-name="Ycircumflex" unicode="&#x176;" horiz-adv-x="170" 
d="M0 190h24l61 -82l61 82h24l-75 -100v-90h-20v90zM40 205l30 45h30l30 -45h-15l-30 29l-30 -29h-15zM85 255z" />
    <glyph glyph-name="ycircumflex" unicode="&#x177;" horiz-adv-x="130" 
d="M0 140h21l45 -104l43 104h21l-80 -190h-21l27 62zM20 165l30 45h30l30 -45h-15l-30 29l-30 -29h-15zM65 215z" />
    <glyph glyph-name="Ydieresis" unicode="&#x178;" horiz-adv-x="170" 
d="M0 190h24l61 -82l61 82h24l-75 -100v-90h-20v90zM45 205v20h20v-20h-20zM105 205v20h20v-20h-20zM85 230z" />
    <glyph glyph-name="Zacute" unicode="&#x179;" 
d="M10 0v28l122 144h-122v18h140v-28l-122 -144h122v-18h-140zM110 250h-25l-25 -45h15zM90 255z" />
    <glyph glyph-name="zacute" unicode="&#x17a;" horiz-adv-x="145" 
d="M10 0v28l106 94h-106v18h125v-28l-106 -94h106v-18h-125zM100 210h-25l-25 -45h15zM80 215z" />
    <glyph glyph-name="Zdotaccent" unicode="&#x17b;" 
d="M10 0v28l122 144h-122v18h140v-28l-122 -144h122v-18h-140zM70 205v25h20v-25h-20zM80 235z" />
    <glyph glyph-name="zdot" unicode="&#x17c;" horiz-adv-x="145" 
d="M10 0v28l106 94h-106v18h125v-28l-106 -94h106v-18h-125zM60 165v25h20v-25h-20zM70 195z" />
    <glyph glyph-name="Zcaron" unicode="&#x17d;" 
d="M10 0v28l122 144h-122v18h140v-28l-122 -144h122v-18h-140zM35 250l30 -45h30l30 45h-15l-30 -29l-30 29h-15zM80 245z" />
    <glyph glyph-name="zcaron" unicode="&#x17e;" horiz-adv-x="145" 
d="M10 0v28l106 94h-106v18h125v-28l-106 -94h106v-18h-125zM25 210l30 -45h30l30 45h-15l-30 -29l-30 29h-15zM70 205z" />
    <glyph glyph-name="longs" unicode="&#x17f;" horiz-adv-x="455" 
 />
    <glyph glyph-name="florin" unicode="&#x192;" horiz-adv-x="150" 
d="M30 0l0.000976562 122h-25v18h25v10c0 16.667 4.16699 29.167 12.5 37.5s19.166 12.5 32.499 12.5c8 0 16.333 -1.66699 25 -5v-20c-8.66699 5.33301 -17 8 -25 8c-16.667 0 -25 -11 -25 -33v-10h40v-18h-40v-122h-20zM110.001 0v200h20v-200h-20zM125.001 0z" />
    <glyph glyph-name="Ohorn" unicode="&#x1a0;" horiz-adv-x="205" 
d="M15 95c0 30 7.83301 54.167 23.5 72.5s37 27.5 64 27.5s48.333 -9.16699 64 -27.5s23.5 -42.5 23.5 -72.5s-7.83301 -54.167 -23.5 -72.5s-37 -27.5 -64 -27.5s-48.333 9.16699 -64 27.5s-23.5 42.5 -23.5 72.5zM37 95c0 -23.333 5.83301 -43.333 17.5 -60
s27.667 -25 48 -25s36.333 8.33301 48 25s17.5 36.667 17.5 60s-5.83301 43.333 -17.5 60s-27.667 25 -48 25s-36.333 -8.33301 -48 -25s-17.5 -36.667 -17.5 -60zM155 160l0.00195312 15c13.333 0 21.666 2.16699 24.999 6.5s5 11.5 5 21.5v10h15v-10
c0 -16.667 -3.33301 -28 -10 -34s-18.334 -9 -35.001 -9zM155.002 165z" />
    <glyph glyph-name="ohorn" unicode="&#x1a1;" horiz-adv-x="165" 
d="M15 70c0 23.333 5.83301 41.666 17.5 54.999s28.334 20 50.001 20s38.334 -6.66699 50.001 -20s17.5 -31.666 17.5 -54.999s-5.83301 -41.666 -17.5 -54.999s-28.334 -20 -50.001 -20s-38.334 6.66699 -50.001 20s-17.5 31.666 -17.5 54.999zM36 70
c0 -16.667 4 -30.834 12 -42.501s19.5 -17.5 34.5 -17.5s26.5 5.83301 34.5 17.5s12 25.834 12 42.501s-4 30.834 -12 42.501s-19.5 17.5 -34.5 17.5s-26.5 -5.83301 -34.5 -17.5s-12 -25.834 -12 -42.501zM120 115l0.00195312 15c13.333 0 21.666 2.16699 24.999 6.5
s5 11.5 5 21.5v10h15v-10c0 -16.667 -3.33301 -28 -10 -34s-18.334 -9 -35.001 -9zM120.002 120z" />
    <glyph glyph-name="Uhorn" unicode="&#x1af;" horiz-adv-x="190" 
d="M20 70v120h20v-120c0 -23.333 5.33301 -39.166 16 -47.499s23.667 -12.5 39 -12.5s28.333 4.16699 39 12.5s16 24.166 16 47.499v120h20v-120c0 -26.667 -7 -45.834 -21 -57.501s-32 -17.5 -54 -17.5s-40 5.83301 -54 17.5s-21 30.834 -21 57.501zM160 175l0.00195312 15
c13.333 0 21.666 2.16699 24.999 6.5s5 11.5 5 21.5v10h15v-10c0 -16.667 -3.33301 -28 -10 -34s-18.334 -9 -35.001 -9zM160.002 180z" />
    <glyph glyph-name="uhorn" unicode="&#x1b0;" horiz-adv-x="155" 
d="M135 140l0.000976562 -140h-20v23c-13.333 -17.333 -28.333 -26 -45 -26s-29.167 3.83301 -37.5 11.5s-12.5 21.5 -12.5 41.5v90h20v-85c0 -13.333 2.5 -23.5 7.5 -30.5s14.167 -10.5 27.5 -10.5s26.666 8.66699 39.999 26v100h20zM125.001 125l0.00195312 15
c13.333 0 21.666 2.16699 24.999 6.5s5 11.5 5 21.5v10h15v-10c0 -16.667 -3.33301 -28 -10 -34s-18.334 -9 -35.001 -9zM125.003 130z" />
    <glyph glyph-name="DZcaron" unicode="&#x1c4;" horiz-adv-x="345" 
d="M20 0v190h40c73.333 0 110 -31.667 110 -95s-35 -95 -105 -95h-45zM40 18h30c52 0 78 25.667 78 77s-27.667 77 -83 77h-25v-154zM195 0v28l122 144h-122v18h140v-28l-122 -144h122v-18h-140zM220 250l30 -45h30l30 45h-15l-30 -29l-30 29h-15zM265 245z" />
    <glyph glyph-name="Dzcaron" unicode="&#x1c5;" horiz-adv-x="330" 
d="M20 0v190h40c73.333 0 110 -31.667 110 -95s-35 -95 -105 -95h-45zM40 18h30c52 0 78 25.667 78 77s-27.667 77 -83 77h-25v-154zM195 0v28l106 94h-106v18h125v-28l-106 -94h106v-18h-125zM210 210l30 -45h30l30 45h-15l-30 -29l-30 29h-15zM255 205z" />
    <glyph glyph-name="dzcaron" unicode="&#x1c6;" horiz-adv-x="305" 
d="M140 0v200h-20v-70c-13.333 8.66699 -29.166 13 -47.499 13s-32.5 -6.33301 -42.5 -19s-15 -30.667 -15 -54s5 -41.333 15 -54s24.167 -19 42.5 -19s34.166 4.33301 47.499 13v-10h20zM120 25c-12 -8.66699 -25.833 -13 -41.5 -13s-26.5 5.5 -32.5 16.5
s-9 24.833 -9 41.5s3 30.5 9 41.5s16.833 16.5 32.5 16.5s29.5 -4.33301 41.5 -13v-90zM170 0v28l106 94h-106v18h125v-28l-106 -94h106v-18h-125zM185 210l30 -45h30l30 45h-15l-30 -29l-30 29h-15zM230 205z" />
    <glyph glyph-name="LJ" unicode="&#x1c7;" horiz-adv-x="255" 
d="M20 0v190h20v-172h105v-18h-125zM155 5l-0.000976562 17c12 -6.66699 23.667 -10 35 -10c16.667 0 25 9.33301 25 28v135h-35v15h55v-150c0 -13.333 -4.16699 -23.833 -12.5 -31.5s-19.166 -11.5 -32.499 -11.5c-11.333 0 -23 2.66699 -35 8zM209.999 4z" />
    <glyph glyph-name="Lj" unicode="&#x1c8;" horiz-adv-x="225" 
d="M20 0v190h20v-172h105v-18h-125zM135 -48l-0.000976562 18c8.66699 -3.33301 17 -5 25 -5c16.667 0 25 12.333 25 37v138h20v-138c0 -20 -4.16699 -33.667 -12.5 -41s-19.166 -11 -32.499 -11c-8 0 -16.333 0.666992 -25 2zM184.999 170v20h20v-20h-20zM184.999 -41z" />
    <glyph glyph-name="lj" unicode="&#x1c9;" horiz-adv-x="135" 
d="M20 0v200h20v-200h-20zM45 -48l-0.000976562 18c8.66699 -3.33301 17 -5 25 -5c16.667 0 25 12.333 25 37v138h20v-138c0 -20 -4.16699 -33.667 -12.5 -41s-19.166 -11 -32.499 -11c-8 0 -16.333 0.666992 -25 2zM94.999 170v20h20v-20h-20zM94.999 -41z" />
    <glyph glyph-name="NJ" unicode="&#x1ca;" horiz-adv-x="295" 
d="M20 0v190h28l102 -165v165h20v-190h-28l-102 165v-165h-20zM195 5l-0.000976562 17c12 -6.66699 23.667 -10 35 -10c16.667 0 25 9.33301 25 28v135h-35v15h55v-150c0 -13.333 -4.16699 -23.833 -12.5 -31.5s-19.166 -11.5 -32.499 -11.5c-11.333 0 -23 2.66699 -35 8z
M249.999 4z" />
    <glyph glyph-name="Nj" unicode="&#x1cb;" horiz-adv-x="265" 
d="M20 0v190h28l102 -165v165h20v-190h-28l-102 165v-165h-20zM175 -48l-0.000976562 18c8.66699 -3.33301 17 -5 25 -5c16.667 0 25 12.333 25 37v138h20v-138c0 -20 -4.16699 -33.667 -12.5 -41s-19.166 -11 -32.499 -11c-8 0 -16.333 0.666992 -25 2zM224.999 170v20h20
v-20h-20zM224.999 -41z" />
    <glyph glyph-name="nj" unicode="&#x1cc;" horiz-adv-x="230" 
d="M20 0l-0.000976562 140h20v-23c13.333 17.333 28.333 26 45 26s29.167 -3.83301 37.5 -11.5s12.5 -21.5 12.5 -41.5v-90h-20v85c0 13.333 -2.5 23.5 -7.5 30.5s-14.167 10.5 -27.5 10.5s-26.666 -8.66699 -39.999 -26v-100h-20zM139.999 -48l-0.000976562 18
c8.66699 -3.33301 17 -5 25 -5c16.667 0 25 12.333 25 37v138h20v-138c0 -20 -4.16699 -33.667 -12.5 -41s-19.166 -11 -32.499 -11c-8 0 -16.333 0.666992 -25 2zM189.998 170v20h20v-20h-20zM189.998 -41z" />
    <glyph glyph-name="Acaron" unicode="&#x1cd;" horiz-adv-x="180" 
d="M5 0l70 190h30l70 -190h-21l-22 61h-84l-22 -61h-21zM54 79h71l-35 96zM45 250l30 -45h30l30 45h-15l-30 -29l-30 29h-15zM90 245z" />
    <glyph glyph-name="acaron" unicode="&#x1ce;" horiz-adv-x="150" 
d="M15 40c0 20 9.16699 33.333 27.5 40s40.833 10 67.5 10c0 13.333 -2.5 23 -7.5 29s-15.833 9 -32.5 9s-30 -2.66699 -40 -8l-5 15c14.667 5.33301 29.667 8 45 8c22 0 37.5 -3.83301 46.5 -11.5s13.5 -21.5 13.5 -41.5v-90h-20v15c-13.333 -12 -28.333 -18 -45 -18
s-29.167 3.83301 -37.5 11.5s-12.5 18.167 -12.5 31.5zM43.5 21c4.33301 -6 13.167 -9 26.5 -9c10 0 23.333 6 40 18v44c-26.667 0 -45.5 -2.33301 -56.5 -7s-16.5 -13 -16.5 -25c0 -8 2.16699 -15 6.5 -21zM30.001 210l30 -45h30l30 45h-15l-30 -29l-30 29h-15zM75.001 205
z" />
    <glyph glyph-name="Icaron" unicode="&#x1cf;" horiz-adv-x="110" 
d="M20 0v15h25v160h-25v15h70v-15h-25v-160h25v-15h-70zM10 250l30 -45h30l30 45h-15l-30 -29l-30 29h-15zM55 245z" />
    <glyph glyph-name="icaron" unicode="&#x1d0;" horiz-adv-x="60" 
d="M20 0v140h20v-140h-20zM-15 210l30 -45h30l30 45h-15l-30 -29l-30 29h-15zM30 205z" />
    <glyph glyph-name="Ocaron" unicode="&#x1d1;" horiz-adv-x="205" 
d="M15 95c0 30 7.83301 54.167 23.5 72.5s37 27.5 64 27.5s48.333 -9.16699 64 -27.5s23.5 -42.5 23.5 -72.5s-7.83301 -54.167 -23.5 -72.5s-37 -27.5 -64 -27.5s-48.333 9.16699 -64 27.5s-23.5 42.5 -23.5 72.5zM37 95c0 -23.333 5.83301 -43.333 17.5 -60
s27.667 -25 48 -25s36.333 8.33301 48 25s17.5 36.667 17.5 60s-5.83301 43.333 -17.5 60s-27.667 25 -48 25s-36.333 -8.33301 -48 -25s-17.5 -36.667 -17.5 -60zM58 250l30 -45h30l30 45h-15l-30 -29l-30 29h-15zM103 245z" />
    <glyph glyph-name="ocaron" unicode="&#x1d2;" horiz-adv-x="165" 
d="M15 70c0 23.333 5.83301 41.666 17.5 54.999s28.334 20 50.001 20s38.334 -6.66699 50.001 -20s17.5 -31.666 17.5 -54.999s-5.83301 -41.666 -17.5 -54.999s-28.334 -20 -50.001 -20s-38.334 6.66699 -50.001 20s-17.5 31.666 -17.5 54.999zM36 70
c0 -16.667 4 -30.834 12 -42.501s19.5 -17.5 34.5 -17.5s26.5 5.83301 34.5 17.5s12 25.834 12 42.501s-4 30.834 -12 42.501s-19.5 17.5 -34.5 17.5s-26.5 -5.83301 -34.5 -17.5s-12 -25.834 -12 -42.501zM38 210l30 -45h30l30 45h-15l-30 -29l-30 29h-15zM83 205z" />
    <glyph glyph-name="Ucaron" unicode="&#x1d3;" horiz-adv-x="190" 
d="M20 70v120h20v-120c0 -23.333 5.33301 -39.166 16 -47.499s23.667 -12.5 39 -12.5s28.333 4.16699 39 12.5s16 24.166 16 47.499v120h20v-120c0 -26.667 -7 -45.834 -21 -57.501s-32 -17.5 -54 -17.5s-40 5.83301 -54 17.5s-21 30.834 -21 57.501zM50 250l30 -45h30
l30 45h-15l-30 -29l-30 29h-15zM95 245z" />
    <glyph glyph-name="ucaron" unicode="&#x1d4;" horiz-adv-x="155" 
d="M135 140l0.000976562 -140h-20v23c-13.333 -17.333 -28.333 -26 -45 -26s-29.167 3.83301 -37.5 11.5s-12.5 21.5 -12.5 41.5v90h20v-85c0 -13.333 2.5 -23.5 7.5 -30.5s14.167 -10.5 27.5 -10.5s26.666 8.66699 39.999 26v100h20zM35.001 210l30 -45h30l30 45h-15
l-30 -29l-30 29h-15zM80.001 205z" />
    <glyph glyph-name="Udieresismacron" unicode="&#x1d5;" horiz-adv-x="190" 
d="M20 70v120h20v-120c0 -23.333 5.33301 -39.166 16 -47.499s23.667 -12.5 39 -12.5s28.333 4.16699 39 12.5s16 24.166 16 47.499v120h20v-120c0 -26.667 -7 -45.834 -21 -57.501s-32 -17.5 -54 -17.5s-40 5.83301 -54 17.5s-21 30.834 -21 57.501zM55 205v20h20v-20h-20z
M115 205v20h20v-20h-20zM50 240v16h90v-16h-90zM95 265z" />
    <glyph glyph-name="udieresismacron" unicode="&#x1d6;" horiz-adv-x="155" 
d="M135 140l0.000976562 -140h-20v23c-13.333 -17.333 -28.333 -26 -45 -26s-29.167 3.83301 -37.5 11.5s-12.5 21.5 -12.5 41.5v90h20v-85c0 -13.333 2.5 -23.5 7.5 -30.5s14.167 -10.5 27.5 -10.5s26.666 8.66699 39.999 26v100h20zM40.001 165v20h20v-20h-20z
M100.001 165v20h20v-20h-20zM35.001 200v16h90v-16h-90zM80.001 225z" />
    <glyph glyph-name="Udieresisacute" unicode="&#x1d7;" horiz-adv-x="190" 
d="M20 70v120h20v-120c0 -23.333 5.33301 -39.166 16 -47.499s23.667 -12.5 39 -12.5s28.333 4.16699 39 12.5s16 24.166 16 47.499v120h20v-120c0 -26.667 -7 -45.834 -21 -57.501s-32 -17.5 -54 -17.5s-40 5.83301 -54 17.5s-21 30.834 -21 57.501zM55 205v20h20v-20h-20z
M115 205v20h20v-20h-20zM125 280h-25l-25 -45h15zM105 285z" />
    <glyph glyph-name="udieresisacute" unicode="&#x1d8;" horiz-adv-x="155" 
d="M135 140l0.000976562 -140h-20v23c-13.333 -17.333 -28.333 -26 -45 -26s-29.167 3.83301 -37.5 11.5s-12.5 21.5 -12.5 41.5v90h20v-85c0 -13.333 2.5 -23.5 7.5 -30.5s14.167 -10.5 27.5 -10.5s26.666 8.66699 39.999 26v100h20zM40.001 165v20h20v-20h-20z
M100.001 165v20h20v-20h-20zM110.001 240h-25l-25 -45h15zM90.001 245z" />
    <glyph glyph-name="Udieresiscaron" unicode="&#x1d9;" horiz-adv-x="190" 
d="M20 70v120h20v-120c0 -23.333 5.33301 -39.166 16 -47.499s23.667 -12.5 39 -12.5s28.333 4.16699 39 12.5s16 24.166 16 47.499v120h20v-120c0 -26.667 -7 -45.834 -21 -57.501s-32 -17.5 -54 -17.5s-40 5.83301 -54 17.5s-21 30.834 -21 57.501zM55 205v20h20v-20h-20z
M115 205v20h20v-20h-20zM50 280l30 -45h30l30 45h-15l-30 -29l-30 29h-15zM95 275z" />
    <glyph glyph-name="udieresiscaron" unicode="&#x1da;" horiz-adv-x="155" 
d="M135 140l0.000976562 -140h-20v23c-13.333 -17.333 -28.333 -26 -45 -26s-29.167 3.83301 -37.5 11.5s-12.5 21.5 -12.5 41.5v90h20v-85c0 -13.333 2.5 -23.5 7.5 -30.5s14.167 -10.5 27.5 -10.5s26.666 8.66699 39.999 26v100h20zM40.001 165v20h20v-20h-20z
M100.001 165v20h20v-20h-20zM35.001 240l30 -45h30l30 45h-15l-30 -29l-30 29h-15zM80.001 235z" />
    <glyph glyph-name="Udieresisgrave" unicode="&#x1db;" horiz-adv-x="190" 
d="M20 70v120h20v-120c0 -23.333 5.33301 -39.166 16 -47.499s23.667 -12.5 39 -12.5s28.333 4.16699 39 12.5s16 24.166 16 47.499v120h20v-120c0 -26.667 -7 -45.834 -21 -57.501s-32 -17.5 -54 -17.5s-40 5.83301 -54 17.5s-21 30.834 -21 57.501zM55 205v20h20v-20h-20z
M115 205v20h20v-20h-20zM65 280h25l25 -45h-15zM85 285z" />
    <glyph glyph-name="udieresisgrave" unicode="&#x1dc;" horiz-adv-x="155" 
d="M135 140l0.000976562 -140h-20v23c-13.333 -17.333 -28.333 -26 -45 -26s-29.167 3.83301 -37.5 11.5s-12.5 21.5 -12.5 41.5v90h20v-85c0 -13.333 2.5 -23.5 7.5 -30.5s14.167 -10.5 27.5 -10.5s26.666 8.66699 39.999 26v100h20zM40.001 165v20h20v-20h-20z
M100.001 165v20h20v-20h-20zM50.001 240h25l25 -45h-15zM70.001 245z" />
    <glyph glyph-name="Adieresismacron" unicode="&#x1de;" horiz-adv-x="180" 
d="M5 0l70 190h30l70 -190h-21l-22 61h-84l-22 -61h-21zM54 79h71l-35 96zM50 205v20h20v-20h-20zM110 205v20h20v-20h-20zM45 240v16h90v-16h-90zM90 265z" />
    <glyph glyph-name="adieresismacron" unicode="&#x1df;" horiz-adv-x="150" 
d="M15 40c0 20 9.16699 33.333 27.5 40s40.833 10 67.5 10c0 13.333 -2.5 23 -7.5 29s-15.833 9 -32.5 9s-30 -2.66699 -40 -8l-5 15c14.667 5.33301 29.667 8 45 8c22 0 37.5 -3.83301 46.5 -11.5s13.5 -21.5 13.5 -41.5v-90h-20v15c-13.333 -12 -28.333 -18 -45 -18
s-29.167 3.83301 -37.5 11.5s-12.5 18.167 -12.5 31.5zM43.5 21c4.33301 -6 13.167 -9 26.5 -9c10 0 23.333 6 40 18v44c-26.667 0 -45.5 -2.33301 -56.5 -7s-16.5 -13 -16.5 -25c0 -8 2.16699 -15 6.5 -21zM35.001 165v20h20v-20h-20zM95.001 165v20h20v-20h-20z
M30.001 200v16h90v-16h-90zM75.001 225z" />
    <glyph glyph-name="Adotmacron" unicode="&#x1e0;" horiz-adv-x="180" 
d="M5 0l70 190h30l70 -190h-21l-22 61h-84l-22 -61h-21zM54 79h71l-35 96zM80 205v25h20v-25h-20zM45 245v16h90v-16h-90zM90 270z" />
    <glyph glyph-name="adotmacron" unicode="&#x1e1;" horiz-adv-x="150" 
d="M15 40c0 20 9.16699 33.333 27.5 40s40.833 10 67.5 10c0 13.333 -2.5 23 -7.5 29s-15.833 9 -32.5 9s-30 -2.66699 -40 -8l-5 15c14.667 5.33301 29.667 8 45 8c22 0 37.5 -3.83301 46.5 -11.5s13.5 -21.5 13.5 -41.5v-90h-20v15c-13.333 -12 -28.333 -18 -45 -18
s-29.167 3.83301 -37.5 11.5s-12.5 18.167 -12.5 31.5zM43.5 21c4.33301 -6 13.167 -9 26.5 -9c10 0 23.333 6 40 18v44c-26.667 0 -45.5 -2.33301 -56.5 -7s-16.5 -13 -16.5 -25c0 -8 2.16699 -15 6.5 -21zM65.001 165v25h20v-25h-20zM30.001 205v16h90v-16h-90z
M75.001 230z" />
    <glyph glyph-name="AEmacron" unicode="&#x1e2;" horiz-adv-x="255" 
d="M0 0l105 190h140v-18h-110v-64h90v-18h-90v-72h110v-18h-130v70h-54l-39 -70h-22zM70 88h45v80zM85 210v16h90v-16h-90zM130 235z" />
    <glyph glyph-name="aemacron" unicode="&#x1e3;" horiz-adv-x="250" 
d="M15 40c0 20 9.16797 33.333 27.501 40s40.833 10 67.5 10c0 13.333 -2.5 23 -7.5 29s-15.833 9 -32.5 9s-30 -2.66699 -40 -8l-5 15c14.667 5.33301 29.667 8 45 8c26.667 0 44 -7 52 -21c13.333 15.333 29.666 23 48.999 23s34.833 -5.83301 46.5 -17.5
s17.5 -32.5 17.5 -62.5h-104c0 -16.667 3.5 -29.667 10.5 -39s18.167 -14 33.5 -14s29.333 6 42 18l11 -10c-15.333 -16.667 -33 -25 -53 -25s-37.667 8.33301 -53 25c-21.333 -15.333 -40.333 -23 -57 -23s-29.167 3.83301 -37.5 11.5s-12.5 18.167 -12.5 31.5zM43.501 21
c4.33301 -6 13.167 -9 26.5 -9c10 0 25 7.33301 45 22c-3.33301 14 -5 27.333 -5 40c-26.667 0 -45.5 -2.33301 -56.5 -7s-16.5 -13 -16.5 -25c0 -8 2.16699 -15 6.5 -21zM131.002 81h83c0 12.667 -3.5 24 -10.5 34s-17.333 15 -31 15s-24 -5 -31 -15
s-10.5 -21.333 -10.5 -34zM77.002 170v16h90v-16h-90zM122.002 195z" />
    <glyph glyph-name="Gcaron" unicode="&#x1e6;" horiz-adv-x="195" 
d="M15 95c0 33.333 8.33203 58.333 24.999 75s40 25 70 25s53.333 -8.33301 70 -25v-20c-23.333 20 -46.666 30 -69.999 30s-41.333 -7.5 -54 -22.5s-19 -35.833 -19 -62.5s6.33301 -47.5 19 -62.5s30.667 -22.5 54 -22.5c20 0 36.667 6.66699 50 20v52h-50v18h70v-80
c-20 -16.667 -43.333 -25 -70 -25c-30 0 -53.333 8.33301 -70 25s-25 41.667 -25 75zM64.999 250l30 -45h30l30 45h-15l-30 -29l-30 29h-15zM109.999 245z" />
    <glyph glyph-name="gcaron" unicode="&#x1e7;" 
d="M35 16c-10 2.66699 -15 9.33594 -15 20.0029s6.66699 17.667 20 21c-13.333 9.33301 -20 22.166 -20 38.499s5.83301 28.666 17.5 36.999s25 12.5 40 12.5s26.833 -1.66699 35.5 -5c14.667 -3.33301 28.667 -3.33301 42 0v-20h-17c4.66699 -7.33301 7 -17.5 7 -30.5
s-5.83301 -23.667 -17.5 -32s-24 -12.5 -37 -12.5h-35c-10.333 0 -15.5 -2.66699 -15.5 -8s6.66699 -8 20 -8c40 0 66.667 -3.5 80 -10.5s20 -17.167 20 -30.5s-6.66699 -23.5 -20 -30.5s-30.833 -10.5 -52.5 -10.5s-39.167 3.5 -52.5 10.5s-20 16.667 -20 29
s6.66699 22.166 20 29.499zM37 -10.998c0 -9.33301 4.66699 -16.168 14 -20.501s21.5 -6.5 36.5 -6.5s27.167 2.16699 36.5 6.5s14 10.333 14 18s-4.66699 14.334 -14 20.001s-34 8.5 -74 8.5c-8.66699 -8 -13 -16.667 -13 -26zM40 95c0 -10 4.16699 -18.5 12.5 -25.5
s18.333 -10.5 30 -10.5s21.667 3.5 30 10.5s12.5 15.5 12.5 25.5s-4.16699 18.5 -12.5 25.5s-18.333 10.5 -30 10.5s-21.667 -3.5 -30 -10.5s-12.5 -15.5 -12.5 -25.5zM40 210l30 -45h30l30 45h-15l-30 -29l-30 29h-15zM85 205z" />
    <glyph glyph-name="Kcaron" unicode="&#x1e8;" horiz-adv-x="175" 
d="M20 0v190h20v-99l99 99h26l-83 -83l93 -107h-26l-81 93l-28 -28v-65h-20zM45 250l30 -45h30l30 45h-15l-30 -29l-30 29h-15zM90 245z" />
    <glyph glyph-name="kcaron" unicode="&#x1e9;" horiz-adv-x="145" 
d="M20 0v200h20v-126l66 66h27l-56 -56l68 -84h-26l-56 69l-23 -22v-47h-20zM40 230l30 -45h30l30 45h-15l-30 -29l-30 29h-15zM85 225z" />
    <glyph glyph-name="Oogonek" unicode="&#x1ea;" horiz-adv-x="205" 
d="M15 95c0 30 7.83301 54.167 23.5 72.5s37 27.5 64 27.5s48.333 -9.16699 64 -27.5s23.5 -42.5 23.5 -72.5s-7.83301 -54.167 -23.5 -72.5s-37 -27.5 -64 -27.5s-48.333 9.16699 -64 27.5s-23.5 42.5 -23.5 72.5zM37 95c0 -23.333 5.83301 -43.333 17.5 -60
s27.667 -25 48 -25s36.333 8.33301 48 25s17.5 36.667 17.5 60s-5.83301 43.333 -17.5 60s-27.667 25 -48 25s-36.333 -8.33301 -48 -25s-17.5 -36.667 -17.5 -60zM100 -24c0 14.667 12.666 28.667 37.999 42l7 -12c-16.667 -10 -25 -19 -25 -27
c0 -5.33301 2.16699 -8 6.5 -8s10.5 1.33301 18.5 4v-17c-6.66699 -3.33301 -14.167 -5 -22.5 -5s-14.166 1.66699 -17.499 5s-5 9.33301 -5 18zM139.999 6z" />
    <glyph glyph-name="oogonek" unicode="&#x1eb;" horiz-adv-x="165" 
d="M15 70c0 23.333 5.83301 41.666 17.5 54.999s28.334 20 50.001 20s38.334 -6.66699 50.001 -20s17.5 -31.666 17.5 -54.999s-5.83301 -41.666 -17.5 -54.999s-28.334 -20 -50.001 -20s-38.334 6.66699 -50.001 20s-17.5 31.666 -17.5 54.999zM36 70
c0 -16.667 4 -30.834 12 -42.501s19.5 -17.5 34.5 -17.5s26.5 5.83301 34.5 17.5s12 25.834 12 42.501s-4 30.834 -12 42.501s-19.5 17.5 -34.5 17.5s-26.5 -5.83301 -34.5 -17.5s-12 -25.834 -12 -42.501zM81 -20c0 14.667 12.666 28.667 37.999 42l7 -12
c-16.667 -10 -25 -19 -25 -27c0 -5.33301 2.16699 -8 6.5 -8s10.5 1.33301 18.5 4v-17c-6.66699 -3.33301 -14.167 -5 -22.5 -5s-14.166 1.66699 -17.499 5s-5 9.33301 -5 18zM120.999 10z" />
    <glyph glyph-name="Oogonekmacron" unicode="&#x1ec;" horiz-adv-x="205" 
d="M15 95c0 30 7.83301 54.167 23.5 72.5s37 27.5 64 27.5s48.333 -9.16699 64 -27.5s23.5 -42.5 23.5 -72.5s-7.83301 -54.167 -23.5 -72.5s-37 -27.5 -64 -27.5s-48.333 9.16699 -64 27.5s-23.5 42.5 -23.5 72.5zM37 95c0 -23.333 5.83301 -43.333 17.5 -60
s27.667 -25 48 -25s36.333 8.33301 48 25s17.5 36.667 17.5 60s-5.83301 43.333 -17.5 60s-27.667 25 -48 25s-36.333 -8.33301 -48 -25s-17.5 -36.667 -17.5 -60zM100 -24c0 14.667 12.666 28.667 37.999 42l7 -12c-16.667 -10 -25 -19 -25 -27
c0 -5.33301 2.16699 -8 6.5 -8s10.5 1.33301 18.5 4v-17c-6.66699 -3.33301 -14.167 -5 -22.5 -5s-14.166 1.66699 -17.499 5s-5 9.33301 -5 18zM57.999 210v16h90v-16h-90zM102.999 235z" />
    <glyph glyph-name="oogonekmacron" unicode="&#x1ed;" horiz-adv-x="165" 
d="M15 70c0 23.333 5.83301 41.666 17.5 54.999s28.334 20 50.001 20s38.334 -6.66699 50.001 -20s17.5 -31.666 17.5 -54.999s-5.83301 -41.666 -17.5 -54.999s-28.334 -20 -50.001 -20s-38.334 6.66699 -50.001 20s-17.5 31.666 -17.5 54.999zM36 70
c0 -16.667 4 -30.834 12 -42.501s19.5 -17.5 34.5 -17.5s26.5 5.83301 34.5 17.5s12 25.834 12 42.501s-4 30.834 -12 42.501s-19.5 17.5 -34.5 17.5s-26.5 -5.83301 -34.5 -17.5s-12 -25.834 -12 -42.501zM81 -20c0 14.667 12.666 28.667 37.999 42l7 -12
c-16.667 -10 -25 -19 -25 -27c0 -5.33301 2.16699 -8 6.5 -8s10.5 1.33301 18.5 4v-17c-6.66699 -3.33301 -14.167 -5 -22.5 -5s-14.166 1.66699 -17.499 5s-5 9.33301 -5 18zM37.999 170v16h90v-16h-90zM82.999 195z" />
    <glyph glyph-name="jcaron" unicode="&#x1f0;" horiz-adv-x="75" 
d="M-15 -48l-0.000976562 18c8.66699 -3.33301 17 -5 25 -5c16.667 0 25 12.333 25 37v138h20v-138c0 -20 -4.16699 -33.667 -12.5 -41s-19.166 -11 -32.499 -11c-8 0 -16.333 0.666992 -25 2zM-0.000976562 210l30 -45h30l30 45h-15l-30 -29l-30 29h-15zM44.999 205z" />
    <glyph glyph-name="DZ" unicode="&#x1f1;" horiz-adv-x="345" 
d="M20 0v190h40c73.333 0 110 -31.667 110 -95s-35 -95 -105 -95h-45zM40 18h30c52 0 78 25.667 78 77s-27.667 77 -83 77h-25v-154zM195 0v28l122 144h-122v18h140v-28l-122 -144h122v-18h-140zM325 0z" />
    <glyph glyph-name="Dz" unicode="&#x1f2;" horiz-adv-x="330" 
d="M20 0v190h40c73.333 0 110 -31.667 110 -95s-35 -95 -105 -95h-45zM40 18h30c52 0 78 25.667 78 77s-27.667 77 -83 77h-25v-154zM195 0v28l106 94h-106v18h125v-28l-106 -94h106v-18h-125zM315 0z" />
    <glyph glyph-name="dz" unicode="&#x1f3;" horiz-adv-x="305" 
d="M140 0v200h-20v-70c-13.333 8.66699 -29.166 13 -47.499 13s-32.5 -6.33301 -42.5 -19s-15 -30.667 -15 -54s5 -41.333 15 -54s24.167 -19 42.5 -19s34.166 4.33301 47.499 13v-10h20zM120 25c-12 -8.66699 -25.833 -13 -41.5 -13s-26.5 5.5 -32.5 16.5
s-9 24.833 -9 41.5s3 30.5 9 41.5s16.833 16.5 32.5 16.5s29.5 -4.33301 41.5 -13v-90zM170 0v28l106 94h-106v18h125v-28l-106 -94h106v-18h-125zM290 0z" />
    <glyph glyph-name="Gacute" unicode="&#x1f4;" horiz-adv-x="195" 
d="M15 95c0 33.333 8.33203 58.333 24.999 75s40 25 70 25s53.333 -8.33301 70 -25v-20c-23.333 20 -46.666 30 -69.999 30s-41.333 -7.5 -54 -22.5s-19 -35.833 -19 -62.5s6.33301 -47.5 19 -62.5s30.667 -22.5 54 -22.5c20 0 36.667 6.66699 50 20v52h-50v18h70v-80
c-20 -16.667 -43.333 -25 -70 -25c-30 0 -53.333 8.33301 -70 25s-25 41.667 -25 75zM139.999 250h-25l-25 -45h15zM119.999 255z" />
    <glyph glyph-name="gacute" unicode="&#x1f5;" 
d="M35 16c-10 2.66699 -15 9.33594 -15 20.0029s6.66699 17.667 20 21c-13.333 9.33301 -20 22.166 -20 38.499s5.83301 28.666 17.5 36.999s25 12.5 40 12.5s26.833 -1.66699 35.5 -5c14.667 -3.33301 28.667 -3.33301 42 0v-20h-17c4.66699 -7.33301 7 -17.5 7 -30.5
s-5.83301 -23.667 -17.5 -32s-24 -12.5 -37 -12.5h-35c-10.333 0 -15.5 -2.66699 -15.5 -8s6.66699 -8 20 -8c40 0 66.667 -3.5 80 -10.5s20 -17.167 20 -30.5s-6.66699 -23.5 -20 -30.5s-30.833 -10.5 -52.5 -10.5s-39.167 3.5 -52.5 10.5s-20 16.667 -20 29
s6.66699 22.166 20 29.499zM37 -10.998c0 -9.33301 4.66699 -16.168 14 -20.501s21.5 -6.5 36.5 -6.5s27.167 2.16699 36.5 6.5s14 10.333 14 18s-4.66699 14.334 -14 20.001s-34 8.5 -74 8.5c-8.66699 -8 -13 -16.667 -13 -26zM40 95c0 -10 4.16699 -18.5 12.5 -25.5
s18.333 -10.5 30 -10.5s21.667 3.5 30 10.5s12.5 15.5 12.5 25.5s-4.16699 18.5 -12.5 25.5s-18.333 10.5 -30 10.5s-21.667 -3.5 -30 -10.5s-12.5 -15.5 -12.5 -25.5zM115 210h-25l-25 -45h15zM95 215z" />
    <glyph glyph-name="uni01F8" unicode="&#x1f8;" horiz-adv-x="190" 
d="M20 0v190h28l102 -165v165h20v-190h-28l-102 165v-165h-20zM65 250h25l25 -45h-15zM85 255z" />
    <glyph glyph-name="uni01F9" unicode="&#x1f9;" horiz-adv-x="155" 
d="M20 0l-0.000976562 140h20v-23c13.333 17.333 28.333 26 45 26s29.167 -3.83301 37.5 -11.5s12.5 -21.5 12.5 -41.5v-90h-20v85c0 13.333 -2.5 23.5 -7.5 30.5s-14.167 10.5 -27.5 10.5s-26.666 -8.66699 -39.999 -26v-100h-20zM49.999 210h25l25 -45h-15zM69.999 215z
" />
    <glyph glyph-name="Aringacute" unicode="&#x1fa;" horiz-adv-x="180" 
d="M5 0l70 190h30l70 -190h-21l-22 61h-84l-22 -61h-21zM54 79h71l-35 96zM60 225c0 8.66699 2.83301 15.834 8.5 21.501s12.834 8.5 21.501 8.5s15.834 -2.83301 21.501 -8.5s8.5 -12.834 8.5 -21.501s-2.83301 -15.834 -8.5 -21.501s-12.834 -8.5 -21.501 -8.5
s-15.834 2.83301 -21.501 8.5s-8.5 12.834 -8.5 21.501zM90 210c4.66699 0 8.33398 1.33301 11.001 4s4 6.33398 4 11.001s-1.33301 8.33398 -4 11.001s-6.33398 4 -11.001 4s-8.33398 -1.33301 -11.001 -4s-4 -6.33398 -4 -11.001s1.33301 -8.33398 4 -11.001
s6.33398 -4 11.001 -4zM120 305h-25l-25 -45h15zM100 310z" />
    <glyph glyph-name="aringacute" unicode="&#x1fb;" horiz-adv-x="150" 
d="M15 40c0 20 9.16699 33.333 27.5 40s40.833 10 67.5 10c0 13.333 -2.5 23 -7.5 29s-15.833 9 -32.5 9s-30 -2.66699 -40 -8l-5 15c14.667 5.33301 29.667 8 45 8c22 0 37.5 -3.83301 46.5 -11.5s13.5 -21.5 13.5 -41.5v-90h-20v15c-13.333 -12 -28.333 -18 -45 -18
s-29.167 3.83301 -37.5 11.5s-12.5 18.167 -12.5 31.5zM43.5 21c4.33301 -6 13.167 -9 26.5 -9c10 0 23.333 6 40 18v44c-26.667 0 -45.5 -2.33301 -56.5 -7s-16.5 -13 -16.5 -25c0 -8 2.16699 -15 6.5 -21zM45.001 185c0 8.66699 2.83301 15.834 8.5 21.501
s12.834 8.5 21.501 8.5s15.834 -2.83301 21.501 -8.5s8.5 -12.834 8.5 -21.501s-2.83301 -15.834 -8.5 -21.501s-12.834 -8.5 -21.501 -8.5s-15.834 2.83301 -21.501 8.5s-8.5 12.834 -8.5 21.501zM75.001 170c4.66699 0 8.33398 1.33301 11.001 4s4 6.33398 4 11.001
s-1.33301 8.33398 -4 11.001s-6.33398 4 -11.001 4s-8.33398 -1.33301 -11.001 -4s-4 -6.33398 -4 -11.001s1.33301 -8.33398 4 -11.001s6.33398 -4 11.001 -4zM105.001 265h-25l-25 -45h15zM85.001 270z" />
    <glyph glyph-name="AEacute" unicode="&#x1fc;" horiz-adv-x="255" 
d="M0 0l105 190h140v-18h-110v-64h90v-18h-90v-72h110v-18h-130v70h-54l-39 -70h-22zM70 88h45v80zM160 250h-25l-25 -45h15zM140 255z" />
    <glyph glyph-name="aeacute" unicode="&#x1fd;" horiz-adv-x="250" 
d="M15 40c0 20 9.16797 33.333 27.501 40s40.833 10 67.5 10c0 13.333 -2.5 23 -7.5 29s-15.833 9 -32.5 9s-30 -2.66699 -40 -8l-5 15c14.667 5.33301 29.667 8 45 8c26.667 0 44 -7 52 -21c13.333 15.333 29.666 23 48.999 23s34.833 -5.83301 46.5 -17.5
s17.5 -32.5 17.5 -62.5h-104c0 -16.667 3.5 -29.667 10.5 -39s18.167 -14 33.5 -14s29.333 6 42 18l11 -10c-15.333 -16.667 -33 -25 -53 -25s-37.667 8.33301 -53 25c-21.333 -15.333 -40.333 -23 -57 -23s-29.167 3.83301 -37.5 11.5s-12.5 18.167 -12.5 31.5zM43.501 21
c4.33301 -6 13.167 -9 26.5 -9c10 0 25 7.33301 45 22c-3.33301 14 -5 27.333 -5 40c-26.667 0 -45.5 -2.33301 -56.5 -7s-16.5 -13 -16.5 -25c0 -8 2.16699 -15 6.5 -21zM131.002 81h83c0 12.667 -3.5 24 -10.5 34s-17.333 15 -31 15s-24 -5 -31 -15
s-10.5 -21.333 -10.5 -34zM152.002 210h-25l-25 -45h15zM132.002 215z" />
    <glyph glyph-name="Oslashacute" unicode="&#x1fe;" horiz-adv-x="205" 
d="M15 95.5c0 29.667 7.83301 53.666 23.5 71.999s35.5 27.5 59.5 27.5s43 -5.66699 57 -17l13 17h22l-22 -29c14.667 -18 22 -41.833 22 -71.5s-7.83301 -53.667 -23.5 -72s-35.5 -27.5 -59.5 -27.5s-43.333 5.33301 -58 16l-12 -16h-22l22 28
c-14.667 18.667 -22 42.834 -22 72.501zM50 40.999l93.999 122c-11.333 11.333 -26.166 17 -44.499 17s-33.333 -8.33301 -45 -25s-17.5 -36 -17.5 -58s4.33301 -40.667 13 -56zM60.999 25.999c10.667 -10.667 25.332 -16.001 43.999 -16.001s33.834 8.33301 45.501 25
s17.5 35.834 17.5 57.501s-4.66699 40.167 -14 55.5zM132.997 249.998h-25l-25 -45h15zM112.997 254.998z" />
    <glyph glyph-name="oslashacute" unicode="&#x1ff;" horiz-adv-x="165" 
d="M15 70.5c0 23 5.83398 41.167 17.501 54.5s26.667 20 45 20s32.5 -3.33301 42.5 -10l8 10h22l-16 -22c10.667 -13.333 16 -31.333 16 -54s-5.83301 -40.667 -17.5 -54s-26.834 -20 -45.501 -20s-33 3 -43 9l-7 -9h-22l16 21c-10.667 13.333 -16 31.5 -16 54.5zM44.001 33
l65 88c-7.33301 6 -17.333 9 -30 9s-23 -5.83301 -31 -17.5s-12 -25.167 -12 -40.5s2.66699 -28.333 8 -39zM55.001 19c7.33301 -6 17.5 -9 30.5 -9s23.5 5.83301 31.5 17.5s12 25.167 12 40.5s-2.66699 28 -8 38zM113.001 210h-25l-25 -45h15zM93.001 215z" />
    <glyph glyph-name="Adblgrave" unicode="&#x200;" horiz-adv-x="180" 
d="M5 0l70 190h30l70 -190h-21l-22 61h-84l-22 -61h-21zM54 79h71l-35 96zM95 250h-25l-25 -45h15zM145 250h-25l-25 -45h15zM90 255z" />
    <glyph glyph-name="adblgrave" unicode="&#x201;" horiz-adv-x="150" 
d="M15 40c0 20 9.16699 33.333 27.5 40s40.833 10 67.5 10c0 13.333 -2.5 23 -7.5 29s-15.833 9 -32.5 9s-30 -2.66699 -40 -8l-5 15c14.667 5.33301 29.667 8 45 8c22 0 37.5 -3.83301 46.5 -11.5s13.5 -21.5 13.5 -41.5v-90h-20v15c-13.333 -12 -28.333 -18 -45 -18
s-29.167 3.83301 -37.5 11.5s-12.5 18.167 -12.5 31.5zM43.5 21c4.33301 -6 13.167 -9 26.5 -9c10 0 23.333 6 40 18v44c-26.667 0 -45.5 -2.33301 -56.5 -7s-16.5 -13 -16.5 -25c0 -8 2.16699 -15 6.5 -21zM80.001 210h-25l-25 -45h15zM130.001 210h-25l-25 -45h15z
M75.001 215z" />
    <glyph glyph-name="Edblgrave" unicode="&#x204;" 
d="M20 0v190h130v-18h-110v-64h90v-18h-90v-72h110v-18h-130zM90 250h-25l-25 -45h15zM140 250h-25l-25 -45h15zM85 255z" />
    <glyph glyph-name="edblgrave" unicode="&#x205;" 
d="M15 70c0 23.333 5.83301 41.668 17.5 55.001s27.5 20 47.5 20s35.833 -5.83301 47.5 -17.5s17.5 -32.5 17.5 -62.5h-109c0 -13.333 3.5 -25.5 10.5 -36.5s19.833 -16.5 38.5 -16.5c15.333 0 29.333 6 42 18l11 -10c-15.333 -16.667 -33 -25 -53 -25
c-23.333 0 -40.833 6.66699 -52.5 20s-17.5 31.666 -17.5 54.999zM36 81.002h88c0 12.667 -3.5 24 -10.5 34s-18.167 15 -33.5 15s-26.5 -5 -33.5 -15s-10.5 -21.333 -10.5 -34zM85 210.002h-25l-25 -45h15zM135 210.002h-25l-25 -45h15zM80 215.002z" />
    <glyph glyph-name="Idblgrave" unicode="&#x208;" horiz-adv-x="110" 
d="M20 0v15h25v160h-25v15h70v-15h-25v-160h25v-15h-70zM60 250h-25l-25 -45h15zM110 250h-25l-25 -45h15zM55 255z" />
    <glyph glyph-name="idblgrave" unicode="&#x209;" horiz-adv-x="60" 
d="M20 0v140h20v-140h-20zM35 210h-25l-25 -45h15zM85 210h-25l-25 -45h15zM30 215z" />
    <glyph glyph-name="Odblgrave" unicode="&#x20c;" horiz-adv-x="205" 
d="M15 95c0 30 7.83301 54.167 23.5 72.5s37 27.5 64 27.5s48.333 -9.16699 64 -27.5s23.5 -42.5 23.5 -72.5s-7.83301 -54.167 -23.5 -72.5s-37 -27.5 -64 -27.5s-48.333 9.16699 -64 27.5s-23.5 42.5 -23.5 72.5zM37 95c0 -23.333 5.83301 -43.333 17.5 -60
s27.667 -25 48 -25s36.333 8.33301 48 25s17.5 36.667 17.5 60s-5.83301 43.333 -17.5 60s-27.667 25 -48 25s-36.333 -8.33301 -48 -25s-17.5 -36.667 -17.5 -60zM108 250h-25l-25 -45h15zM158 250h-25l-25 -45h15zM103 255z" />
    <glyph glyph-name="odblgrave" unicode="&#x20d;" horiz-adv-x="165" 
d="M15 70c0 23.333 5.83301 41.666 17.5 54.999s28.334 20 50.001 20s38.334 -6.66699 50.001 -20s17.5 -31.666 17.5 -54.999s-5.83301 -41.666 -17.5 -54.999s-28.334 -20 -50.001 -20s-38.334 6.66699 -50.001 20s-17.5 31.666 -17.5 54.999zM36 70
c0 -16.667 4 -30.834 12 -42.501s19.5 -17.5 34.5 -17.5s26.5 5.83301 34.5 17.5s12 25.834 12 42.501s-4 30.834 -12 42.501s-19.5 17.5 -34.5 17.5s-26.5 -5.83301 -34.5 -17.5s-12 -25.834 -12 -42.501zM88 210h-25l-25 -45h15zM138 210h-25l-25 -45h15zM83 215z" />
    <glyph glyph-name="Rdblgrave" unicode="&#x210;" horiz-adv-x="175" 
d="M20 0v189.999h45c60 0 90 -17.333 90 -52c0 -15.333 -5 -27.666 -15 -36.999s-22.667 -15.333 -38 -18l68 -83h-25l-65 80h-40v-80h-20zM70 171.999h-30v-74h30c41.333 0 62 12.333 62 37s-20.667 37 -62 37zM90 249.999h-25l-25 -45h15zM140 249.999h-25l-25 -45h15z
M85 254.999z" />
    <glyph glyph-name="rdblgrave" unicode="&#x211;" horiz-adv-x="100" 
d="M20 0v140h20v-30c13.333 22 33.333 33 60 33v-20c-26.667 0 -46.667 -11 -60 -33v-90h-20zM65 210h-25l-25 -45h15zM115 210h-25l-25 -45h15zM60 215z" />
    <glyph glyph-name="Udblgrave" unicode="&#x214;" horiz-adv-x="190" 
d="M20 70v120h20v-120c0 -23.333 5.33301 -39.166 16 -47.499s23.667 -12.5 39 -12.5s28.333 4.16699 39 12.5s16 24.166 16 47.499v120h20v-120c0 -26.667 -7 -45.834 -21 -57.501s-32 -17.5 -54 -17.5s-40 5.83301 -54 17.5s-21 30.834 -21 57.501zM100 250h-25l-25 -45
h15zM150 250h-25l-25 -45h15zM95 255z" />
    <glyph glyph-name="udblgrave" unicode="&#x215;" horiz-adv-x="155" 
d="M135 140l0.000976562 -140h-20v23c-13.333 -17.333 -28.333 -26 -45 -26s-29.167 3.83301 -37.5 11.5s-12.5 21.5 -12.5 41.5v90h20v-85c0 -13.333 2.5 -23.5 7.5 -30.5s14.167 -10.5 27.5 -10.5s26.666 8.66699 39.999 26v100h20zM85.001 210h-25l-25 -45h15z
M135.001 210h-25l-25 -45h15zM80.001 215z" />
    <glyph glyph-name="uni021E" unicode="&#x21e;" horiz-adv-x="180" 
d="M20 0v190h20v-81h100v81h20v-190h-20v91h-100v-91h-20zM45 250l30 -45h30l30 45h-15l-30 -29l-30 29h-15zM90 245z" />
    <glyph glyph-name="uni021F" unicode="&#x21f;" horiz-adv-x="155" 
d="M20 0l-0.000976562 200h20v-83c13.333 17.333 28.333 26 45 26s29.167 -3.83301 37.5 -11.5s12.5 -21.5 12.5 -41.5v-90h-20v85c0 13.333 -2.5 23.5 -7.5 30.5s-14.167 10.5 -27.5 10.5s-26.666 -8.66699 -39.999 -26v-100h-20zM39.999 230l30 -45h30l30 45h-15l-30 -29
l-30 29h-15zM84.999 225z" />
    <glyph glyph-name="uni0226" unicode="&#x226;" horiz-adv-x="180" 
d="M5 0l70 190h30l70 -190h-21l-22 61h-84l-22 -61h-21zM54 79h71l-35 96zM80 205v25h20v-25h-20zM90 235z" />
    <glyph glyph-name="uni0227" unicode="&#x227;" horiz-adv-x="150" 
d="M15 40c0 20 9.16699 33.333 27.5 40s40.833 10 67.5 10c0 13.333 -2.5 23 -7.5 29s-15.833 9 -32.5 9s-30 -2.66699 -40 -8l-5 15c14.667 5.33301 29.667 8 45 8c22 0 37.5 -3.83301 46.5 -11.5s13.5 -21.5 13.5 -41.5v-90h-20v15c-13.333 -12 -28.333 -18 -45 -18
s-29.167 3.83301 -37.5 11.5s-12.5 18.167 -12.5 31.5zM43.5 21c4.33301 -6 13.167 -9 26.5 -9c10 0 23.333 6 40 18v44c-26.667 0 -45.5 -2.33301 -56.5 -7s-16.5 -13 -16.5 -25c0 -8 2.16699 -15 6.5 -21zM65.001 165v25h20v-25h-20zM75.001 195z" />
    <glyph glyph-name="uni0228" unicode="&#x228;" 
d="M20 0v190h130v-18h-110v-64h90v-18h-90v-72h110v-18h-130zM60 -50v17c10 -3.33301 17 -5 21 -5s7.16699 0.666992 9.5 2s3.5 3.5 3.5 6.5s-1.16699 5.66699 -3.5 8s-7.5 3.5 -15.5 3.5l3 18h17l-1 -10c5.33301 0 9.33301 -1.66699 12 -5s4 -8.83301 4 -16.5
s-2.5 -13.167 -7.5 -16.5s-11.667 -5 -20 -5s-15.833 1 -22.5 3zM85 0z" />
    <glyph glyph-name="uni0229" unicode="&#x229;" 
d="M15 70c0 23.333 5.83301 41.668 17.5 55.001s27.5 20 47.5 20s35.833 -5.83301 47.5 -17.5s17.5 -32.5 17.5 -62.5h-109c0 -13.333 3.5 -25.5 10.5 -36.5s19.833 -16.5 38.5 -16.5c15.333 0 29.333 6 42 18l11 -10c-15.333 -16.667 -33 -25 -53 -25
c-23.333 0 -40.833 6.66699 -52.5 20s-17.5 31.666 -17.5 54.999zM36 81.002h88c0 12.667 -3.5 24 -10.5 34s-18.167 15 -33.5 15s-26.5 -5 -33.5 -15s-10.5 -21.333 -10.5 -34zM55 -49.998v17c10 -3.33301 17 -5 21 -5s7.16699 0.666992 9.5 2s3.5 3.5 3.5 6.5
s-1.16699 5.66699 -3.5 8s-7.5 3.5 -15.5 3.5l3 18h17l-1 -10c5.33301 0 9.33301 -1.66699 12 -5s4 -8.83301 4 -16.5s-2.5 -13.167 -7.5 -16.5s-11.667 -5 -20 -5s-15.833 1 -22.5 3zM80 0.00195312z" />
    <glyph glyph-name="uni022A" unicode="&#x22a;" horiz-adv-x="205" 
d="M15 95c0 30 7.83301 54.167 23.5 72.5s37 27.5 64 27.5s48.333 -9.16699 64 -27.5s23.5 -42.5 23.5 -72.5s-7.83301 -54.167 -23.5 -72.5s-37 -27.5 -64 -27.5s-48.333 9.16699 -64 27.5s-23.5 42.5 -23.5 72.5zM37 95c0 -23.333 5.83301 -43.333 17.5 -60
s27.667 -25 48 -25s36.333 8.33301 48 25s17.5 36.667 17.5 60s-5.83301 43.333 -17.5 60s-27.667 25 -48 25s-36.333 -8.33301 -48 -25s-17.5 -36.667 -17.5 -60zM63 205v20h20v-20h-20zM123 205v20h20v-20h-20zM58 240v16h90v-16h-90zM103 265z" />
    <glyph glyph-name="uni022B" unicode="&#x22b;" horiz-adv-x="165" 
d="M15 70c0 23.333 5.83301 41.666 17.5 54.999s28.334 20 50.001 20s38.334 -6.66699 50.001 -20s17.5 -31.666 17.5 -54.999s-5.83301 -41.666 -17.5 -54.999s-28.334 -20 -50.001 -20s-38.334 6.66699 -50.001 20s-17.5 31.666 -17.5 54.999zM36 70
c0 -16.667 4 -30.834 12 -42.501s19.5 -17.5 34.5 -17.5s26.5 5.83301 34.5 17.5s12 25.834 12 42.501s-4 30.834 -12 42.501s-19.5 17.5 -34.5 17.5s-26.5 -5.83301 -34.5 -17.5s-12 -25.834 -12 -42.501zM43 165v20h20v-20h-20zM103 165v20h20v-20h-20zM38 200v16h90v-16
h-90zM83 225z" />
    <glyph glyph-name="uni022C" unicode="&#x22c;" horiz-adv-x="205" 
d="M15 95c0 30 7.83301 54.167 23.5 72.5s37 27.5 64 27.5s48.333 -9.16699 64 -27.5s23.5 -42.5 23.5 -72.5s-7.83301 -54.167 -23.5 -72.5s-37 -27.5 -64 -27.5s-48.333 9.16699 -64 27.5s-23.5 42.5 -23.5 72.5zM37 95c0 -23.333 5.83301 -43.333 17.5 -60
s27.667 -25 48 -25s36.333 8.33301 48 25s17.5 36.667 17.5 60s-5.83301 43.333 -17.5 60s-27.667 25 -48 25s-36.333 -8.33301 -48 -25s-17.5 -36.667 -17.5 -60zM53 226c9.33301 12 19.333 18 30 18s18.5 -3 23.5 -9s11.167 -9 18.5 -9s14 4 20 12l8 -10
c-9.33301 -12 -19.333 -18 -30 -18s-18.5 3 -23.5 9s-11.167 9 -18.5 9s-14 -4 -20 -12zM58 260v16h90v-16h-90zM103 285z" />
    <glyph glyph-name="uni022D" unicode="&#x22d;" horiz-adv-x="165" 
d="M15 70c0 23.333 5.83301 41.666 17.5 54.999s28.334 20 50.001 20s38.334 -6.66699 50.001 -20s17.5 -31.666 17.5 -54.999s-5.83301 -41.666 -17.5 -54.999s-28.334 -20 -50.001 -20s-38.334 6.66699 -50.001 20s-17.5 31.666 -17.5 54.999zM36 70
c0 -16.667 4 -30.834 12 -42.501s19.5 -17.5 34.5 -17.5s26.5 5.83301 34.5 17.5s12 25.834 12 42.501s-4 30.834 -12 42.501s-19.5 17.5 -34.5 17.5s-26.5 -5.83301 -34.5 -17.5s-12 -25.834 -12 -42.501zM33 186c9.33301 12 19.333 18 30 18s18.5 -3 23.5 -9
s11.167 -9 18.5 -9s14 4 20 12l8 -10c-9.33301 -12 -19.333 -18 -30 -18s-18.5 3 -23.5 9s-11.167 9 -18.5 9s-14 -4 -20 -12zM38 220v16h90v-16h-90zM83 245z" />
    <glyph glyph-name="uni022E" unicode="&#x22e;" horiz-adv-x="205" 
d="M15 95c0 30 7.83301 54.167 23.5 72.5s37 27.5 64 27.5s48.333 -9.16699 64 -27.5s23.5 -42.5 23.5 -72.5s-7.83301 -54.167 -23.5 -72.5s-37 -27.5 -64 -27.5s-48.333 9.16699 -64 27.5s-23.5 42.5 -23.5 72.5zM37 95c0 -23.333 5.83301 -43.333 17.5 -60
s27.667 -25 48 -25s36.333 8.33301 48 25s17.5 36.667 17.5 60s-5.83301 43.333 -17.5 60s-27.667 25 -48 25s-36.333 -8.33301 -48 -25s-17.5 -36.667 -17.5 -60zM93 205v25h20v-25h-20zM103 235z" />
    <glyph glyph-name="uni022F" unicode="&#x22f;" horiz-adv-x="165" 
d="M15 70c0 23.333 5.83301 41.666 17.5 54.999s28.334 20 50.001 20s38.334 -6.66699 50.001 -20s17.5 -31.666 17.5 -54.999s-5.83301 -41.666 -17.5 -54.999s-28.334 -20 -50.001 -20s-38.334 6.66699 -50.001 20s-17.5 31.666 -17.5 54.999zM36 70
c0 -16.667 4 -30.834 12 -42.501s19.5 -17.5 34.5 -17.5s26.5 5.83301 34.5 17.5s12 25.834 12 42.501s-4 30.834 -12 42.501s-19.5 17.5 -34.5 17.5s-26.5 -5.83301 -34.5 -17.5s-12 -25.834 -12 -42.501zM73 165v25h20v-25h-20zM83 195z" />
    <glyph glyph-name="uni0230" unicode="&#x230;" horiz-adv-x="205" 
d="M15 95c0 30 7.83301 54.167 23.5 72.5s37 27.5 64 27.5s48.333 -9.16699 64 -27.5s23.5 -42.5 23.5 -72.5s-7.83301 -54.167 -23.5 -72.5s-37 -27.5 -64 -27.5s-48.333 9.16699 -64 27.5s-23.5 42.5 -23.5 72.5zM37 95c0 -23.333 5.83301 -43.333 17.5 -60
s27.667 -25 48 -25s36.333 8.33301 48 25s17.5 36.667 17.5 60s-5.83301 43.333 -17.5 60s-27.667 25 -48 25s-36.333 -8.33301 -48 -25s-17.5 -36.667 -17.5 -60zM93 205v25h20v-25h-20zM58 245v16h90v-16h-90zM103 270z" />
    <glyph glyph-name="uni0231" unicode="&#x231;" horiz-adv-x="165" 
d="M15 70c0 23.333 5.83301 41.666 17.5 54.999s28.334 20 50.001 20s38.334 -6.66699 50.001 -20s17.5 -31.666 17.5 -54.999s-5.83301 -41.666 -17.5 -54.999s-28.334 -20 -50.001 -20s-38.334 6.66699 -50.001 20s-17.5 31.666 -17.5 54.999zM36 70
c0 -16.667 4 -30.834 12 -42.501s19.5 -17.5 34.5 -17.5s26.5 5.83301 34.5 17.5s12 25.834 12 42.501s-4 30.834 -12 42.501s-19.5 17.5 -34.5 17.5s-26.5 -5.83301 -34.5 -17.5s-12 -25.834 -12 -42.501zM73 165v25h20v-25h-20zM38 205v16h90v-16h-90zM83 230z" />
    <glyph glyph-name="uni0232" unicode="&#x232;" horiz-adv-x="170" 
d="M0 190h24l61 -82l61 82h24l-75 -100v-90h-20v90zM40 210v16h90v-16h-90zM85 235z" />
    <glyph glyph-name="uni0233" unicode="&#x233;" horiz-adv-x="130" 
d="M0 140h21l45 -104l43 104h21l-80 -190h-21l27 62zM20 170v16h90v-16h-90zM65 195z" />
    <glyph glyph-name="turneda" unicode="&#x250;" horiz-adv-x="150" 
d="M135 100c0 -20 -9.16699 -33.333 -27.5 -40s-40.833 -10 -67.5 -10c0 -13.333 2.5 -23 7.5 -29s15.833 -9 32.5 -9s30 2.66699 40 8l5 -15c-14.667 -5.33301 -29.667 -8 -45 -8c-22 0 -37.5 3.83301 -46.5 11.5s-13.5 21.5 -13.5 41.5v90h20v-15
c13.333 12 28.333 18 45 18s29.167 -3.83301 37.5 -11.5s12.5 -18.167 12.5 -31.5zM106.5 119c-4.33301 6 -13.167 9 -26.5 9c-10 0 -23.333 -6 -40 -18v-44c26.667 0 45.5 2.33301 56.5 7s16.5 13 16.5 25c0 8 -2.16699 15 -6.5 21zM24.999 140z" />
    <glyph glyph-name="scripta" unicode="&#x251;" 
d="M15 70c0 23.333 5 41.333 15 54s24 19 42 19c18.667 0 34.667 -6 48 -18v15h20v-140h-20v15c-13.333 -12 -29.333 -18 -48 -18c-18 0 -32 6.33301 -42 19s-15 30.667 -15 54zM45 31c6.66699 -9.33301 17.667 -14 33 -14c16 0 30 6 42 18v70c-12 12 -26 18 -42 18
c-15.333 0 -26.333 -4.66699 -33 -14s-10 -22.333 -10 -39s3.33301 -29.667 10 -39z" />
    <glyph glyph-name="turnedscripta" unicode="&#x252;" 
d="M145 70c0 -23.333 -5 -41.333 -15 -54s-24 -19 -42 -19c-18.667 0 -34.667 6 -48 18v-15h-20v140h20v-15c13.333 12 29.333 18 48 18c18 0 32 -6.33301 42 -19s15 -30.667 15 -54zM115 109c-6.66699 9.33301 -17.667 14 -33 14c-16 0 -30 -6 -42 -18v-70
c12 -12 26 -18 42 -18c15.333 0 26.333 4.66699 33 14s10 22.333 10 39s-3.33301 29.667 -10 39z" />
    <glyph glyph-name="bhook" unicode="&#x253;" 
d="M40 30c12 -8.66699 25.833 -13 41.5 -13s26.834 4.66699 33.501 14s10 22.333 10 39s-3.33301 29.667 -10 39s-17.834 14 -33.501 14s-29.5 -4.33301 -41.5 -13v-80zM20 0v145c0 16.667 4.16699 30 12.5 40s22.5 15 42.5 15c14.667 0 29.667 -3.33301 45 -10v-20
c-15.333 6.66699 -30.333 10 -45 10c-23.333 0 -35 -11.667 -35 -35v-15c13.333 8.66699 29.166 13 47.499 13s32.5 -6.33301 42.5 -19s15 -30.667 15 -54s-5 -41.333 -15 -54s-24.167 -19 -42.5 -19s-34.166 4.33301 -47.499 13v-10h-20z" />
    <glyph glyph-name="breve" unicode="&#x2d8;" horiz-adv-x="70" 
d="M5 210h13c1.33301 -11.333 4.5 -18.833 9.5 -22.5s10.833 -5.5 17.5 -5.5s12.5 1.83301 17.5 5.5s8.16699 11.167 9.5 22.5h13c0 -15.333 -3.66699 -26.666 -11 -33.999s-17 -11 -29 -11s-21.667 3.66699 -29 11s-11 18.666 -11 33.999zM45 215z" />
    <glyph glyph-name="dotaccent" unicode="&#x2d9;" horiz-adv-x="70" 
d="M35 165v25h20v-25h-20zM45 195z" />
    <glyph glyph-name="ring" unicode="&#x2da;" horiz-adv-x="70" 
d="M15 185c0 8.66699 2.83301 15.834 8.5 21.501s12.834 8.5 21.501 8.5s15.834 -2.83301 21.501 -8.5s8.5 -12.834 8.5 -21.501s-2.83301 -15.834 -8.5 -21.501s-12.834 -8.5 -21.501 -8.5s-15.834 2.83301 -21.501 8.5s-8.5 12.834 -8.5 21.501zM45 170
c4.66699 0 8.33398 1.33301 11.001 4s4 6.33398 4 11.001s-1.33301 8.33398 -4 11.001s-6.33398 4 -11.001 4s-8.33398 -1.33301 -11.001 -4s-4 -6.33398 -4 -11.001s1.33301 -8.33398 4 -11.001s6.33398 -4 11.001 -4zM45 215z" />
    <glyph glyph-name="ogonek" unicode="&#x2db;" horiz-adv-x="70" 
d="M5 -30c0 14.667 12.666 28.667 37.999 42l7 -12c-16.667 -10 -25 -19 -25 -27c0 -5.33301 2.16699 -8 6.5 -8s10.5 1.33301 18.5 4v-17c-6.66699 -3.33301 -14.167 -5 -22.5 -5s-14.166 1.66699 -17.499 5s-5 9.33301 -5 18zM44.999 0z" />
    <glyph glyph-name="ilde" unicode="&#x2dc;" horiz-adv-x="70" 
d="M-5 186c9.33301 12 19.333 18 30 18s18.5 -3 23.5 -9s11.167 -9 18.5 -9s14 4 20 12l8 -10c-9.33301 -12 -19.333 -18 -30 -18s-18.5 3 -23.5 9s-11.167 9 -18.5 9s-14 -4 -20 -12zM45 210z" />
    <glyph glyph-name="hungarumlaut" unicode="&#x2dd;" horiz-adv-x="70" 
d="M50 210h-25l-25 -45h15zM100 210h-25l-25 -45h15zM45 215z" />
    <glyph glyph-name="gravecomb" unicode="&#x300;" horiz-adv-x="0" 
d="M-55 210h25l25 -45h-15zM-35 215z" />
    <glyph glyph-name="acutecomb" unicode="&#x301;" horiz-adv-x="0" 
d="M5 210h-25l-25 -45h15zM-15 215z" />
    <glyph glyph-name="circumflexcomb" unicode="&#x302;" horiz-adv-x="0" 
d="M-70 165l30 45h30l30 -45h-15l-30 29l-30 -29h-15zM-25 215z" />
    <glyph glyph-name="tildeaccentcomb" unicode="&#x303;" horiz-adv-x="0" 
d="M-75 186c9.33301 12 19.333 18 30 18s18.5 -3 23.5 -9s11.167 -9 18.5 -9s14 4 20 12l8 -10c-9.33301 -12 -19.333 -18 -30 -18s-18.5 3 -23.5 9s-11.167 9 -18.5 9s-14 -4 -20 -12zM-25 210z" />
    <glyph glyph-name="tildeaccentcomb" unicode="&#x342;" horiz-adv-x="0" 
d="M-75 186c9.33301 12 19.333 18 30 18s18.5 -3 23.5 -9s11.167 -9 18.5 -9s14 4 20 12l8 -10c-9.33301 -12 -19.333 -18 -30 -18s-18.5 3 -23.5 9s-11.167 9 -18.5 9s-14 -4 -20 -12zM-25 210z" />
    <glyph glyph-name="macroncomb" unicode="&#x304;" horiz-adv-x="0" 
d="M-70 170v16h90v-16h-90zM-25 195z" />
    <glyph glyph-name="overlinecomb" unicode="&#x305;" horiz-adv-x="0" 
d="M-135 210v17h220v-17h-220z" />
    <glyph glyph-name="brevecomb" unicode="&#x306;" horiz-adv-x="0" 
d="M-65 210h13c1.33301 -11.333 4.5 -18.833 9.5 -22.5s10.833 -5.5 17.5 -5.5s12.5 1.83301 17.5 5.5s8.16699 11.167 9.5 22.5h13c0 -15.333 -3.66699 -26.666 -11 -33.999s-17 -11 -29 -11s-21.667 3.66699 -29 11s-11 18.666 -11 33.999zM-25 215z" />
    <glyph glyph-name="dotabovecomb" unicode="&#x307;" horiz-adv-x="0" 
d="M-35 165v25h20v-25h-20zM-25 195z" />
    <glyph glyph-name="dieresiscomb" unicode="&#x308;" horiz-adv-x="0" 
d="M-65 165v20h20v-20h-20zM-5 165v20h20v-20h-20zM-25 190z" />
    <glyph glyph-name="hookabovecomb" unicode="&#x309;" horiz-adv-x="0" 
d="M-45 195c0 6.66699 1.66699 11.666 5 14.999s8.83301 5 16.5 5s13.5 -2 17.5 -6s6 -9.33301 6 -16s-2 -12.167 -6 -16.5s-8.66699 -6.5 -14 -6.5v-10h-15v20c6.66699 0 11.667 1.16699 15 3.5s5 4.83301 5 7.5s-0.833008 4.83398 -2.5 6.50098s-5 2.5 -10 2.5
s-7.5 -1.66699 -7.5 -5h-10zM-25 219.999z" />
    <glyph glyph-name="ringabovecomb" unicode="&#x30a;" horiz-adv-x="0" 
d="M-55 185c0 8.66699 2.83301 15.834 8.5 21.501s12.834 8.5 21.501 8.5s15.834 -2.83301 21.501 -8.5s8.5 -12.834 8.5 -21.501s-2.83301 -15.834 -8.5 -21.501s-12.834 -8.5 -21.501 -8.5s-15.834 2.83301 -21.501 8.5s-8.5 12.834 -8.5 21.501zM-25 170
c4.66699 0 8.33398 1.33301 11.001 4s4 6.33398 4 11.001s-1.33301 8.33398 -4 11.001s-6.33398 4 -11.001 4s-8.33398 -1.33301 -11.001 -4s-4 -6.33398 -4 -11.001s1.33301 -8.33398 4 -11.001s6.33398 -4 11.001 -4zM-25 215z" />
    <glyph glyph-name="doubleacutecomb" unicode="&#x30b;" horiz-adv-x="0" 
d="M-20 210h-25l-25 -45h15zM30 210h-25l-25 -45h15zM-25 215z" />
    <glyph glyph-name="caroncomb" unicode="&#x30c;" horiz-adv-x="0" 
d="M-70 210l30 -45h30l30 45h-15l-30 -29l-30 29h-15zM-25 205z" />
    <glyph glyph-name="verticallineabovecomb" unicode="&#x30d;" horiz-adv-x="0" 
d="M-33 215h16v-55h-16v55zM-25 215z" />
    <glyph glyph-name="doubleverticallineabovecomb" unicode="&#x30e;" horiz-adv-x="0" 
d="M-53 215h16v-55h-16v55zM-13 215h16v-55h-16v55zM-25 215z" />
    <glyph glyph-name="doublegravecomb" unicode="&#x30f;" horiz-adv-x="0" 
d="M-20 210h-25l-25 -45h15zM30 210h-25l-25 -45h15zM-25 215z" />
    <glyph glyph-name="commaabovecomb" unicode="&#x313;" horiz-adv-x="0" 
d="M-40 160l0.000976562 10c5.33301 0 9.66602 1.66699 12.999 5s5 8.33301 5 15h-18v25h30v-20c0 -13.333 -3 -22.5 -9 -27.5s-13 -7.5 -21 -7.5zM-24.999 215z" />
    <glyph glyph-name="reversedcommaabovecomb" unicode="&#x314;" horiz-adv-x="0" 
d="M-10 160l-0.000976562 10c-5.33301 0 -9.66602 1.66699 -12.999 5s-5 8.33301 -5 15h18v25h-30v-20c0 -13.333 3 -22.5 9 -27.5s13 -7.5 21 -7.5zM-25.001 215z" />
    <glyph glyph-name="horncomb" unicode="&#x31b;" horiz-adv-x="0" 
d="M-20 125l0.00195312 15c13.333 0 21.666 2.16699 24.999 6.5s5 11.5 5 21.5v10h15v-10c0 -16.667 -3.33301 -28 -10 -34s-18.334 -9 -35.001 -9zM-19.998 130z" />
    <glyph glyph-name="dotbelowcomb" unicode="&#x323;" horiz-adv-x="0" 
d="M-35 -50v25h20v-25h-20zM-25 -10z" />
    <glyph glyph-name="cedillacomb" unicode="&#x327;" horiz-adv-x="0" 
d="M-50 -50v17c10 -3.33301 17 -5 21 -5s7.16699 0.666992 9.5 2s3.5 3.5 3.5 6.5s-1.16699 5.66699 -3.5 8s-7.5 3.5 -15.5 3.5l3 18h17l-1 -10c5.33301 0 9.33301 -1.66699 12 -5s4 -8.83301 4 -16.5s-2.5 -13.167 -7.5 -16.5s-11.667 -5 -20 -5s-15.833 1 -22.5 3zM-25 0
z" />
    <glyph glyph-name="gravetonecmb" unicode="&#x340;" horiz-adv-x="0" 
d="M-55 210h25l25 -45h-15zM-35 215z" />
    <glyph glyph-name="acutetonecmb" unicode="&#x341;" horiz-adv-x="0" 
d="M5 210h-25l-25 -45h15zM-15 215z" />
    <glyph glyph-name="koroniscmb" unicode="&#x343;" horiz-adv-x="0" 
d="M-40 160l0.000976562 10c5.33301 0 9.66602 1.66699 12.999 5s5 8.33301 5 15h-18v25h30v-20c0 -13.333 -3 -22.5 -9 -27.5s-13 -7.5 -21 -7.5zM-24.999 215z" />
    <glyph glyph-name="dialytikatonoscmb" unicode="&#x344;" horiz-adv-x="0" 
d="M-65 165v20h20v-20h-20zM-5 165v20h20v-20h-20zM-5 225h-25l-5 -55h10zM-25 225z" />
    <glyph glyph-name="iotasubscriptcomb" unicode="&#x345;" horiz-adv-x="0" 
d="M-33 -40l0.000976562 25h16v-17c0 -6.66699 5.66699 -7.66699 17 -3v-10c-6.66699 -5.33301 -14.334 -8 -23.001 -8c-6.66699 0 -10 4.33301 -10 13zM-24.999 -10z" />
    <glyph glyph-name="ypogegrammeni" unicode="&#x37a;" horiz-adv-x="70" 
d="M37 -40l0.000976562 25h16v-17c0 -6.66699 5.66699 -7.66699 17 -3v-10c-6.66699 -5.33301 -14.334 -8 -23.001 -8c-6.66699 0 -10 4.33301 -10 13zM45.001 -10z" />
    <glyph glyph-name="questiongreek" unicode="&#x37e;" horiz-adv-x="70" 
d="M15 -30l15 55h25l-25 -55h-15zM25 115v25h20v-25h-20z" />
    <glyph glyph-name="tonos" unicode="&#x384;" horiz-adv-x="70" 
d="M65 215h-25l-5 -55h10zM45 215z" />
    <glyph glyph-name="dieresistonos" unicode="&#x385;" horiz-adv-x="70" 
d="M5 165v20h20v-20h-20zM65 165v20h20v-20h-20zM65 225h-25l-5 -55h10zM45 225z" />
    <glyph glyph-name="Alphatonos" unicode="&#x386;" horiz-adv-x="190" 
d="M15 0l70 190h30l70 -190h-21l-22 61h-84l-22 -61h-21zM64 79h71l-35 96zM50 215h-25l-5 -55h10zM30 215z" />
    <glyph glyph-name="anoteleia" unicode="&#x387;" horiz-adv-x="70" 
d="M25 115v25h20v-25h-20z" />
    <glyph glyph-name="Epsilontonos" unicode="&#x388;" horiz-adv-x="195" 
d="M55 0v190h130v-18h-110v-64h90v-18h-90v-72h110v-18h-130zM40 215h-25l-5 -55h10zM20 215z" />
    <glyph glyph-name="Etatonos" unicode="&#x389;" horiz-adv-x="215" 
d="M55 0v190h20v-81h100v81h20v-190h-20v91h-100v-91h-20zM40 215h-25l-5 -55h10zM20 215z" />
    <glyph glyph-name="Iotatonos" unicode="&#x38a;" horiz-adv-x="145" 
d="M55 0v15h25v160h-25v15h70v-15h-25v-160h25v-15h-70zM45 215h-25l-5 -55h10zM25 215z" />
    <glyph glyph-name="Omicrontonos" unicode="&#x38c;" horiz-adv-x="230" 
d="M40 95c0 30 7.83301 54.167 23.5 72.5s37 27.5 64 27.5s48.333 -9.16699 64 -27.5s23.5 -42.5 23.5 -72.5s-7.83301 -54.167 -23.5 -72.5s-37 -27.5 -64 -27.5s-48.333 9.16699 -64 27.5s-23.5 42.5 -23.5 72.5zM62 95c0 -23.333 5.83301 -43.333 17.5 -60
s27.667 -25 48 -25s36.333 8.33301 48 25s17.5 36.667 17.5 60s-5.83301 43.333 -17.5 60s-27.667 25 -48 25s-36.333 -8.33301 -48 -25s-17.5 -36.667 -17.5 -60zM40 215h-25l-5 -55h10zM20 215z" />
    <glyph glyph-name="Upsilontonos" unicode="&#x38e;" horiz-adv-x="215" 
d="M45 190h24l61 -82l61 82h24l-75 -100v-90h-20v90zM40 215h-25l-5 -55h10zM20 215z" />
    <glyph glyph-name="Omegatonos" unicode="&#x38f;" horiz-adv-x="235" 
d="M45 0v18h50c-33.333 34.667 -50 66.167 -50 94.5s7.83301 49.166 23.5 62.499s37 20 64 20s48.333 -6.66699 64 -20s23.5 -34.166 23.5 -62.499s-16.667 -59.833 -50 -94.5h50v-18h-72v15c33.333 43.333 50 75.833 50 97.5s-5.83301 38.334 -17.5 50.001
s-27.667 17.5 -48 17.5s-36.333 -5.83301 -48 -17.5s-17.5 -28.334 -17.5 -50.001s16.667 -54.167 50 -97.5v-15h-72zM40 215h-25l-5 -55h10zM20 215z" />
    <glyph glyph-name="iotadieresistonos" unicode="&#x390;" horiz-adv-x="60" 
d="M20 0v140h20v-140h-20zM-10 165v20h20v-20h-20zM50 165v20h20v-20h-20zM50 225h-25l-5 -55h10zM30 225z" />
    <glyph glyph-name="Alpha" unicode="&#x391;" horiz-adv-x="180" 
d="M5 0l70 190h30l70 -190h-21l-22 61h-84l-22 -61h-21zM54 79h71l-35 96zM170 0z" />
    <glyph glyph-name="Beta" unicode="&#x392;" horiz-adv-x="170" 
d="M20 0v190h45c53.333 0 80 -17.333 80 -52c0 -8.66699 -3.33301 -16.667 -10 -24s-20.667 -11 -42 -11c41.333 0 62 -17.167 62 -51.5s-28.333 -51.5 -85 -51.5h-50zM40 109h30c34.667 0 52 10.5 52 31.5s-17.333 31.5 -52 31.5h-30v-63zM40 18h40
c34.667 0 52 12.167 52 36.5s-22.333 36.5 -67 36.5h-25v-73zM110 5z" />
    <glyph glyph-name="Gamma" unicode="&#x393;" horiz-adv-x="150" 
d="M20 0v190h130v-18h-110v-172h-20zM30 0z" />
    <glyph glyph-name="Delta" unicode="&#x394;" horiz-adv-x="180" 
d="M5 0l70 190h30l70 -190h-170zM32 18h116l-58 157zM170 0z" />
    <glyph glyph-name="Epsilon" unicode="&#x395;" 
d="M20 0v190h130v-18h-110v-64h90v-18h-90v-72h110v-18h-130zM145 0z" />
    <glyph glyph-name="Zeta" unicode="&#x396;" 
d="M10 0v28l122 144h-122v18h140v-28l-122 -144h122v-18h-140zM140 0z" />
    <glyph glyph-name="Eta" unicode="&#x397;" horiz-adv-x="180" 
d="M20 0v190h20v-81h100v81h20v-190h-20v91h-100v-91h-20zM155 0z" />
    <glyph glyph-name="Theta" unicode="&#x398;" horiz-adv-x="205" 
d="M15 95c0 30 7.83301 54.167 23.5 72.5s37 27.5 64 27.5s48.333 -9.16699 64 -27.5s23.5 -42.5 23.5 -72.5s-7.83301 -54.167 -23.5 -72.5s-37 -27.5 -64 -27.5s-48.333 9.16699 -64 27.5s-23.5 42.5 -23.5 72.5zM37 95c0 -23.333 5.83301 -43.333 17.5 -60
s27.667 -25 48 -25s36.333 8.33301 48 25s17.5 36.667 17.5 60s-5.83301 43.333 -17.5 60s-27.667 25 -48 25s-36.333 -8.33301 -48 -25s-17.5 -36.667 -17.5 -60zM55 85v18h95v-18h-95zM140 6z" />
    <glyph glyph-name="Iota" unicode="&#x399;" horiz-adv-x="110" 
d="M20 0v15h25v160h-25v15h70v-15h-25v-160h25v-15h-70zM85 0z" />
    <glyph glyph-name="Kappa" unicode="&#x39a;" horiz-adv-x="175" 
d="M20 0v190h20v-99l99 99h26l-83 -83l93 -107h-26l-81 93l-28 -28v-65h-20zM165 0z" />
    <glyph glyph-name="Lambda" unicode="&#x39b;" horiz-adv-x="180" 
d="M5 0l70 190h30l70 -190h-21l-64 175l-64 -175h-21zM170 0z" />
    <glyph glyph-name="Mu" unicode="&#x39c;" horiz-adv-x="220" 
d="M20 0v190h30l60 -100l60 100h30v-190h-20v168l-65 -108h-10l-65 108v-168h-20zM195 0z" />
    <glyph glyph-name="Nu" unicode="&#x39d;" horiz-adv-x="190" 
d="M20 0v190h28l102 -165v165h20v-190h-28l-102 165v-165h-20zM165 0z" />
    <glyph glyph-name="Xi" unicode="&#x39e;" horiz-adv-x="170" 
d="M10 0v18h150v-18h-150zM20 90v18h130v-18h-130zM10 172v18h150v-18h-150zM155 0z" />
    <glyph glyph-name="Omicron" unicode="&#x39f;" horiz-adv-x="205" 
d="M15 95c0 30 7.83301 54.167 23.5 72.5s37 27.5 64 27.5s48.333 -9.16699 64 -27.5s23.5 -42.5 23.5 -72.5s-7.83301 -54.167 -23.5 -72.5s-37 -27.5 -64 -27.5s-48.333 9.16699 -64 27.5s-23.5 42.5 -23.5 72.5zM37 95c0 -23.333 5.83301 -43.333 17.5 -60
s27.667 -25 48 -25s36.333 8.33301 48 25s17.5 36.667 17.5 60s-5.83301 43.333 -17.5 60s-27.667 25 -48 25s-36.333 -8.33301 -48 -25s-17.5 -36.667 -17.5 -60zM140 6z" />
    <glyph glyph-name="Pi" unicode="&#x3a0;" horiz-adv-x="180" 
d="M20 0v190h140v-190h-20v172h-100v-172h-20zM155 0z" />
    <glyph glyph-name="Rho" unicode="&#x3a1;" horiz-adv-x="165" 
d="M20 0v190h45c60 0 90 -20 90 -60s-30 -60 -90 -60h-25v-70h-20zM40 88h30c41.333 0 62 14 62 42s-20.667 42 -62 42h-30v-84zM30 0z" />
    <glyph glyph-name="Sigma" unicode="&#x3a3;" horiz-adv-x="155" 
d="M15 0v25l92 70l-92 70v25h130v-18h-108l88 -67v-20l-88 -67h108v-18h-130zM140 0z" />
    <glyph glyph-name="Tau" unicode="&#x3a4;" horiz-adv-x="150" 
d="M65 0v172h-65v18h150v-18h-65v-172h-20zM75 0z" />
    <glyph glyph-name="Upsilon" unicode="&#x3a5;" horiz-adv-x="170" 
d="M0 190h24l61 -82l61 82h24l-75 -100v-90h-20v90zM85 0z" />
    <glyph glyph-name="Phi" unicode="&#x3a6;" horiz-adv-x="200" 
d="M15 95c0 26.667 7.5 46.5 22.5 59.5s32.5 19.833 52.5 20.5v20h20v-20c20 -0.666992 37.5 -7.5 52.5 -20.5s22.5 -32.833 22.5 -59.5s-7.5 -46.5 -22.5 -59.5s-32.5 -19.833 -52.5 -20.5v-20h-20v20c-20 0.666992 -37.5 7.5 -52.5 20.5s-22.5 32.833 -22.5 59.5zM37 95
c0 -21.333 5.5 -37.3311 16.5 -47.998s23.167 -16.334 36.5 -17.001v130c-13.333 -0.666992 -25.5 -6.33398 -36.5 -17.001s-16.5 -26.667 -16.5 -48zM110 30.002c13.333 0.666992 25.5 6.33203 36.5 16.999s16.5 26.667 16.5 48s-5.5 37.333 -16.5 48
s-23.167 16.334 -36.5 17.001v-130zM105 -5z" />
    <glyph glyph-name="Chi" unicode="&#x3a7;" horiz-adv-x="170" 
d="M10 0l63 95l-63 95h24l51 -77l51 77h24l-63 -95l63 -95h-24l-51 77l-51 -77h-24zM145 0z" />
    <glyph glyph-name="Psi" unicode="&#x3a8;" horiz-adv-x="190" 
d="M10 190h20v-40c0 -48 18.333 -72 55 -72v112h20v-112c36.667 0 55 24 55 72v40h20v-40c0 -60 -25 -90 -75 -90v-60h-20v60c-50 0 -75 30 -75 90v40zM100 0z" />
    <glyph glyph-name="Omega" unicode="&#x3a9;" horiz-adv-x="205" 
d="M15 0v18h50c-33.333 34.667 -50 66.167 -50 94.5s7.83301 49.166 23.5 62.499s37 20 64 20s48.333 -6.66699 64 -20s23.5 -34.166 23.5 -62.499s-16.667 -59.833 -50 -94.5h50v-18h-72v15c33.333 43.333 50 75.833 50 97.5s-5.83301 38.334 -17.5 50.001
s-27.667 17.5 -48 17.5s-36.333 -5.83301 -48 -17.5s-17.5 -28.334 -17.5 -50.001s16.667 -54.167 50 -97.5v-15h-72zM140 6z" />
    <glyph glyph-name="Iotadieresis" unicode="&#x3aa;" horiz-adv-x="110" 
d="M20 0v15h25v160h-25v15h70v-15h-25v-160h25v-15h-70zM15 205v20h20v-20h-20zM75 205v20h20v-20h-20zM55 230z" />
    <glyph glyph-name="Upsilondieresis" unicode="&#x3ab;" horiz-adv-x="170" 
d="M0 190h24l61 -82l61 82h24l-75 -100v-90h-20v90zM45 205v20h20v-20h-20zM105 205v20h20v-20h-20zM85 230z" />
    <glyph glyph-name="alphatonos" unicode="&#x3ac;" horiz-adv-x="175" 
d="M15 70c0 23.333 5.5 41.668 16.5 55.001s26.5 20 46.5 20c24.667 0 43 -13.333 55 -40l12 35h20l-22 -70l22 -70h-20l-12 35c-12 -26.667 -30.333 -40 -55 -40c-20 0 -35.5 6.66699 -46.5 20s-16.5 31.666 -16.5 54.999zM37 70.002
c0 -16.667 3.83301 -30.834 11.5 -42.501s17.334 -17.5 29.001 -17.5s21.667 5.83301 30 17.5s14.166 25.834 17.499 42.501c-3.33301 16.667 -9.16602 30.834 -17.499 42.501s-18.333 17.5 -30 17.5s-21.334 -5.83301 -29.001 -17.5s-11.5 -25.834 -11.5 -42.501z
M105 215.002h-25l-5 -55h10zM85 215.002z" />
    <glyph glyph-name="epsilontonos" unicode="&#x3ad;" horiz-adv-x="135" 
d="M15 42.5c0 18.333 8.33398 29.167 25.001 32.5c-16.667 3.33301 -25 12.5 -25 27.5s5.83301 25.833 17.5 32.5s25.834 10 42.501 10c20 0 36.667 -5 50 -15v-18c-15.333 12 -32 18 -50 18c-13.333 0 -23 -2.5 -29 -7.5s-9 -10.833 -9 -17.5s3.83301 -12 11.5 -16
s23.167 -6 46.5 -6v-18c-23.333 0 -38.833 -1.66699 -46.5 -5s-11.5 -10 -11.5 -20s3.83301 -17.5 11.5 -22.5s17.667 -7.5 30 -7.5s27.833 6 46.5 18v-18c-16.667 -10 -33.334 -15 -50.001 -15s-30.834 3.33301 -42.501 10s-17.5 19.167 -17.5 37.5zM90.001 215.001h-25
l-5 -55h10zM70.001 215.001z" />
    <glyph glyph-name="etatonos" unicode="&#x3ae;" horiz-adv-x="155" 
d="M20 0l-0.000976562 140h20v-23c13.333 17.333 28.333 26 45 26s29.167 -3.83301 37.5 -11.5s12.5 -21.5 12.5 -41.5v-143h-20v138c0 13.333 -2.5 23.5 -7.5 30.5s-14.167 10.5 -27.5 10.5s-26.666 -8.66699 -39.999 -26v-100h-20zM99.999 215h-25l-5 -55h10zM79.999 215z
" />
    <glyph glyph-name="iotatonos" unicode="&#x3af;" horiz-adv-x="60" 
d="M20 0v140h20v-140h-20zM50 215h-25l-5 -55h10zM30 215z" />
    <glyph glyph-name="upsilondieresistonos" unicode="&#x3b0;" 
d="M20 50v90h20v-85c0 -16.667 2.5 -28.334 7.5 -35.001s15.833 -10 32.5 -10s27.5 3.33301 32.5 10s7.5 18.334 7.5 35.001v85h20v-90c0 -20 -5 -34.167 -15 -42.5s-25 -12.5 -45 -12.5s-35 4.16699 -45 12.5s-15 22.5 -15 42.5zM40 165v20h20v-20h-20zM100 165v20h20v-20
h-20zM100 225h-25l-5 -55h10zM80 225z" />
    <glyph glyph-name="alpha" unicode="&#x3b1;" horiz-adv-x="175" 
d="M15 70c0 23.333 5.5 41.668 16.5 55.001s26.5 20 46.5 20c24.667 0 43 -13.333 55 -40l12 35h20l-22 -70l22 -70h-20l-12 35c-12 -26.667 -30.333 -40 -55 -40c-20 0 -35.5 6.66699 -46.5 20s-16.5 31.666 -16.5 54.999zM37 70.002
c0 -16.667 3.83301 -30.834 11.5 -42.501s17.334 -17.5 29.001 -17.5s21.667 5.83301 30 17.5s14.166 25.834 17.499 42.501c-3.33301 16.667 -9.16602 30.834 -17.499 42.501s-18.333 17.5 -30 17.5s-21.334 -5.83301 -29.001 -17.5s-11.5 -25.834 -11.5 -42.501z
M160 0.00195312z" />
    <glyph glyph-name="beta" unicode="&#x3b2;" 
d="M20 -53l-0.000976562 192.999c0 42 20 63 60 63c33.333 0 50 -17.667 50 -53c0 -21.333 -13.333 -33.666 -40 -36.999c36.667 -3.33301 55 -21 55 -53c0 -20 -5 -35.833 -15 -47.5s-24.167 -17.5 -42.5 -17.5s-34.166 5 -47.499 15v-63h-20zM39.999 24.999
c12 -10 25.833 -15 41.5 -15s26.5 5 32.5 15s9 20.833 9 32.5s-3 22 -9 31s-24 13.5 -54 13.5v18c32 0 48 10 48 30c0 25.333 -9.33301 38 -28 38c-26.667 0 -40 -12.667 -40 -38v-125zM114.999 4.99902z" />
    <glyph glyph-name="gamma" unicode="&#x3b3;" horiz-adv-x="140" 
d="M0 140h21l49 -97l49 97h21l-60 -120v-73h-20v73zM75 -53z" />
    <glyph glyph-name="delta" unicode="&#x3b4;" horiz-adv-x="165" 
d="M15 65c0 33.333 22.6689 58.333 68.002 75l-58 43v17h120v-18h-85c60 -41.333 90 -80.333 90 -117c0 -23.333 -5.83301 -40.833 -17.5 -52.5s-28.334 -17.5 -50.001 -17.5s-38.334 6.66699 -50.001 20s-17.5 30 -17.5 50zM37.002 65
c0 -13.333 3.83301 -25.833 11.5 -37.5s19 -17.5 34 -17.5s26.333 5 34 15s11.5 23.333 11.5 40c0 20 -11 42 -33 66c-38.667 -17.333 -58 -39.333 -58 -66zM120.002 8z" />
    <glyph glyph-name="epsilon" unicode="&#x3b5;" horiz-adv-x="135" 
d="M15 42.5c0 18.333 8.33398 29.167 25.001 32.5c-16.667 3.33301 -25 12.5 -25 27.5s5.83301 25.833 17.5 32.5s25.834 10 42.501 10c20 0 36.667 -5 50 -15v-18c-15.333 12 -32 18 -50 18c-13.333 0 -23 -2.5 -29 -7.5s-9 -10.833 -9 -17.5s3.83301 -12 11.5 -16
s23.167 -6 46.5 -6v-18c-23.333 0 -38.833 -1.66699 -46.5 -5s-11.5 -10 -11.5 -20s3.83301 -17.5 11.5 -22.5s17.667 -7.5 30 -7.5s27.833 6 46.5 18v-18c-16.667 -10 -33.334 -15 -50.001 -15s-30.834 3.33301 -42.501 10s-17.5 19.167 -17.5 37.5zM120.001 10.001z" />
    <glyph glyph-name="zeta" unicode="&#x3b6;" horiz-adv-x="130" 
d="M15 65c0 31.333 27.333 70.333 82 117h-82v18h110v-15c-58.667 -53.333 -88 -93.333 -88 -120c0 -13.333 3.83301 -25 11.5 -35s21.5 -15 41.5 -15c12 0 20.833 -2.5 26.5 -7.5s8.5 -12.5 8.5 -22.5s-5 -21.667 -15 -35h-20c10 16.667 15 28.334 15 35.001
c0 5.33301 -2.16699 9.16602 -6.5 11.499s-10.5 3.5 -18.5 3.5c-20 -0 -35.833 5.83301 -47.5 17.5s-17.5 27.5 -17.5 47.5zM105 -50z" />
    <glyph glyph-name="eta" unicode="&#x3b7;" horiz-adv-x="155" 
d="M20 0l-0.000976562 140h20v-23c13.333 17.333 28.333 26 45 26s29.167 -3.83301 37.5 -11.5s12.5 -21.5 12.5 -41.5v-143h-20v138c0 13.333 -2.5 23.5 -7.5 30.5s-14.167 10.5 -27.5 10.5s-26.666 -8.66699 -39.999 -26v-100h-20zM34.999 0z" />
    <glyph glyph-name="theta" unicode="&#x3b8;" horiz-adv-x="165" 
d="M15 100c0 30 5.83301 55 17.5 75s28.334 30 50.001 30s38.334 -10 50.001 -30s17.5 -45 17.5 -75s-5.83301 -55 -17.5 -75s-28.334 -30 -50.001 -30s-38.334 10 -50.001 30s-17.5 45 -17.5 75zM36 110h93c0 20 -4 38.333 -12 55s-19.5 25 -34.5 25
s-26.5 -8.33301 -34.5 -25s-12 -35 -12 -55zM48 35c8 -16.667 19.5 -25 34.5 -25s26.5 8.33301 34.5 25s12 35 12 55h-93c0 -20 4 -38.333 12 -55zM110 5z" />
    <glyph glyph-name="iota" unicode="&#x3b9;" horiz-adv-x="60" 
d="M20 0v140h20v-140h-20zM35 0z" />
    <glyph glyph-name="kappa" unicode="&#x3ba;" horiz-adv-x="145" 
d="M20 0l-0.000976562 140h20v-65l49 49c9.33301 10.667 23 16 41 16v-20c-11.333 0 -19.666 -2.66699 -24.999 -8l-28 -28l68 -84h-25l-57 70l-23 -23v-47h-20zM134.999 0z" />
    <glyph glyph-name="lambda" unicode="&#x3bb;" horiz-adv-x="140" 
d="M0 0l62 115l-43 85h21l100 -200h-21l-47 95l-51 -95h-21zM130 0z" />
    <glyph glyph-name="glyph144" unicode="&#x3bc;" horiz-adv-x="155" 
d="M20 -53l-0.000976562 193h20v-105c10 -14 22 -21 36 -21s27 9.33301 39 28v98h20v-140h-20v25c-13.333 -18.667 -27.166 -28 -41.499 -28s-25.5 6 -33.5 18v-68h-20zM129.999 0z" />
    <glyph glyph-name="nu" unicode="&#x3bd;" horiz-adv-x="140" 
d="M0 140h20l50 -117l50 117h20l-60 -140h-20zM75 0z" />
    <glyph glyph-name="xi" unicode="&#x3be;" horiz-adv-x="135" 
d="M15 55c0 16.667 3.33105 29.165 9.99805 37.498s18.334 12.833 35.001 13.5c-23.333 6 -35 18.167 -35 36.5s6.66699 31.5 20 39.5h-30v18h105v-18h-45c-18.667 -8 -28 -19 -28 -33s4.66699 -23.5 14 -28.5s27.333 -7.5 54 -7.5v-17
c-31.333 0 -52.166 -2.66699 -62.499 -8s-15.5 -16.333 -15.5 -33c0 -13.333 3.83301 -23.333 11.5 -30s21.5 -10 41.5 -10c12 0 20.833 -2.5 26.5 -7.5s8.5 -12.5 8.5 -22.5s-5 -21.667 -15 -35h-20c10 16.667 15 28.334 15 35.001s-1.66699 10.834 -5 12.501
s-10 2.5 -20 2.5c-20 0 -35.833 5 -47.5 15s-17.5 23.333 -17.5 40zM104.998 -50.002z" />
    <glyph glyph-name="omicron" unicode="&#x3bf;" horiz-adv-x="165" 
d="M15 70c0 23.333 5.83301 41.666 17.5 54.999s28.334 20 50.001 20s38.334 -6.66699 50.001 -20s17.5 -31.666 17.5 -54.999s-5.83301 -41.666 -17.5 -54.999s-28.334 -20 -50.001 -20s-38.334 6.66699 -50.001 20s-17.5 31.666 -17.5 54.999zM36 70
c0 -16.667 4 -30.834 12 -42.501s19.5 -17.5 34.5 -17.5s26.5 5.83301 34.5 17.5s12 25.834 12 42.501s-4 30.834 -12 42.501s-19.5 17.5 -34.5 17.5s-26.5 -5.83301 -34.5 -17.5s-12 -25.834 -12 -42.501zM121 10z" />
    <glyph glyph-name="pi" unicode="&#x3c0;" 
d="M10 122v18h140v-18h-20v-122h-20v122h-60v-122h-20v122h-20zM125 0z" />
    <glyph glyph-name="rho" unicode="&#x3c1;" 
d="M20 -53l-0.00195312 128c0 23.333 5.83301 40.5 17.5 51.5s25.834 16.5 42.501 16.5c23.333 0 40 -6.33301 50 -19s15 -30.667 15 -54s-5 -41.333 -15 -54s-24.167 -19 -42.5 -19s-34.166 4.33301 -47.499 13v-63h-20zM39.998 25c12 -8.66699 25.833 -13 41.5 -13
s26.5 5.5 32.5 16.5s9 24.833 9 41.5s-3 30.5 -9 41.5s-17.333 16.5 -34 16.5c-11.333 0 -20.833 -3.83301 -28.5 -11.5s-11.5 -21.5 -11.5 -41.5v-50zM114.998 8z" />
    <glyph glyph-name="sigma1" unicode="&#x3c2;" horiz-adv-x="145" 
d="M15 72.5c0 21.667 6.66699 39.165 20 52.498s30 20 50 20s36.667 -3.33301 50 -10v-15c-15.333 6.66699 -30.833 10 -46.5 10s-28.167 -5.83301 -37.5 -17.5s-14 -25 -14 -40s3.83301 -28 11.5 -39s21.5 -16.5 41.5 -16.5c12 0 20.833 -2.83301 26.5 -8.5
s8.5 -13.5 8.5 -23.5s-5 -21.667 -15 -35h-20c10 16.667 15 28.334 15 35.001s-1.66699 10.834 -5 12.501s-10 2.5 -20 2.5c-20 0 -35.833 6.66699 -47.5 20s-17.5 30.833 -17.5 52.5zM105 -50.002z" />
    <glyph glyph-name="sigma" unicode="&#x3c3;" horiz-adv-x="175" 
d="M15 70c0 23.333 5.83203 40.832 17.499 52.499s25.834 17.5 42.501 17.5h100v-18h-47c11.333 -13.333 17 -31.166 17 -53.499s-5.83301 -40.166 -17.5 -53.499s-27.5 -20 -47.5 -20s-35.833 6.66699 -47.5 20s-17.5 31.666 -17.5 54.999zM36.999 69.999
c0 -16.667 3.83301 -30.834 11.5 -42.501s18.167 -17.5 31.5 -17.5s23.833 5.83301 31.5 17.5s11.5 25.834 11.5 42.501s-4.33301 34 -13 52h-35c-13.333 0 -23 -4.5 -29 -13.5s-9 -21.833 -9 -38.5zM109.999 7.99902z" />
    <glyph glyph-name="tau" unicode="&#x3c4;" horiz-adv-x="120" 
d="M5 122v18h110v-18h-45v-122h-20v122h-45zM65 0z" />
    <glyph glyph-name="upsilon" unicode="&#x3c5;" 
d="M20 50v90h20v-85c0 -16.667 2.5 -28.334 7.5 -35.001s15.833 -10 32.5 -10s27.5 3.33301 32.5 10s7.5 18.334 7.5 35.001v85h20v-90c0 -20 -5 -34.167 -15 -42.5s-25 -12.5 -45 -12.5s-35 4.16699 -45 12.5s-15 22.5 -15 42.5zM120 8z" />
    <glyph glyph-name="phi" unicode="&#x3c6;" horiz-adv-x="180" 
d="M15 70c0 33.333 11.667 56.667 35 70h17c-20 -20 -30 -43.333 -30 -70c0 -16.667 3.83301 -30.667 11.5 -42s18.167 -17.333 31.5 -18v130h20c20 0 35.833 -5.83301 47.5 -17.5s17.5 -29.167 17.5 -52.5s-5.83301 -41.5 -17.5 -54.5s-27.5 -19.833 -47.5 -20.5v-45h-20
v45c-20 0.666992 -35.833 7.5 -47.5 20.5s-17.5 31.167 -17.5 54.5zM100 10.001c13.333 0.666992 23.833 6.66699 31.5 18s11.5 25.333 11.5 42s-3.83301 30 -11.5 40s-18.167 15 -31.5 15v-115zM95 -49.999z" />
    <glyph glyph-name="chi" unicode="&#x3c7;" horiz-adv-x="120" 
d="M0 -50l49 95l-49 95h22l38 -75l38 75h22l-49 -95l49 -95h-22l-38 74l-38 -74h-22zM115 -50z" />
    <glyph glyph-name="psi" unicode="&#x3c8;" horiz-adv-x="210" 
d="M20 80v60h20v-60c0 -45.333 18.333 -68 55 -68v128h20v-128c36.667 0 55 22.667 55 68v60h20v-60c0 -55.333 -25 -83 -75 -83v-47h-20v47c-50 0 -75 27.667 -75 83zM110 -50z" />
    <glyph glyph-name="omega" unicode="&#x3c9;" horiz-adv-x="220" 
d="M15 70c0 26.667 11.667 50 35 70h20c-22 -23.333 -33 -46.666 -33 -69.999c0 -20 2.16699 -34.667 6.5 -44s12.333 -14 24 -14s20 5 25 15s7.5 32.667 7.5 68h20c0 -35.333 2.5 -58 7.5 -68s13.333 -15 25 -15s19.667 4.66699 24 14s6.5 24 6.5 44
c0 23.333 -11 46.666 -33 69.999h20c23.333 -20 35 -43.333 35 -70s-4.16699 -45.5 -12.5 -56.5s-22.5 -16.5 -42.5 -16.5s-33.333 8.33301 -40 25c-6.66699 -16.667 -20 -25 -40 -25s-34.167 5.5 -42.5 16.5s-12.5 29.833 -12.5 56.5zM178 8z" />
    <glyph glyph-name="iotadieresis" unicode="&#x3ca;" horiz-adv-x="60" 
d="M20 0v140h20v-140h-20zM-10 165v20h20v-20h-20zM50 165v20h20v-20h-20zM30 190z" />
    <glyph glyph-name="upsilondieresis" unicode="&#x3cb;" 
d="M20 50v90h20v-85c0 -16.667 2.5 -28.334 7.5 -35.001s15.833 -10 32.5 -10s27.5 3.33301 32.5 10s7.5 18.334 7.5 35.001v85h20v-90c0 -20 -5 -34.167 -15 -42.5s-25 -12.5 -45 -12.5s-35 4.16699 -45 12.5s-15 22.5 -15 42.5zM40 165v20h20v-20h-20zM100 165v20h20v-20
h-20zM80 190z" />
    <glyph glyph-name="omicrontonos" unicode="&#x3cc;" horiz-adv-x="165" 
d="M15 70c0 23.333 5.83301 41.666 17.5 54.999s28.334 20 50.001 20s38.334 -6.66699 50.001 -20s17.5 -31.666 17.5 -54.999s-5.83301 -41.666 -17.5 -54.999s-28.334 -20 -50.001 -20s-38.334 6.66699 -50.001 20s-17.5 31.666 -17.5 54.999zM36 70
c0 -16.667 4 -30.834 12 -42.501s19.5 -17.5 34.5 -17.5s26.5 5.83301 34.5 17.5s12 25.834 12 42.501s-4 30.834 -12 42.501s-19.5 17.5 -34.5 17.5s-26.5 -5.83301 -34.5 -17.5s-12 -25.834 -12 -42.501zM103 215h-25l-5 -55h10zM83 215z" />
    <glyph glyph-name="upsilontonos" unicode="&#x3cd;" 
d="M20 50v90h20v-85c0 -16.667 2.5 -28.334 7.5 -35.001s15.833 -10 32.5 -10s27.5 3.33301 32.5 10s7.5 18.334 7.5 35.001v85h20v-90c0 -20 -5 -34.167 -15 -42.5s-25 -12.5 -45 -12.5s-35 4.16699 -45 12.5s-15 22.5 -15 42.5zM100 215h-25l-5 -55h10zM80 215z" />
    <glyph glyph-name="omegatonos" unicode="&#x3ce;" horiz-adv-x="220" 
d="M15 70c0 26.667 11.667 50 35 70h20c-22 -23.333 -33 -46.666 -33 -69.999c0 -20 2.16699 -34.667 6.5 -44s12.333 -14 24 -14s20 5 25 15s7.5 32.667 7.5 68h20c0 -35.333 2.5 -58 7.5 -68s13.333 -15 25 -15s19.667 4.66699 24 14s6.5 24 6.5 44
c0 23.333 -11 46.666 -33 69.999h20c23.333 -20 35 -43.333 35 -70s-4.16699 -45.5 -12.5 -56.5s-22.5 -16.5 -42.5 -16.5s-33.333 8.33301 -40 25c-6.66699 -16.667 -20 -25 -40 -25s-34.167 5.5 -42.5 16.5s-12.5 29.833 -12.5 56.5zM130 215h-25l-5 -55h10zM110 215z" />
    <glyph glyph-name="Upsilonacutehooksymbolgreek" unicode="&#x3d3;" horiz-adv-x="215" 
d="M45 190h24l61 -82l61 82h24l-75 -100v-90h-20v90zM40 215h-25l-5 -55h10zM20 215z" />
    <glyph glyph-name="Upsilondieresishooksymbolgreek" unicode="&#x3d4;" horiz-adv-x="170" 
d="M0 190h24l61 -82l61 82h24l-75 -100v-90h-20v90zM45 205v20h20v-20h-20zM105 205v20h20v-20h-20zM85 230z" />
    <glyph glyph-name="Bdotaccent" unicode="&#x1e02;" horiz-adv-x="170" 
d="M20 0v190h45c53.333 0 80 -17.333 80 -52c0 -8.66699 -3.33301 -16.667 -10 -24s-20.667 -11 -42 -11c41.333 0 62 -17.167 62 -51.5s-28.333 -51.5 -85 -51.5h-50zM40 109h30c34.667 0 52 10.5 52 31.5s-17.333 31.5 -52 31.5h-30v-63zM40 18h40
c34.667 0 52 12.167 52 36.5s-22.333 36.5 -67 36.5h-25v-73zM65 205v25h20v-25h-20zM75 235z" />
    <glyph glyph-name="bdotaccent" unicode="&#x1e03;" 
d="M20 0v200h20v-70c13.333 8.66699 29.166 13 47.499 13s32.5 -6.33301 42.5 -19s15 -30.667 15 -54s-5 -41.333 -15 -54s-24.167 -19 -42.5 -19s-34.166 4.33301 -47.499 13v-10h-20zM40 25c12 -8.66699 25.833 -13 41.5 -13s26.5 5.5 32.5 16.5s9 24.833 9 41.5
s-3 30.5 -9 41.5s-16.833 16.5 -32.5 16.5s-29.5 -4.33301 -41.5 -13v-90zM80 185v25h20v-25h-20zM90 215z" />
    <glyph glyph-name="Bdotbelow" unicode="&#x1e04;" horiz-adv-x="170" 
d="M20 0v190h45c53.333 0 80 -17.333 80 -52c0 -8.66699 -3.33301 -16.667 -10 -24s-20.667 -11 -42 -11c41.333 0 62 -17.167 62 -51.5s-28.333 -51.5 -85 -51.5h-50zM40 109h30c34.667 0 52 10.5 52 31.5s-17.333 31.5 -52 31.5h-30v-63zM40 18h40
c34.667 0 52 12.167 52 36.5s-22.333 36.5 -67 36.5h-25v-73zM65 -50v25h20v-25h-20zM75 -10z" />
    <glyph glyph-name="bdotbelow" unicode="&#x1e05;" 
d="M20 0v200h20v-70c13.333 8.66699 29.166 13 47.499 13s32.5 -6.33301 42.5 -19s15 -30.667 15 -54s-5 -41.333 -15 -54s-24.167 -19 -42.5 -19s-34.166 4.33301 -47.499 13v-10h-20zM40 25c12 -8.66699 25.833 -13 41.5 -13s26.5 5.5 32.5 16.5s9 24.833 9 41.5
s-3 30.5 -9 41.5s-16.833 16.5 -32.5 16.5s-29.5 -4.33301 -41.5 -13v-90zM70 -50v25h20v-25h-20zM80 -10z" />
    <glyph glyph-name="Ccedillaacute" unicode="&#x1e08;" horiz-adv-x="185" 
d="M15 95c0 33.333 8.33301 58.333 25 75s40 25 70 25c23.333 0 43.333 -8.33301 60 -25v-20c-23.333 20 -43.333 30 -60 30c-23.333 0 -41.333 -7.5 -54 -22.5s-19 -35.833 -19 -62.5s6.33301 -47.5 19 -62.5s30.667 -22.5 54 -22.5c16.667 0 36.667 10 60 30v-20
c-16.667 -16.667 -36.667 -25 -60 -25c-30 0 -53.333 8.33301 -70 25s-25 41.667 -25 75zM80 -50v17c10 -3.33301 17 -5 21 -5s7.16699 0.666992 9.5 2s3.5 3.5 3.5 6.5s-1.16699 5.66699 -3.5 8s-7.5 3.5 -15.5 3.5l3 18h17l-1 -10c5.33301 0 9.33301 -1.66699 12 -5
s4 -8.83301 4 -16.5s-2.5 -13.167 -7.5 -16.5s-11.667 -5 -20 -5s-15.833 1 -22.5 3zM135 250h-25l-25 -45h15zM115 255z" />
    <glyph glyph-name="ccedillaacute" unicode="&#x1e09;" horiz-adv-x="145" 
d="M15 70c0 23.333 6.66699 41.6699 20 55.0029s30 20 50 20s36.667 -5 50 -15v-20c-16.667 13.333 -32.5 20 -47.5 20s-27.333 -5.83301 -37 -17.5s-14.5 -25.834 -14.5 -42.501s4.83301 -30.834 14.5 -42.501s22 -17.5 37 -17.5s30.833 6.66699 47.5 20v-20
c-13.333 -10 -30 -15 -50 -15s-36.667 6.66699 -50 20s-20 31.666 -20 54.999zM55 -49.9961v17c10 -3.33301 17 -5 21 -5s7.16699 0.666992 9.5 2s3.5 3.5 3.5 6.5s-1.16699 5.66699 -3.5 8s-7.5 3.5 -15.5 3.5l3 18h17l-1 -10c5.33301 0 9.33301 -1.66699 12 -5
s4 -8.83301 4 -16.5s-2.5 -13.167 -7.5 -16.5s-11.667 -5 -20 -5s-15.833 1 -22.5 3zM110 210.004h-25l-25 -45h15zM90 215.004z" />
    <glyph glyph-name="Ddotaccent" unicode="&#x1e0a;" horiz-adv-x="185" 
d="M20 0v190h40c73.333 0 110 -31.667 110 -95s-35 -95 -105 -95h-45zM40 18h30c52 0 78 25.667 78 77s-27.667 77 -83 77h-25v-154zM80 205v25h20v-25h-20zM90 235z" />
    <glyph glyph-name="ddotaccent" unicode="&#x1e0b;" 
d="M140 0v200h-20v-70c-13.333 8.66699 -29.166 13 -47.499 13s-32.5 -6.33301 -42.5 -19s-15 -30.667 -15 -54s5 -41.333 15 -54s24.167 -19 42.5 -19s34.166 4.33301 47.499 13v-10h20zM120 25c-12 -8.66699 -25.833 -13 -41.5 -13s-26.5 5.5 -32.5 16.5
s-9 24.833 -9 41.5s3 30.5 9 41.5s16.833 16.5 32.5 16.5s29.5 -4.33301 41.5 -13v-90zM60 185v25h20v-25h-20zM70 215z" />
    <glyph glyph-name="Ddotbelow" unicode="&#x1e0c;" horiz-adv-x="185" 
d="M20 0v190h40c73.333 0 110 -31.667 110 -95s-35 -95 -105 -95h-45zM40 18h30c52 0 78 25.667 78 77s-27.667 77 -83 77h-25v-154zM80 -50v25h20v-25h-20zM90 -10z" />
    <glyph glyph-name="ddotbelow" unicode="&#x1e0d;" 
d="M140 0v200h-20v-70c-13.333 8.66699 -29.166 13 -47.499 13s-32.5 -6.33301 -42.5 -19s-15 -30.667 -15 -54s5 -41.333 15 -54s24.167 -19 42.5 -19s34.166 4.33301 47.499 13v-10h20zM120 25c-12 -8.66699 -25.833 -13 -41.5 -13s-26.5 5.5 -32.5 16.5
s-9 24.833 -9 41.5s3 30.5 9 41.5s16.833 16.5 32.5 16.5s29.5 -4.33301 41.5 -13v-90zM70 -50v25h20v-25h-20zM80 -10z" />
    <glyph glyph-name="Dcedilla" unicode="&#x1e10;" horiz-adv-x="185" 
d="M20 0v190h40c73.333 0 110 -31.667 110 -95s-35 -95 -105 -95h-45zM40 18h30c52 0 78 25.667 78 77s-27.667 77 -83 77h-25v-154zM45 -45v17c10 -3.33301 17 -5 21 -5s7.16699 0.666992 9.5 2s3.5 3.5 3.5 6.5s-1.16699 5.66699 -3.5 8s-7.5 3.5 -15.5 3.5l3 18h17
l-1 -10c5.33301 0 9.33301 -1.66699 12 -5s4 -8.83301 4 -16.5s-2.5 -13.167 -7.5 -16.5s-11.667 -5 -20 -5s-15.833 1 -22.5 3zM70 5z" />
    <glyph glyph-name="dcedilla" unicode="&#x1e11;" 
d="M140 0v200h-20v-70c-13.333 8.66699 -29.166 13 -47.499 13s-32.5 -6.33301 -42.5 -19s-15 -30.667 -15 -54s5 -41.333 15 -54s24.167 -19 42.5 -19s34.166 4.33301 47.499 13v-10h20zM120 25c-12 -8.66699 -25.833 -13 -41.5 -13s-26.5 5.5 -32.5 16.5
s-9 24.833 -9 41.5s3 30.5 9 41.5s16.833 16.5 32.5 16.5s29.5 -4.33301 41.5 -13v-90zM55 -50v17c10 -3.33301 17 -5 21 -5s7.16699 0.666992 9.5 2s3.5 3.5 3.5 6.5s-1.16699 5.66699 -3.5 8s-7.5 3.5 -15.5 3.5l3 18h17l-1 -10c5.33301 0 9.33301 -1.66699 12 -5
s4 -8.83301 4 -16.5s-2.5 -13.167 -7.5 -16.5s-11.667 -5 -20 -5s-15.833 1 -22.5 3zM80 0z" />
    <glyph glyph-name="Emacrongrave" unicode="&#x1e14;" 
d="M20 0v190h130v-18h-110v-64h90v-18h-90v-72h110v-18h-130zM40 210v16h90v-16h-90zM55 285h25l25 -45h-15zM75 290z" />
    <glyph glyph-name="emacrongrave" unicode="&#x1e15;" 
d="M15 70c0 23.333 5.83301 41.668 17.5 55.001s27.5 20 47.5 20s35.833 -5.83301 47.5 -17.5s17.5 -32.5 17.5 -62.5h-109c0 -13.333 3.5 -25.5 10.5 -36.5s19.833 -16.5 38.5 -16.5c15.333 0 29.333 6 42 18l11 -10c-15.333 -16.667 -33 -25 -53 -25
c-23.333 0 -40.833 6.66699 -52.5 20s-17.5 31.666 -17.5 54.999zM36 81.002h88c0 12.667 -3.5 24 -10.5 34s-18.167 15 -33.5 15s-26.5 -5 -33.5 -15s-10.5 -21.333 -10.5 -34zM35 170.002v16h90v-16h-90zM50 245.002h25l25 -45h-15zM70 250.002z" />
    <glyph glyph-name="Emacronacute" unicode="&#x1e16;" 
d="M20 0v190h130v-18h-110v-64h90v-18h-90v-72h110v-18h-130zM40 210v16h90v-16h-90zM115 285h-25l-25 -45h15zM95 290z" />
    <glyph glyph-name="emacronacute" unicode="&#x1e17;" 
d="M15 70c0 23.333 5.83301 41.668 17.5 55.001s27.5 20 47.5 20s35.833 -5.83301 47.5 -17.5s17.5 -32.5 17.5 -62.5h-109c0 -13.333 3.5 -25.5 10.5 -36.5s19.833 -16.5 38.5 -16.5c15.333 0 29.333 6 42 18l11 -10c-15.333 -16.667 -33 -25 -53 -25
c-23.333 0 -40.833 6.66699 -52.5 20s-17.5 31.666 -17.5 54.999zM36 81.002h88c0 12.667 -3.5 24 -10.5 34s-18.167 15 -33.5 15s-26.5 -5 -33.5 -15s-10.5 -21.333 -10.5 -34zM35 170.002v16h90v-16h-90zM110 245.002h-25l-25 -45h15zM90 250.002z" />
    <glyph glyph-name="Ecedillabreve" unicode="&#x1e1c;" 
d="M20 0v190h130v-18h-110v-64h90v-18h-90v-72h110v-18h-130zM60 -50v17c10 -3.33301 17 -5 21 -5s7.16699 0.666992 9.5 2s3.5 3.5 3.5 6.5s-1.16699 5.66699 -3.5 8s-7.5 3.5 -15.5 3.5l3 18h17l-1 -10c5.33301 0 9.33301 -1.66699 12 -5s4 -8.83301 4 -16.5
s-2.5 -13.167 -7.5 -16.5s-11.667 -5 -20 -5s-15.833 1 -22.5 3zM45 250h13c1.33301 -11.333 4.5 -18.833 9.5 -22.5s10.833 -5.5 17.5 -5.5s12.5 1.83301 17.5 5.5s8.16699 11.167 9.5 22.5h13c0 -15.333 -3.66699 -26.666 -11 -33.999s-17 -11 -29 -11
s-21.667 3.66699 -29 11s-11 18.666 -11 33.999zM85 255z" />
    <glyph glyph-name="ecedillabreve" unicode="&#x1e1d;" 
d="M15 70c0 23.333 5.83301 41.668 17.5 55.001s27.5 20 47.5 20s35.833 -5.83301 47.5 -17.5s17.5 -32.5 17.5 -62.5h-109c0 -13.333 3.5 -25.5 10.5 -36.5s19.833 -16.5 38.5 -16.5c15.333 0 29.333 6 42 18l11 -10c-15.333 -16.667 -33 -25 -53 -25
c-23.333 0 -40.833 6.66699 -52.5 20s-17.5 31.666 -17.5 54.999zM36 81.002h88c0 12.667 -3.5 24 -10.5 34s-18.167 15 -33.5 15s-26.5 -5 -33.5 -15s-10.5 -21.333 -10.5 -34zM55 -49.998v17c10 -3.33301 17 -5 21 -5s7.16699 0.666992 9.5 2s3.5 3.5 3.5 6.5
s-1.16699 5.66699 -3.5 8s-7.5 3.5 -15.5 3.5l3 18h17l-1 -10c5.33301 0 9.33301 -1.66699 12 -5s4 -8.83301 4 -16.5s-2.5 -13.167 -7.5 -16.5s-11.667 -5 -20 -5s-15.833 1 -22.5 3zM40 210.002h13c1.33301 -11.333 4.5 -18.833 9.5 -22.5s10.833 -5.5 17.5 -5.5
s12.5 1.83301 17.5 5.5s8.16699 11.167 9.5 22.5h13c0 -15.333 -3.66699 -26.666 -11 -33.999s-17 -11 -29 -11s-21.667 3.66699 -29 11s-11 18.666 -11 33.999zM80 215.002z" />
    <glyph glyph-name="Fdotaccent" unicode="&#x1e1e;" horiz-adv-x="150" 
d="M20 0v190h130v-18h-110v-64h90v-18h-90v-90h-20zM75 205v25h20v-25h-20zM85 235z" />
    <glyph glyph-name="fdotaccent" unicode="&#x1e1f;" horiz-adv-x="90" 
d="M30 0l0.000976562 122h-25v18h25v10c0 16.667 4.16699 29.167 12.5 37.5s19.166 12.5 32.499 12.5c8 0 16.333 -1.66699 25 -5v-20c-8.66699 5.33301 -17 8 -25 8c-16.667 0 -25 -11 -25 -33v-10h40v-18h-40v-122h-20zM60.001 210v25h20v-25h-20zM70.001 240z" />
    <glyph glyph-name="Gmacron" unicode="&#x1e20;" horiz-adv-x="195" 
d="M15 95c0 33.333 8.33203 58.333 24.999 75s40 25 70 25s53.333 -8.33301 70 -25v-20c-23.333 20 -46.666 30 -69.999 30s-41.333 -7.5 -54 -22.5s-19 -35.833 -19 -62.5s6.33301 -47.5 19 -62.5s30.667 -22.5 54 -22.5c20 0 36.667 6.66699 50 20v52h-50v18h70v-80
c-20 -16.667 -43.333 -25 -70 -25c-30 0 -53.333 8.33301 -70 25s-25 41.667 -25 75zM64.999 210v16h90v-16h-90zM109.999 235z" />
    <glyph glyph-name="gmacron" unicode="&#x1e21;" 
d="M35 16c-10 2.66699 -15 9.33594 -15 20.0029s6.66699 17.667 20 21c-13.333 9.33301 -20 22.166 -20 38.499s5.83301 28.666 17.5 36.999s25 12.5 40 12.5s26.833 -1.66699 35.5 -5c14.667 -3.33301 28.667 -3.33301 42 0v-20h-17c4.66699 -7.33301 7 -17.5 7 -30.5
s-5.83301 -23.667 -17.5 -32s-24 -12.5 -37 -12.5h-35c-10.333 0 -15.5 -2.66699 -15.5 -8s6.66699 -8 20 -8c40 0 66.667 -3.5 80 -10.5s20 -17.167 20 -30.5s-6.66699 -23.5 -20 -30.5s-30.833 -10.5 -52.5 -10.5s-39.167 3.5 -52.5 10.5s-20 16.667 -20 29
s6.66699 22.166 20 29.499zM37 -10.998c0 -9.33301 4.66699 -16.168 14 -20.501s21.5 -6.5 36.5 -6.5s27.167 2.16699 36.5 6.5s14 10.333 14 18s-4.66699 14.334 -14 20.001s-34 8.5 -74 8.5c-8.66699 -8 -13 -16.667 -13 -26zM40 95c0 -10 4.16699 -18.5 12.5 -25.5
s18.333 -10.5 30 -10.5s21.667 3.5 30 10.5s12.5 15.5 12.5 25.5s-4.16699 18.5 -12.5 25.5s-18.333 10.5 -30 10.5s-21.667 -3.5 -30 -10.5s-12.5 -15.5 -12.5 -25.5zM40 170v16h90v-16h-90zM85 195z" />
    <glyph glyph-name="Hdotaccent" unicode="&#x1e22;" horiz-adv-x="180" 
d="M20 0v190h20v-81h100v81h20v-190h-20v91h-100v-91h-20zM80 205v25h20v-25h-20zM90 235z" />
    <glyph glyph-name="hdotaccent" unicode="&#x1e23;" horiz-adv-x="155" 
d="M20 0l-0.000976562 200h20v-83c13.333 17.333 28.333 26 45 26s29.167 -3.83301 37.5 -11.5s12.5 -21.5 12.5 -41.5v-90h-20v85c0 13.333 -2.5 23.5 -7.5 30.5s-14.167 10.5 -27.5 10.5s-26.666 -8.66699 -39.999 -26v-100h-20zM74.999 185v25h20v-25h-20zM84.999 215z
" />
    <glyph glyph-name="Hdotbelow" unicode="&#x1e24;" horiz-adv-x="180" 
d="M20 0v190h20v-81h100v81h20v-190h-20v91h-100v-91h-20zM80 -50v25h20v-25h-20zM90 -10z" />
    <glyph glyph-name="hdotbelow" unicode="&#x1e25;" horiz-adv-x="155" 
d="M20 0l-0.000976562 200h20v-83c13.333 17.333 28.333 26 45 26s29.167 -3.83301 37.5 -11.5s12.5 -21.5 12.5 -41.5v-90h-20v85c0 13.333 -2.5 23.5 -7.5 30.5s-14.167 10.5 -27.5 10.5s-26.666 -8.66699 -39.999 -26v-100h-20zM64.999 -50v25h20v-25h-20zM74.999 -10z
" />
    <glyph glyph-name="Hdieresis" unicode="&#x1e26;" horiz-adv-x="180" 
d="M20 0v190h20v-81h100v81h20v-190h-20v91h-100v-91h-20zM50 205v20h20v-20h-20zM110 205v20h20v-20h-20zM90 230z" />
    <glyph glyph-name="hdieresis" unicode="&#x1e27;" horiz-adv-x="155" 
d="M20 0l-0.000976562 200h20v-83c13.333 17.333 28.333 26 45 26s29.167 -3.83301 37.5 -11.5s12.5 -21.5 12.5 -41.5v-90h-20v85c0 13.333 -2.5 23.5 -7.5 30.5s-14.167 10.5 -27.5 10.5s-26.666 -8.66699 -39.999 -26v-100h-20zM44.999 185v20h20v-20h-20zM104.999 185
v20h20v-20h-20zM84.999 210z" />
    <glyph glyph-name="Hcedilla" unicode="&#x1e28;" horiz-adv-x="180" 
d="M20 0v190h20v-81h100v81h20v-190h-20v91h-100v-91h-20zM65 -55v17c10 -3.33301 17 -5 21 -5s7.16699 0.666992 9.5 2s3.5 3.5 3.5 6.5s-1.16699 5.66699 -3.5 8s-7.5 3.5 -15.5 3.5l3 18h17l-1 -10c5.33301 0 9.33301 -1.66699 12 -5s4 -8.83301 4 -16.5
s-2.5 -13.167 -7.5 -16.5s-11.667 -5 -20 -5s-15.833 1 -22.5 3zM90 -5z" />
    <glyph glyph-name="hcedilla" unicode="&#x1e29;" horiz-adv-x="155" 
d="M20 0l-0.000976562 200h20v-83c13.333 17.333 28.333 26 45 26s29.167 -3.83301 37.5 -11.5s12.5 -21.5 12.5 -41.5v-90h-20v85c0 13.333 -2.5 23.5 -7.5 30.5s-14.167 10.5 -27.5 10.5s-26.666 -8.66699 -39.999 -26v-100h-20zM49.999 -55v17c10 -3.33301 17 -5 21 -5
s7.16699 0.666992 9.5 2s3.5 3.5 3.5 6.5s-1.16699 5.66699 -3.5 8s-7.5 3.5 -15.5 3.5l3 18h17l-1 -10c5.33301 0 9.33301 -1.66699 12 -5s4 -8.83301 4 -16.5s-2.5 -13.167 -7.5 -16.5s-11.667 -5 -20 -5s-15.833 1 -22.5 3zM74.999 -5z" />
    <glyph glyph-name="Idieresisacute" unicode="&#x1e2e;" horiz-adv-x="110" 
d="M20 0v15h25v160h-25v15h70v-15h-25v-160h25v-15h-70zM15 205v20h20v-20h-20zM75 205v20h20v-20h-20zM85 280h-25l-25 -45h15zM65 285z" />
    <glyph glyph-name="idieresisacute" unicode="&#x1e2f;" horiz-adv-x="60" 
d="M20 0v140h20v-140h-20zM-10 165v20h20v-20h-20zM50 165v20h20v-20h-20zM60 240h-25l-25 -45h15zM40 245z" />
    <glyph glyph-name="Kacute" unicode="&#x1e30;" horiz-adv-x="175" 
d="M20 0v190h20v-99l99 99h26l-83 -83l93 -107h-26l-81 93l-28 -28v-65h-20zM120 250h-25l-25 -45h15zM100 255z" />
    <glyph glyph-name="kacute" unicode="&#x1e31;" horiz-adv-x="145" 
d="M20 0v200h20v-126l66 66h27l-56 -56l68 -84h-26l-56 69l-23 -22v-47h-20zM115 230h-25l-25 -45h15zM95 235z" />
    <glyph glyph-name="Kdotbelow" unicode="&#x1e32;" horiz-adv-x="175" 
d="M20 0v190h20v-99l99 99h26l-83 -83l93 -107h-26l-81 93l-28 -28v-65h-20zM80 -50v25h20v-25h-20zM90 -10z" />
    <glyph glyph-name="kdotbelow" unicode="&#x1e33;" horiz-adv-x="145" 
d="M20 0v200h20v-126l66 66h27l-56 -56l68 -84h-26l-56 69l-23 -22v-47h-20zM65 -50v25h20v-25h-20zM75 -10z" />
    <glyph glyph-name="Ldotbelow" unicode="&#x1e36;" horiz-adv-x="150" 
d="M20 0v190h20v-172h105v-18h-125zM70 -50v25h20v-25h-20zM80 -10z" />
    <glyph glyph-name="ldotbelow" unicode="&#x1e37;" horiz-adv-x="60" 
d="M20 0v200h20v-200h-20zM20 -50v25h20v-25h-20zM30 -10z" />
    <glyph glyph-name="Ldotbelowmacron" unicode="&#x1e38;" horiz-adv-x="150" 
d="M20 0v190h20v-172h105v-18h-125zM70 -50v25h20v-25h-20zM25 210v16h90v-16h-90zM70 235z" />
    <glyph glyph-name="ldotbelowmacron" unicode="&#x1e39;" horiz-adv-x="60" 
d="M20 0v200h20v-200h-20zM20 -50v25h20v-25h-20zM-15 215v16h90v-16h-90zM30 240z" />
    <glyph glyph-name="Macute" unicode="&#x1e3e;" horiz-adv-x="220" 
d="M20 0v190h30l60 -100l60 100h30v-190h-20v168l-65 -108h-10l-65 108v-168h-20zM140 250h-25l-25 -45h15zM120 255z" />
    <glyph glyph-name="macute" unicode="&#x1e3f;" horiz-adv-x="250" 
d="M20 0l-0.00292969 140.001h20v-23c13.333 17.333 28.333 26 45 26s28.334 -3.33301 35.001 -10s10.667 -12.334 12 -17.001c15.333 18 31.333 27 48 27s29.167 -3.83301 37.5 -11.5s12.5 -21.5 12.5 -41.5v-90h-20v85c0 13.333 -2.5 23.5 -7.5 30.5
s-14.167 10.5 -27.5 10.5s-26.666 -8.66699 -39.999 -26v-100h-20v85c0 13.333 -2.5 23.5 -7.5 30.5s-14.167 10.5 -27.5 10.5s-26.666 -8.66699 -39.999 -26v-100h-20zM154.997 210.001h-25l-25 -45h15zM134.997 215.001z" />
    <glyph glyph-name="Mdotaccent" unicode="&#x1e40;" horiz-adv-x="220" 
d="M20 0v190h30l60 -100l60 100h30v-190h-20v168l-65 -108h-10l-65 108v-168h-20zM100 205v25h20v-25h-20zM110 235z" />
    <glyph glyph-name="mdotaccent" unicode="&#x1e41;" horiz-adv-x="250" 
d="M20 0l-0.00292969 140.001h20v-23c13.333 17.333 28.333 26 45 26s28.334 -3.33301 35.001 -10s10.667 -12.334 12 -17.001c15.333 18 31.333 27 48 27s29.167 -3.83301 37.5 -11.5s12.5 -21.5 12.5 -41.5v-90h-20v85c0 13.333 -2.5 23.5 -7.5 30.5
s-14.167 10.5 -27.5 10.5s-26.666 -8.66699 -39.999 -26v-100h-20v85c0 13.333 -2.5 23.5 -7.5 30.5s-14.167 10.5 -27.5 10.5s-26.666 -8.66699 -39.999 -26v-100h-20zM114.997 165.001v25h20v-25h-20zM124.997 195.001z" />
    <glyph glyph-name="Mdotbelow" unicode="&#x1e42;" horiz-adv-x="220" 
d="M20 0v190h30l60 -100l60 100h30v-190h-20v168l-65 -108h-10l-65 108v-168h-20zM100 -50v25h20v-25h-20zM110 -10z" />
    <glyph glyph-name="mdotbelow" unicode="&#x1e43;" horiz-adv-x="250" 
d="M20 0l-0.00292969 140.001h20v-23c13.333 17.333 28.333 26 45 26s28.334 -3.33301 35.001 -10s10.667 -12.334 12 -17.001c15.333 18 31.333 27 48 27s29.167 -3.83301 37.5 -11.5s12.5 -21.5 12.5 -41.5v-90h-20v85c0 13.333 -2.5 23.5 -7.5 30.5
s-14.167 10.5 -27.5 10.5s-26.666 -8.66699 -39.999 -26v-100h-20v85c0 13.333 -2.5 23.5 -7.5 30.5s-14.167 10.5 -27.5 10.5s-26.666 -8.66699 -39.999 -26v-100h-20zM114.997 -49.999v25h20v-25h-20zM124.997 -9.99902z" />
    <glyph glyph-name="Ndotaccent" unicode="&#x1e44;" horiz-adv-x="190" 
d="M20 0v190h28l102 -165v165h20v-190h-28l-102 165v-165h-20zM85 205v25h20v-25h-20zM95 235z" />
    <glyph glyph-name="ndotaccent" unicode="&#x1e45;" horiz-adv-x="155" 
d="M20 0l-0.000976562 140h20v-23c13.333 17.333 28.333 26 45 26s29.167 -3.83301 37.5 -11.5s12.5 -21.5 12.5 -41.5v-90h-20v85c0 13.333 -2.5 23.5 -7.5 30.5s-14.167 10.5 -27.5 10.5s-26.666 -8.66699 -39.999 -26v-100h-20zM69.999 165v25h20v-25h-20zM79.999 195z
" />
    <glyph glyph-name="Ndotbelow" unicode="&#x1e46;" horiz-adv-x="190" 
d="M20 0v190h28l102 -165v165h20v-190h-28l-102 165v-165h-20zM85 -50v25h20v-25h-20zM95 -10z" />
    <glyph glyph-name="ndotbelow" unicode="&#x1e47;" horiz-adv-x="155" 
d="M20 0l-0.000976562 140h20v-23c13.333 17.333 28.333 26 45 26s29.167 -3.83301 37.5 -11.5s12.5 -21.5 12.5 -41.5v-90h-20v85c0 13.333 -2.5 23.5 -7.5 30.5s-14.167 10.5 -27.5 10.5s-26.666 -8.66699 -39.999 -26v-100h-20zM64.999 -50v25h20v-25h-20zM74.999 -10z
" />
    <glyph glyph-name="Otildeacute" unicode="&#x1e4c;" horiz-adv-x="205" 
d="M15 95c0 30 7.83301 54.167 23.5 72.5s37 27.5 64 27.5s48.333 -9.16699 64 -27.5s23.5 -42.5 23.5 -72.5s-7.83301 -54.167 -23.5 -72.5s-37 -27.5 -64 -27.5s-48.333 9.16699 -64 27.5s-23.5 42.5 -23.5 72.5zM37 95c0 -23.333 5.83301 -43.333 17.5 -60
s27.667 -25 48 -25s36.333 8.33301 48 25s17.5 36.667 17.5 60s-5.83301 43.333 -17.5 60s-27.667 25 -48 25s-36.333 -8.33301 -48 -25s-17.5 -36.667 -17.5 -60zM53 226c9.33301 12 19.333 18 30 18s18.5 -3 23.5 -9s11.167 -9 18.5 -9s14 4 20 12l8 -10
c-9.33301 -12 -19.333 -18 -30 -18s-18.5 3 -23.5 9s-11.167 9 -18.5 9s-14 -4 -20 -12zM133 300h-25l-25 -45h15zM113 305z" />
    <glyph glyph-name="otildeacute" unicode="&#x1e4d;" horiz-adv-x="165" 
d="M15 70c0 23.333 5.83301 41.666 17.5 54.999s28.334 20 50.001 20s38.334 -6.66699 50.001 -20s17.5 -31.666 17.5 -54.999s-5.83301 -41.666 -17.5 -54.999s-28.334 -20 -50.001 -20s-38.334 6.66699 -50.001 20s-17.5 31.666 -17.5 54.999zM36 70
c0 -16.667 4 -30.834 12 -42.501s19.5 -17.5 34.5 -17.5s26.5 5.83301 34.5 17.5s12 25.834 12 42.501s-4 30.834 -12 42.501s-19.5 17.5 -34.5 17.5s-26.5 -5.83301 -34.5 -17.5s-12 -25.834 -12 -42.501zM33 186c9.33301 12 19.333 18 30 18s18.5 -3 23.5 -9
s11.167 -9 18.5 -9s14 4 20 12l8 -10c-9.33301 -12 -19.333 -18 -30 -18s-18.5 3 -23.5 9s-11.167 9 -18.5 9s-14 -4 -20 -12zM113 260h-25l-25 -45h15zM93 265z" />
    <glyph glyph-name="Otildedieresis" unicode="&#x1e4e;" horiz-adv-x="205" 
d="M15 95c0 30 7.83301 54.167 23.5 72.5s37 27.5 64 27.5s48.333 -9.16699 64 -27.5s23.5 -42.5 23.5 -72.5s-7.83301 -54.167 -23.5 -72.5s-37 -27.5 -64 -27.5s-48.333 9.16699 -64 27.5s-23.5 42.5 -23.5 72.5zM37 95c0 -23.333 5.83301 -43.333 17.5 -60
s27.667 -25 48 -25s36.333 8.33301 48 25s17.5 36.667 17.5 60s-5.83301 43.333 -17.5 60s-27.667 25 -48 25s-36.333 -8.33301 -48 -25s-17.5 -36.667 -17.5 -60zM53 226c9.33301 12 19.333 18 30 18s18.5 -3 23.5 -9s11.167 -9 18.5 -9s14 4 20 12l8 -10
c-9.33301 -12 -19.333 -18 -30 -18s-18.5 3 -23.5 9s-11.167 9 -18.5 9s-14 -4 -20 -12zM63 255v20h20v-20h-20zM123 255v20h20v-20h-20zM103 280z" />
    <glyph glyph-name="otildedieresis" unicode="&#x1e4f;" horiz-adv-x="165" 
d="M15 70c0 23.333 5.83301 41.666 17.5 54.999s28.334 20 50.001 20s38.334 -6.66699 50.001 -20s17.5 -31.666 17.5 -54.999s-5.83301 -41.666 -17.5 -54.999s-28.334 -20 -50.001 -20s-38.334 6.66699 -50.001 20s-17.5 31.666 -17.5 54.999zM36 70
c0 -16.667 4 -30.834 12 -42.501s19.5 -17.5 34.5 -17.5s26.5 5.83301 34.5 17.5s12 25.834 12 42.501s-4 30.834 -12 42.501s-19.5 17.5 -34.5 17.5s-26.5 -5.83301 -34.5 -17.5s-12 -25.834 -12 -42.501zM33 186c9.33301 12 19.333 18 30 18s18.5 -3 23.5 -9
s11.167 -9 18.5 -9s14 4 20 12l8 -10c-9.33301 -12 -19.333 -18 -30 -18s-18.5 3 -23.5 9s-11.167 9 -18.5 9s-14 -4 -20 -12zM43 215v20h20v-20h-20zM103 215v20h20v-20h-20zM83 240z" />
    <glyph glyph-name="Omacrongrave" unicode="&#x1e50;" horiz-adv-x="205" 
d="M15 95c0 30 7.83301 54.167 23.5 72.5s37 27.5 64 27.5s48.333 -9.16699 64 -27.5s23.5 -42.5 23.5 -72.5s-7.83301 -54.167 -23.5 -72.5s-37 -27.5 -64 -27.5s-48.333 9.16699 -64 27.5s-23.5 42.5 -23.5 72.5zM37 95c0 -23.333 5.83301 -43.333 17.5 -60
s27.667 -25 48 -25s36.333 8.33301 48 25s17.5 36.667 17.5 60s-5.83301 43.333 -17.5 60s-27.667 25 -48 25s-36.333 -8.33301 -48 -25s-17.5 -36.667 -17.5 -60zM58 210v16h90v-16h-90zM73 285h25l25 -45h-15zM93 290z" />
    </font>
</defs>
</svg>
